<svg width="152" height="122" viewBox="0 0 152 122" fill="none" xmlns="http://www.w3.org/2000/svg">
<g clip-path="url(#clip0_851_4593)">
<path d="M50.0496 26.8408C50.9274 23.58 53.324 21.436 56.6382 21.0743L56.6375 21.0755C60.6105 20.6383 63.7046 19.954 66.4027 18.931L66.6911 18.8292C69.6697 17.8468 72.7413 19.0661 74.3817 21.8387L74.382 21.8397C75.0292 22.9357 75.7508 24.1897 76.4277 25.527C81.7101 24.2845 86.4631 22.7882 90.909 20.9769C92.9327 20.1524 94.8393 19.971 96.5292 20.6252C98.2197 21.2798 99.5006 22.6965 100.43 24.6641L100.431 24.6648C101.213 26.3241 101.942 28.0083 102.64 29.6192L103.693 32.0281C104.048 32.8304 104.408 33.6278 104.776 34.406L105.196 35.2655C105.631 36.1252 106.105 36.9903 106.609 37.91L107.105 38.8177C107.149 38.8976 107.192 38.9781 107.235 39.0585L107.236 39.0583C110.514 38.2399 113.943 37.3817 117.414 36.7586C122.309 35.8799 126.891 37.0426 130.602 38.2348C135.35 39.7595 137.15 43.767 138.047 46.4229C138.877 48.8793 139.678 51.3736 140.446 53.7801L141.253 56.29L142.072 58.8098C142.227 59.282 142.387 59.7498 142.553 60.2245L143.069 61.682L143.069 61.6829C143.404 62.6319 143.759 63.6265 144.091 64.6303L144.088 64.631C144.374 65.4992 144.565 66.4465 144.676 67.5162C144.978 70.4155 144.643 72.8094 143.39 74.7258C142.137 76.6419 140.077 77.9107 137.298 78.8014L137.299 78.8021C137.264 78.8136 137.228 78.8243 137.192 78.8359C136.921 81.5372 135.653 84.5286 132.395 87.2185C128.687 90.2806 124.246 91.5986 119.583 91.0043C115.167 90.4424 111.921 88.0037 110.529 84.2882C110.019 84.4186 109.525 84.5334 109.06 84.639L109.059 84.638C108.131 84.851 107.334 85.0341 106.639 85.2839L106.64 85.2846C105.165 85.8179 103.677 86.3461 102.195 86.8668L97.7878 88.4046C95.9467 89.0462 94.105 89.6865 92.2679 90.3341C92.0089 90.5386 91.634 90.8091 91.1525 91.0371L91.1537 91.0378C90.2812 91.4527 89.4612 91.7735 88.6518 92.0115L88.6489 92.0122C88.109 92.169 87.5904 92.2801 87.1672 92.3711L87.1613 92.3716C86.7211 92.4635 86.3819 92.5407 86.1524 92.6204L86.1512 92.6197C85.261 92.9319 84.3628 93.2529 83.4672 93.5759L80.7949 94.5462C77.332 95.8056 73.7289 97.1139 70.1027 98.2629L70.102 98.2641C67.392 99.1201 64.6415 99.6448 62.0442 100.139L62.0432 100.139C62.023 100.143 62.0029 100.147 61.9827 100.151C61.7268 101.971 60.9178 103.68 59.6302 105.135L59.6295 105.137C58.4532 106.465 57.003 108.026 55.3031 109.365L54.9599 109.629C53.4277 110.786 51.7324 111.607 49.9545 112.066C48.0768 112.552 46.114 112.634 44.1632 112.287C41.0502 111.734 38.282 110.152 36.1799 107.778C32.0396 109.532 27.7633 109.077 24.0303 106.424C18.9403 102.808 15.4377 98.3473 13.675 93.151L13.5101 92.6459C12.7184 90.133 12.1059 87.3805 11.6349 84.2423C11.1969 81.3233 11.5436 78.6693 12.708 76.3887C13.8727 74.1075 15.8143 72.2801 18.4277 70.9447L18.4287 70.9445C20.6478 69.8122 22.9281 68.8774 25.0915 67.9892C25.9884 67.6213 26.9011 67.2477 27.7827 66.8697L27.7836 66.8695C28.6037 66.5189 29.4223 66.1719 30.2419 65.8244C31.9708 65.0907 33.7424 64.3386 35.4692 63.5711C36.8011 57.967 38.0448 52.1125 37.7371 46.1923L37.7033 45.4142C37.6443 43.5592 37.7635 41.4546 38.9574 39.5907L38.9581 39.5895C40.3088 37.4831 42.5411 36.4734 44.4222 35.6964C46.1306 34.9902 47.8649 34.304 49.5334 33.6416L49.5362 33.6409C49.5746 33.6257 49.613 33.6101 49.6515 33.5949C49.3282 31.5557 49.4419 29.4183 49.9697 27.16L50.0496 26.8408Z" fill="white" stroke="white" stroke-width="2"/>
<path d="M120.679 86.4823C124.062 86.9133 127.161 85.9896 129.891 83.7388C132.521 81.5669 133.484 79.0709 132.83 76.1099L132.702 75.5339L134.343 75.0219C135.073 74.7933 135.769 74.5761 136.464 74.354C140.15 73.1723 140.95 71.9468 140.55 68.0986C140.472 67.353 140.349 66.7332 140.173 66.1989C139.856 65.2385 139.508 64.2647 139.173 63.3221C138.823 62.3383 138.462 61.3227 138.128 60.3107C137.568 58.6074 137.013 56.8734 136.478 55.198C135.703 52.7789 134.905 50.2782 134.079 47.8352C133.072 44.8592 131.758 43.3054 129.682 42.6376C126.422 41.5897 122.57 40.6126 118.717 41.3055C115.374 41.9065 112.005 42.7482 108.749 43.5609C108.073 43.7304 107.397 43.8999 106.723 44.0662C105.682 44.3219 104.867 44.2403 104.253 43.0109C103.75 42.0028 103.195 40.9921 102.659 40.0137C101.987 38.7835 101.287 37.5123 100.675 36.216C99.897 34.5689 99.1633 32.8759 98.4544 31.2375C97.7596 29.6328 97.0423 27.9727 96.2843 26.371C95.4275 24.5529 94.7972 24.3116 92.9229 25.0754C87.5796 27.2521 81.8437 28.9931 75.3867 30.3993C74.1298 30.6738 73.4391 30.3125 72.9225 29.1191C72.1257 27.2748 71.1331 25.529 70.1809 23.919C69.9387 23.5082 69.249 22.6042 68.051 23.0549C64.9084 24.2451 61.3909 25.0269 56.9854 25.5091C55.6217 25.6596 54.8248 26.4241 54.4747 27.916C53.8042 30.7886 54.0216 33.1763 55.1645 35.431L55.4624 36.0162L54.8692 36.2998C54.7101 36.3755 54.5754 36.4423 54.455 36.5027C54.2186 36.6196 54.0346 36.7124 53.8318 36.7941C52.9161 37.1612 52.0016 37.5226 51.0853 37.8871C49.4069 38.5525 47.6729 39.2401 45.9765 39.9394C42.4278 41.4047 42.0416 42.0045 42.2373 45.7833C42.5815 52.4356 41.2318 58.7866 39.8203 64.7228C39.6588 65.4081 39.4306 65.9484 39.1258 66.3783C38.7664 66.886 38.2702 67.5036 37.6113 67.8016C35.6452 68.6849 33.6314 69.538 31.6849 70.3631C30.8655 70.7105 30.0461 71.058 29.2248 71.4086C28.2981 71.8051 27.3507 72.1937 26.4345 72.5689C24.3181 73.4379 22.1267 74.3369 20.073 75.3864C16.6272 77.1469 15.2365 79.8839 15.8167 83.7574C16.2572 86.6884 16.8193 89.2236 17.5387 91.5108C18.9447 95.9792 21.8245 99.7129 26.3425 102.925C29.1122 104.892 32.0838 104.958 35.1784 103.118C35.4352 102.967 35.6973 102.857 35.9573 102.789C36.947 102.534 37.9118 102.882 38.4742 103.758C39.9479 106.055 42.1634 107.57 44.7097 108.023C47.1914 108.464 49.7165 107.835 51.8132 106.25C53.3191 105.114 54.6266 103.715 55.8155 102.373C56.5133 101.586 57.2837 100.286 56.9992 98.5563C56.7198 96.8468 57.7232 96.4066 58.7446 96.201C59.4973 96.0489 60.2524 95.9069 61.0095 95.7617C63.5276 95.2808 66.135 94.7848 68.5846 94.0079C72.1458 92.8797 75.7239 91.5796 79.1872 90.3198C80.9784 89.6679 82.8283 88.9954 84.6566 88.3525C85.1942 88.163 85.743 88.0477 86.2761 87.9338C86.6755 87.8492 87.0568 87.7665 87.421 87.6591C87.9788 87.4962 88.5668 87.2644 89.2225 86.954C89.3248 86.9062 89.443 86.8065 89.5706 86.7017C89.7815 86.5275 90.0192 86.3331 90.3339 86.2198C92.3563 85.5028 94.3819 84.7983 96.4075 84.0937C99.331 83.0772 102.354 82.0242 105.315 80.9556C106.308 80.5979 107.34 80.3628 108.337 80.1343C110.024 79.7488 111.621 79.3864 113.032 78.4711C113.272 78.316 113.522 78.222 113.785 78.1248C113.899 78.082 114.018 78.0378 114.149 77.9855L115.049 77.6092L115.044 78.5811C115.042 78.7385 115.044 78.8815 115.044 79.0145C115.044 79.2831 115.045 79.5141 115.035 79.7428C114.888 83.6076 116.888 85.9999 120.673 86.4811L120.679 86.4823ZM129.969 80.7108C128.72 82.4061 126.971 83.5417 124.461 84.2917L124.421 84.302L124.299 84.3231C122.393 84.635 120.024 85.024 118.183 83.2025C116.431 81.4695 117.016 79.2866 117.487 77.5319L117.582 77.1775C118.168 74.9572 119.344 72.8953 121.181 70.8727C122.002 69.9662 122.949 69.7188 124.069 70.1125C127.155 71.1975 129.342 73.3846 130.752 76.7962C131.258 78.024 131.003 79.3029 129.968 80.7058L129.969 80.7108ZM56.2769 32.298C56.1659 31.5182 56.2171 30.7365 56.2666 29.9791C56.2835 29.7247 56.2998 29.4679 56.3117 29.2148C56.3719 27.7154 57.6428 27.4639 58.0635 27.3791C59.6306 27.067 61.2251 26.7265 62.7633 26.3953C64.3046 26.0659 65.8959 25.7236 67.4681 25.4102C68.0107 25.3018 68.8818 25.5978 69.19 26.1404C69.7374 27.1025 70.2293 28.0975 70.7988 29.248C71.0148 29.6814 71.2405 30.1417 71.4908 30.6354L71.8485 31.3487L71.0737 31.549C70.194 31.7765 69.3467 31.9955 68.5194 32.2094C66.4875 32.7348 64.5667 33.2261 62.6636 33.7341C61.8008 33.9652 60.9428 34.2668 60.1093 34.5594C59.9819 34.603 59.8589 34.6428 59.7364 34.6744C58.8966 34.8916 58.1411 34.8157 57.5336 34.4462C57.0594 34.1592 56.4577 33.5543 56.2782 32.303L56.2769 32.298ZM42.1499 64.8331C42.1551 64.6882 42.1542 64.5608 42.1508 64.4446C42.1483 64.198 42.1466 63.9644 42.1987 63.7222C43.4571 57.9879 44.7536 51.3076 44.2174 44.5932C44.0822 42.9049 45.4711 42.357 45.9942 42.1526C47.2382 41.6635 48.5002 41.1404 49.7222 40.6383C52.5819 39.4574 55.5402 38.2352 58.5457 37.2985C62.4394 36.0844 66.4393 35.013 70.3092 33.9752C72.8752 33.2878 75.528 32.5753 78.1199 31.8334C82.2897 30.6356 86.5005 29.2969 90.5714 28.005L92.3157 27.4503C94.0701 26.893 94.3892 27.0339 95.1741 28.7084L95.2262 28.8172C96.7916 32.1488 98.4036 35.5268 99.9628 38.7935C100.668 40.2732 101.376 41.7548 102.08 43.2377C102.202 43.4958 102.318 43.7559 102.451 44.0564C102.516 44.2045 102.586 44.3594 102.662 44.5311L102.957 45.1862L94.701 47.834L93.3893 45.1123C92.5374 43.3434 91.7038 41.615 90.8703 39.8866C89.3488 36.7245 88.2375 36.2832 84.9168 37.5167C83.2043 38.1536 81.4508 38.7452 79.7535 39.3171C78.8018 39.6376 77.8526 39.9575 76.906 40.2873L76.7199 40.3514C76.03 40.5909 75.3175 40.8363 74.6763 41.151C74.1654 41.4028 73.3232 41.9715 73.4321 42.9805C73.683 45.3223 73.9975 47.6423 74.3312 50.0983C74.4649 51.0796 74.6 52.0765 74.7334 53.0977L74.8037 53.6274L74.2947 53.7936C74.0293 53.8808 73.7427 53.9788 73.4386 54.0814C72.4063 54.4307 71.2399 54.828 70.0152 55.1447C69.2979 55.3302 68.4769 54.4441 68.2578 53.937C67.3941 51.9478 66.5633 49.9102 65.7581 47.9404C65.5107 47.3342 65.264 46.7305 65.0141 46.125C64.9656 46.0099 64.9222 45.8935 64.8788 45.7771C64.8309 45.6538 64.7855 45.5299 64.7327 45.408C63.5827 42.7136 62.9822 42.4327 60.1568 43.2616C57.7331 43.9734 54.9839 44.7773 52.2943 45.595C50.3636 46.1819 50.0457 46.6231 50.0289 48.7443C50.0133 50.6125 49.8745 52.4992 49.7384 54.3241C49.7129 54.6791 49.6867 55.0316 49.6611 55.3866C49.5153 57.4214 49.3272 59.5815 49.0877 61.9863C49.0486 62.3713 48.7871 63.0718 48.2455 63.3076C46.9806 63.8607 45.708 64.3732 44.3597 64.9133C43.9272 65.0863 43.4878 65.2637 43.039 65.4462L42.1222 65.8189L42.1499 64.8331ZM92.8495 48.5521L76.9338 52.6671L76.813 51.983C76.7286 51.5022 76.638 51.0177 76.548 50.5251C76.3296 49.3503 76.1065 48.1368 75.9247 46.918C75.8884 46.6747 75.8364 46.4116 75.778 46.1342C75.5675 45.093 75.3473 44.0144 75.8579 43.2256C76.3277 42.4951 77.2863 42.2632 78.2167 42.036C78.5754 41.9485 78.9166 41.8656 79.2063 41.7588C79.7888 41.5471 80.3695 41.3384 80.9526 41.1291C82.5454 40.5551 84.1925 39.9644 85.7942 39.3428C86.7537 38.9698 88.1301 38.6936 88.9711 40.585C89.6994 42.2263 90.5103 43.8463 91.3662 45.5583C91.736 46.2977 92.116 47.0557 92.5006 47.8418L92.8489 48.5496L92.8495 48.5521ZM66.4283 56.0189C66.2707 56.3788 65.9527 56.6445 65.4558 56.8261C62.67 57.8496 59.842 58.9052 57.1088 59.9257C55.6204 60.4807 54.1321 61.0357 52.6463 61.5901C52.6051 61.606 52.5657 61.6189 52.5232 61.6299C52.3908 61.6641 52.2606 61.6765 52.1042 61.6903C52.0079 61.6993 51.8878 61.7091 51.7327 61.7279L50.9165 61.8299L51.0125 61.0153C51.0654 60.5601 51.1204 60.1231 51.173 59.6973C51.2829 58.8126 51.3894 57.9766 51.4627 57.1466C51.5506 56.1665 51.6272 55.184 51.7045 54.204C51.8368 52.5397 51.973 50.8185 52.1521 49.1287C52.2177 48.5161 52.7879 47.6693 53.4537 47.4493C54.8238 46.994 56.2287 46.5802 57.586 46.1787C58.5649 45.8911 59.5756 45.5925 60.5618 45.2817C61.7316 44.9181 62.4867 45.2706 62.9315 46.4029C63.8286 48.6972 64.7998 51.0097 65.736 53.2487L66.2847 54.5562C66.4294 54.8991 66.669 55.4753 66.4296 56.0239L66.4283 56.0189ZM53.9346 101.492C52.8247 102.675 51.7219 103.814 50.4273 104.747C49.6658 105.298 48.8354 105.685 47.9806 105.906C46.646 106.251 45.2439 106.191 43.9106 105.706C41.8567 104.961 40.271 103.272 39.5916 101.14L39.0392 101.096L39.0914 100.453C39.1385 99.8821 39.1572 99.2842 39.1755 98.7051C39.2188 97.2844 39.2655 95.8151 39.725 94.457C40.2181 93.0025 41.6413 91.8448 42.9362 90.8717C43.8321 90.2013 45.3818 89.6464 47.683 90.8225C50.6447 92.3358 53.2037 93.8388 54.545 96.9331C55.5023 99.1401 54.7408 100.629 53.9321 101.493L53.9346 101.492ZM62.5596 93.4036C62.0545 93.5023 61.5575 93.6015 61.0662 93.702C59.5197 94.0114 58.057 94.3045 56.5682 94.5485C55.8235 94.6692 55.1287 93.8277 55.051 93.7335C52.9151 91.052 49.955 89.5756 47.342 88.4827C45.9492 87.9015 44.5364 87.9237 43.0242 88.5514L42.812 88.6381C42.5274 88.7543 42.2596 88.8634 42.0196 88.9972C37.7762 91.3442 37.4353 92.8099 37.4186 94.6225C37.4084 95.8618 37.2787 97.1133 37.155 98.326C37.0984 98.8804 37.0405 99.4406 36.9946 100.006L36.9694 100.321L36.7638 100.453C36.6525 100.559 36.5241 100.63 36.3891 100.665C36.3616 100.672 36.3316 100.68 36.3029 100.682C34.7907 100.897 34.0315 101.003 33.441 100.555C32.8561 100.108 32.7635 99.3577 32.5797 97.8628C32.1759 94.5686 33.0538 91.5494 35.1888 88.8753C37.8417 85.554 41.4078 83.0524 45.788 81.4412C47.5917 80.7754 49.4442 80.8761 51.0061 81.7195C53.3682 82.9969 56.1007 84.5003 58.6731 86.1993C61.0108 87.7435 62.1556 90.16 63.044 92.5444L63.3103 93.2547L62.5646 93.4023L62.5596 93.4036ZM86.2648 85.0541C86.0119 85.6433 85.4041 85.9122 84.9689 86.0646C79.5316 87.9704 74.1765 89.9054 67.8113 92.2239C66.7144 92.6219 65.3631 92.8304 64.603 90.8808C63.2131 87.3098 60.6881 84.5667 56.8809 82.4955C56.1731 82.1094 55.4672 81.7202 54.7613 81.331C54.139 80.9866 53.5142 80.6429 52.89 80.3017C50.0338 78.7425 47.0174 78.6262 43.9215 79.9559C40.0387 81.6246 36.9279 83.8038 34.4102 86.6167C30.796 90.6546 29.6568 95.0764 30.925 100.136C30.9953 100.408 31.0392 100.681 31.085 100.94C31.1046 101.058 31.1236 101.172 31.1458 101.289L31.1992 101.568L30.4088 102.626L29.925 102.384C29.6341 102.238 29.3282 102.107 29.0073 101.97C28.2813 101.657 27.5283 101.334 26.8928 100.814C22.5954 97.301 20.2212 93.9552 19.1968 89.9625C18.6129 87.6935 18.1826 85.3901 17.837 83.4345C17.3423 80.6345 18.4759 78.4081 21.034 77.1643C22.9926 76.2112 25.0334 75.3591 27.0043 74.5357C27.531 74.3144 28.0559 74.0963 28.5795 73.8731C30.4137 73.0984 32.249 72.318 34.0819 71.5383C39.314 69.3133 44.7271 67.0149 50.0861 64.8368C53.8722 63.2995 57.7628 61.8468 61.5242 60.4408C63.0731 59.8622 64.6195 59.2842 66.1639 58.6987C66.453 58.5894 66.748 58.5238 67.0073 58.4647C67.1154 58.4394 67.2242 58.4166 67.3292 58.3894L67.7465 58.2815L68.0058 58.624C68.4755 59.2445 68.7847 59.6566 69.0018 59.7228C69.2301 59.7914 69.7718 59.638 70.5907 59.4023L70.6857 59.3778C71.2642 59.2123 72.0737 59.3939 72.5017 59.7805C72.8294 60.0787 73.1847 60.3804 73.5262 60.6697C74.5984 61.5786 75.7053 62.5183 76.4335 63.7261C78.4383 67.0558 80.1598 70.589 81.8246 74.0066C82.8309 76.0733 83.7739 78.2042 84.6856 80.2661C85.1599 81.3375 85.6311 82.407 86.1148 83.4733C86.2962 83.8759 86.5103 84.4773 86.2642 85.0516L86.2648 85.0541ZM108.317 76.1667C108.578 77.3011 108.204 77.9695 107.107 78.3357C103.151 79.6509 99.1398 81.0178 95.2576 82.338C93.6178 82.895 91.9786 83.4544 90.3381 84.0089C90.2033 84.0544 90.069 84.0918 89.934 84.1267C89.824 84.1551 89.7165 84.1829 89.6078 84.2057C89.5028 84.2328 89.3966 84.255 89.2891 84.2828L88.8142 84.4055L88.5688 83.9823C88.5257 83.9084 88.482 83.8426 88.4421 83.7811C88.3357 83.6171 88.2256 83.4488 88.1588 83.232C86.8944 79.1047 84.8654 75.2175 82.9019 71.4596C81.8598 69.4607 80.7797 67.3971 79.8208 65.3076C79.1902 63.9309 78.2404 62.4851 77.0038 61.0125C76.2604 60.1277 75.3732 59.3465 74.4349 58.5228C74.0108 58.1511 73.5723 57.7645 73.1398 57.3604L72.3399 56.6179L73.3804 56.2797C73.835 56.1303 74.294 55.977 74.758 55.8225C75.769 55.484 76.815 55.1364 77.8669 54.8219C83.1827 53.24 88.5017 51.6707 93.82 50.0988L99.7306 48.3526C101.209 47.9144 102.689 47.4707 104.166 47.0251C107.497 46.02 110.946 44.9821 114.364 44.0531C118.73 42.863 123.232 42.8877 127.707 44.1162C129.869 44.7114 131.214 45.8714 131.817 47.6675C132.911 50.9213 133.99 54.2377 135.033 57.4464C135.458 58.7512 135.881 60.0566 136.306 61.3589L136.448 61.7955L135.397 62.5859L135.004 62.2514C134.535 61.8514 134.066 61.4489 133.598 61.0432C132.589 60.1738 131.548 59.2729 130.5 58.4244C127.471 55.9711 124.349 55.0845 120.957 55.714C114.878 56.8472 109.563 62.0852 108.317 68.1754C107.735 71.0197 107.733 73.6317 108.312 76.1599L108.317 76.1667ZM113.747 75.6163C113.566 75.7321 113.381 75.8493 113.187 75.9578C112.844 76.1475 112.508 76.3434 112.112 76.5735L110.739 77.3674L110.531 76.5435C109.533 72.6024 109.757 69.1273 111.21 65.917C112.882 62.2244 115.705 59.6249 119.597 58.196C122.653 57.0734 125.486 57.3805 127.793 59.0843C130.601 61.156 133.104 63.3197 135.231 65.514C136.148 66.4604 136.746 67.6619 137.383 68.9361C137.676 69.5225 137.979 70.1301 138.326 70.7398L138.711 71.4141L131.735 73.8029L131.451 73.4668C131.379 73.3844 131.302 73.2951 131.22 73.2022C131.023 72.979 130.8 72.723 130.593 72.4494C129.012 70.3664 126.885 68.8528 124.092 67.8277C122.855 67.3738 121.726 67.5965 120.913 68.4554C119.433 70.0215 118.12 71.7704 116.922 73.4259L116.806 73.5862C116.358 74.2152 115.894 74.8644 114.825 75.0742C114.492 75.1445 114.129 75.3713 113.749 75.6131L113.747 75.6163Z" fill="black"/>
</g>
<defs>
<clipPath id="clip0_851_4593">
<rect width="137" height="90" fill="white" transform="translate(-4 34.2941) rotate(-14.4965)"/>
</clipPath>
</defs>
</svg>
