<svg width="100" height="71" viewBox="0 0 100 71" fill="none" xmlns="http://www.w3.org/2000/svg">
<g clip-path="url(#clip0_851_4591)">
<path d="M67.5116 0.514526C61.5486 0.0616175 56.0543 3.43732 53.8378 8.92175C52.3403 12.6203 51.7082 16.639 51.8436 21.4735L51.8817 22.452C51.9256 23.3495 51.9857 24.2468 52.0428 25.1063V25.1073C52.1247 26.3054 52.1988 27.4335 52.2323 28.5555C49.3214 29.196 46.3397 29.277 43.3583 28.7841H43.3573C41.5006 28.479 39.6745 28.0974 37.7274 27.6893L35.9706 27.3231L35.6503 27.2509C34.0777 26.8581 32.9355 26.0231 32.038 24.618C28.8235 19.582 26.2587 15.4001 24.577 10.702C23.7833 8.48201 22.8449 6.42812 21.7841 4.60339C20.5617 2.50174 18.7074 1.14775 16.5438 0.856323C14.4243 0.570759 12.3227 1.35268 10.6278 2.99109H10.6268C9.07614 4.49264 7.69407 6.40466 6.6073 8.53308H6.60144L6.46375 8.8114C3.02584 15.7793 1.43934 23.7132 1.43933 33.7469C1.43933 37.5509 1.61103 40.9536 1.96765 44.1444C2.49071 48.8198 4.8548 52.8126 8.78894 55.6825H8.78992C9.86306 56.4639 10.9499 57.2791 12.0087 58.0692C14.7448 60.1167 17.5936 62.2491 20.6014 64.162C26.2452 67.7534 32.6442 69.5575 39.6796 69.5575C42.0959 69.5575 44.5869 69.346 47.1464 68.9208C57.0752 67.2726 66.0645 62.393 74.6249 54.0458V54.0448C75.8844 52.8156 76.6937 51.4163 77.4344 50.1132C79.4621 49.6715 80.9825 48.3268 82.121 46.1278C84.5889 41.3577 86.0475 37.1773 86.6747 33.0428C88.7267 32.51 90.7168 31.864 92.6337 31.2382C93.2988 31.021 93.9616 30.8047 94.6268 30.5936C97.423 29.7047 99.1169 28.011 99.4696 25.5243C99.5719 24.8052 99.5859 23.7589 99.1512 22.6268C98.7137 21.4873 97.8349 20.2974 96.2128 19.2802L95.6356 18.9169L93.4501 17.5468C91.3121 16.2126 89.1185 14.8727 86.8817 13.6132C86.4282 10.5933 84.9336 8.53402 82.4003 7.6073C82.3823 7.5864 82.3645 7.56455 82.3456 7.54382C78.6666 3.34 73.6608 0.98099 67.5116 0.514526Z" fill="#E8B870" stroke="#E8B870"/>
<path d="M13.8089 6.11198C14.512 5.43415 15.2423 5.12171 15.9262 5.21438C16.6511 5.31235 17.3159 5.84985 17.85 6.76863C18.7738 8.36259 19.6022 10.1737 20.3107 12.1489C22.2944 17.6933 25.5698 22.8221 28.2021 26.942C29.8044 29.4521 32.1043 31.0275 35.0418 31.6312C35.6222 31.7504 36.2026 31.8722 36.783 31.994C38.685 32.3911 40.6525 32.8042 42.6062 33.1246C46.2631 33.7283 49.9282 33.6144 53.5006 32.7909C56.1465 32.1793 56.8169 31.3558 56.7597 28.7902C56.7297 27.461 56.6398 26.1159 56.5526 24.8158C56.4953 23.9712 56.4381 23.0974 56.3945 22.2396C56.1711 17.5874 56.6943 13.8673 58.0404 10.5311C59.5228 6.8613 63.1933 4.59216 67.1608 4.89665C72.1638 5.27793 76.0087 7.07577 78.9135 10.4014C78.9735 10.4702 79.0362 10.547 79.0988 10.6264C79.4204 11.021 79.7828 11.4658 80.3251 11.5849C81.8265 11.9133 82.2461 12.9194 82.4369 14.4339C82.5868 15.6201 83.328 16.6951 84.4179 17.3041C87.3936 18.9696 90.3365 20.8204 93.1814 22.6076L93.7673 22.9756C94.7319 23.582 95.097 24.1592 94.9908 24.9085C94.8763 25.7214 94.2795 26.0577 93.225 26.3939C92.5492 26.6084 91.8734 26.8282 91.1976 27.0479C89.1348 27.7205 87.0012 28.4168 84.8757 28.9358C83.2299 29.3382 82.5023 30.1485 82.2843 31.8272C81.7829 35.6479 80.4504 39.5586 78.0851 44.1314C77.2295 45.7836 76.6164 45.998 75.1994 45.81L74.807 45.7571L74.5972 46.0828C74.2212 46.6679 73.8833 47.2584 73.559 47.8303C72.8996 48.9927 72.2755 50.0888 71.4281 50.9149C63.5366 58.612 55.3454 63.0762 46.3885 64.5616C37.3852 66.0549 29.7581 64.7125 23.0711 60.4575C20.2098 58.6385 17.4386 56.5653 14.7572 54.5583C13.6918 53.7613 12.5909 52.9378 11.4982 52.1409C8.54432 49.9856 6.8494 47.1313 6.46246 43.6548C6.12456 40.6231 5.96107 37.3769 5.96107 33.7309C5.96107 24.3551 7.41347 17.0393 10.539 10.7059C11.4273 8.90538 12.5582 7.31407 13.8089 6.10404V6.11198ZM83.0636 27.1883L91.015 24.9006L91.1813 23.6747L83.0636 18.8239V27.1909V27.1883ZM8.56067 42.3732C8.78957 45.8445 10.3918 48.6564 13.3184 50.7349C14.73 51.7384 16.1524 52.7843 17.5258 53.7957C19.4605 55.2202 21.4579 56.6924 23.4798 58.0772C28.213 61.3154 33.5294 62.9173 39.6115 62.9173C41.4863 62.9173 43.4319 62.7664 45.4565 62.4619C54.0728 61.1724 62.0025 56.9201 69.6977 49.4587C70.4989 48.6802 70.973 47.6396 71.4335 46.6335C71.5534 46.3687 71.6733 46.1039 71.8014 45.8471C72.0221 45.3943 72.1665 44.9257 72.3082 44.4703C72.4336 44.0625 72.5535 43.6759 72.7197 43.3211C73.063 42.5851 73.4418 42.1508 73.7797 42.1032C74.1258 42.0528 74.6299 42.3679 75.1994 42.9902L75.8207 43.668L76.2158 42.8472C77.8971 39.3415 79.5294 35.5023 80.0744 31.1705L80.1534 30.5456L79.5048 30.5033C79.246 30.4874 78.9926 30.4821 78.7446 30.4768C78.2323 30.4662 77.7908 30.4583 77.4066 30.347C77.0306 30.2385 76.6518 29.9631 76.5455 29.7804C76.5782 29.6242 76.7881 29.2721 76.9924 29.1185C77.5919 28.6657 78.2377 28.348 78.8073 28.2262C80.0526 27.9588 80.633 27.2412 80.6302 25.9676C80.6248 23.4337 80.464 20.733 80.137 17.7145C79.7855 14.471 77.8726 12.6043 76.0196 10.7985L75.6599 10.449C73.7307 8.55587 71.1065 7.51265 67.4033 7.17109C63.8445 6.84276 61.2068 8.49498 59.9914 11.8285C58.8224 15.0297 58.4191 18.583 58.7243 23.0127C58.757 23.4867 58.7925 23.958 58.8279 24.4319C58.9369 25.8803 59.0513 27.3789 59.0568 28.8431C59.0704 32.4785 57.7597 34.0778 54.0483 34.9568C49.6857 35.9895 44.9116 35.963 39.4507 34.8774C38.3962 34.6682 37.3253 34.4326 36.2898 34.2049C35.7339 34.0831 35.1807 33.9613 34.6249 33.8421C30.9107 33.0504 28.0959 31.0725 26.0222 27.8025C22.8966 22.875 19.6785 17.5742 17.7111 11.7279C17.4331 10.9044 17.0653 10.1101 16.7083 9.34226C16.5421 8.98481 16.3758 8.62736 16.2178 8.26462L16.0679 7.92306L14.73 7.85157L14.5419 8.17459C14.3485 8.50821 14.1496 8.83654 13.9506 9.16751C13.5119 9.89035 13.0596 10.6397 12.6863 11.4261C9.80325 17.4815 8.37537 24.0559 8.3127 31.5227C8.27728 35.918 8.35085 39.2647 8.55795 42.3732H8.56067Z" fill="black" stroke="#E8B870" stroke-width="0.5"/>
<path d="M56.7351 43.6204C56.9912 43.6204 57.2555 43.7078 57.5035 43.9487C57.7297 44.1685 57.8496 44.4518 57.8387 44.7457C57.8278 45.082 57.6452 45.4129 57.3291 45.6777C53.5278 48.8656 49.8055 50.9044 45.947 51.9132C44.2085 52.3686 42.3691 51.7332 41.3636 50.3325C41.0448 49.8903 40.7641 49.4058 40.4644 48.8921C40.3254 48.6538 40.181 48.4076 40.0284 48.156L39.6959 47.6053L39.1537 47.9654C38.8267 48.1825 38.5187 48.397 38.2163 48.6061C37.5759 49.0483 36.9737 49.4667 36.3497 49.8109C35.2107 50.4384 34.2569 50.87 33.3468 51.1745C30.1531 52.2415 26.7933 51.3598 24.9894 48.9742C24.7904 48.712 24.5997 48.4287 24.4117 48.156C23.6487 47.036 22.8584 45.8763 21.2562 45.3785C21.1989 45.3467 21.0491 45.1508 20.9701 45.0449L20.8829 44.931C19.0135 42.5454 17.8909 40.1968 17.4494 37.7476C17.4276 37.6232 17.4031 37.5014 17.3786 37.3769C17.2696 36.813 17.1687 36.2781 17.2069 35.7803C17.2232 35.5685 17.3268 35.3276 17.4521 35.0734C17.6756 35.2402 17.8881 35.407 18.0789 35.587C18.1143 35.6188 18.1742 35.7565 18.2151 35.8465C18.2587 35.9471 18.305 36.0477 18.3568 36.1404C18.6538 36.6753 18.9481 37.2128 19.2424 37.7503C20.079 39.2754 20.9455 40.8508 21.8638 42.3706C22.1936 42.9134 23.0601 43.4959 23.804 43.4959C23.8231 43.4959 23.8394 43.4959 23.8585 43.4959C24.8913 43.4509 25.3954 43.8375 25.5289 44.7722C25.7959 46.6362 26.8342 48.1428 28.3792 48.9C29.9706 49.6838 31.8971 49.562 33.8046 48.5611C34.9409 47.9627 35.96 47.1684 36.9437 46.3979C37.516 45.9504 38.1046 45.4897 38.704 45.0819C38.794 45.021 38.8866 44.9575 38.9793 44.8913C39.5706 44.4809 40.2382 44.0122 40.7505 44.0096H40.7587C41.271 44.0096 41.4454 44.3644 41.7124 45.4262C41.7396 45.5294 41.7642 45.6327 41.7914 45.7333C42.0067 46.5329 42.2192 47.1631 42.4672 47.7191C43.4237 49.8638 44.263 50.2107 46.5383 49.419C49.8682 48.2593 52.8902 46.4932 55.5252 44.1711C55.7568 43.9672 56.2255 43.6204 56.7323 43.6204H56.7351Z" fill="black"/>
<path d="M68.6922 16.9281C68.7249 16.9281 68.7549 16.9281 68.7876 16.9281C70.2972 16.9784 71.4608 17.3888 72.1556 18.117C72.7115 18.6995 72.9704 19.4832 72.9295 20.447C72.8805 21.612 71.4172 22.8194 70.0711 22.8194C70.0574 22.8194 70.0438 22.8194 70.0302 22.8194C69.1309 22.8035 68.1445 22.3428 67.3952 21.5855C66.6839 20.868 66.2834 19.9969 66.2997 19.1972C66.3133 18.5485 66.5695 17.9634 67.0191 17.5477C67.4551 17.1452 68.0464 16.9281 68.6922 16.9281Z" fill="black"/>
</g>
<defs>
<clipPath id="clip0_851_4591">
<rect width="100" height="71" fill="white" transform="matrix(-1 0 0 1 100 0)"/>
</clipPath>
</defs>
</svg>
