<svg width="107" height="91" viewBox="0 0 107 91" fill="none" xmlns="http://www.w3.org/2000/svg">
<g clip-path="url(#clip0_843_4693)">
<path d="M63.7521 24.7508C70.8577 20.7537 78.5598 20.3592 85.9711 23.6258L85.9699 23.6264C87.1919 24.1636 88.9997 24.8931 90.2117 26.1486C91.5003 27.4841 92.1401 29.3356 92.1531 31.1383C92.1652 32.8293 91.6251 34.569 90.4387 35.8686L90.193 36.1222C89.2298 37.0592 87.8934 37.984 86.6011 38.6477L86.5999 38.6482C84.4055 39.7741 81.9725 40.4328 79.5681 40.9661C81.5469 41.6103 83.5104 42.3006 84.8624 42.8987C88.3103 44.4242 90.6904 47.0903 92.4923 49.3766C94.8695 52.3941 94.2815 55.7159 93.7248 57.7408C93.3725 59.0221 92.5801 61.4881 91.7034 64.1768L90.812 66.9049L89.3111 71.51C88.8634 72.9001 88.4965 74.066 88.297 74.7667L88.0058 75.8333L87.7178 76.9404C87.5613 77.5469 87.3947 78.1805 87.2195 78.8165L87.2231 78.824L87.121 79.1868C86.9295 79.868 86.6427 80.5474 86.2602 81.2635L86.2599 81.2644C85.2236 83.2002 83.981 84.5882 82.3325 85.275C80.6852 85.9615 78.8188 85.8694 76.7022 85.2493L76.7013 85.249L75.1019 84.7714L74.1215 84.4767L74.042 84.4525L73.967 84.4155L73.7952 84.3305C71.2089 83.0694 68.4185 81.7458 66.1421 80.7041C65.0034 80.183 63.9978 79.735 63.213 79.4012C62.3965 79.054 61.8947 78.864 61.7142 78.8185L61.7124 78.8178C60.5769 78.5297 59.4349 78.2329 58.3005 77.9341L54.9327 77.0401C53.5434 76.6697 52.1561 76.3003 50.7676 75.9371C50.595 75.9478 50.3781 75.9538 50.1322 75.9371L49.7728 75.8985C49.0493 75.7887 48.3948 75.6392 47.7819 75.4434L47.7792 75.4424C47.3678 75.3093 46.9948 75.1597 46.6972 75.04L46.6929 75.0374C46.3718 74.9061 46.1531 74.8206 46.0024 74.7815L45.9987 74.7802C44.6367 74.4217 43.2387 74.0687 41.8844 73.7295L41.8835 73.7292C39.5572 73.1439 37.14 72.5379 34.7469 71.8536L33.7224 71.5545C32.189 71.0978 30.719 70.5166 29.3169 69.9267L27.9371 69.3385C27.4655 69.1356 26.9996 68.9338 26.5326 68.7385L14.8556 64.8595C14.32 64.7938 13.786 64.6219 13.3378 64.4555C13.0898 64.3634 12.8473 64.2651 12.6319 64.1786C12.4101 64.0895 12.2207 64.0137 12.0526 63.9539C10.7723 63.4986 9.66916 62.8749 8.75186 61.9913C7.94831 61.2172 7.31904 60.2746 6.83124 59.141L6.6308 58.6437C4.92298 54.1164 4.64404 49.7248 5.86507 45.6269C6.16483 44.6217 7.2057 41.6869 8.27592 38.7894C9.34248 35.9019 10.4787 32.9417 10.9721 31.9104L10.9724 31.9095C11.9378 29.8931 13.2918 28.3623 15.0165 27.4159C16.7416 26.4694 18.7581 26.1512 20.972 26.4254C21.8761 26.5377 22.7661 26.6843 23.6372 26.8467C24.1405 25.7684 24.9921 24.8389 26.0943 24.1198C31.1763 20.8053 36.6843 20.2578 41.9385 22.6173L42.3446 22.8042C46.5042 24.7647 49.5984 27.6357 52.4811 30.301L52.4827 30.3026C52.9822 30.7663 53.4891 31.2315 54.0026 31.6972C54.275 31.5123 54.5221 31.3463 54.5741 31.3085C55.4335 30.6819 56.3087 30.0048 57.1665 29.3408L58.7111 28.154C60.2839 26.9606 61.9478 25.7662 63.7512 24.7505L63.7521 24.7508Z" fill="#9DBDA7" stroke="#9DBDA7" stroke-width="2"/>
<path d="M55.299 39.3658L55.4444 39.9916C55.5422 40.4158 55.6516 40.8301 55.7571 41.2329C55.9916 42.1252 56.2132 42.9688 56.3029 43.8196C56.4529 45.2339 56.4368 46.5128 56.2534 47.6198C56.1846 48.0349 56.1003 48.5107 56.0031 49.0342C56.1427 49.142 56.3149 49.2093 56.5039 49.2122C56.9769 49.2239 57.3693 48.8536 57.3789 48.3833C57.4303 46.0672 56.8875 42.494 56.2849 39.6462C56.1639 39.6112 56.0405 39.5774 55.9195 39.5424L55.2996 39.364L55.299 39.3658Z" fill="black"/>
<path d="M28.8587 33.6764C30.0724 33.8732 31.0191 33.9911 31.9466 34.1061C32.4482 34.1681 32.942 34.2293 33.4656 34.3031C32.9803 34.1044 32.4922 33.8967 31.997 33.6744C31.4356 33.4226 30.6679 32.9208 29.7052 32.177C29.6692 32.1702 29.6332 32.1634 29.5997 32.1555C28.9536 32.0281 28.3092 31.9013 27.6625 31.7757C27.2329 31.6932 26.7992 31.6052 26.3697 31.5167C26.5612 31.7514 26.7911 31.9917 27.0741 32.2308C27.7324 32.7901 28.3247 33.2677 28.8593 33.6746L28.8587 33.6764Z" fill="black"/>
<mask id="path-4-inside-1_843_4693" fill="white">
<path d="M83.4002 78.4401C83.6019 77.725 83.7926 76.99 83.9744 76.2798C84.1657 75.537 84.3642 74.7685 84.5775 74.0154C84.9974 72.5389 86.0363 69.3676 87.135 66.0108C88.3234 62.3848 89.5519 58.6347 89.9955 57.018C90.4343 55.4258 90.7092 53.5785 89.4345 51.961C87.8643 49.9694 85.9016 47.7741 83.2429 46.5977C80.6397 45.4472 75.1359 43.7949 72.8887 43.1383L70.5154 42.5011L63.6614 40.0636C64.8831 40.3575 66.0583 40.5547 67.1075 40.5264C73.5993 40.3501 79.6268 38.8585 85.0225 36.0905C86.1107 35.532 87.0952 34.8384 87.8684 34.0857C89.5353 32.4625 89.5872 30.0823 87.9888 28.426C87.0791 27.4822 85.9649 26.6926 84.8532 26.2029C78.0985 23.2246 71.3834 23.5684 64.8949 27.2204C62.6608 28.4773 60.6049 30.0685 58.6161 31.6074C57.7512 32.2773 56.8557 32.9705 55.9634 33.6206C55.8707 33.688 55.4496 33.9738 55.0437 34.251C54.4489 34.6557 54.0145 34.9508 53.706 35.1643C52.6506 34.255 51.6449 33.3253 50.6682 32.422C47.6374 29.6199 44.7743 26.9719 40.8067 25.1895C36.3213 23.1749 31.8049 23.6181 27.3781 26.5039C25.951 27.4356 25.5979 28.5023 25.5542 29.2335C25.5179 29.8187 25.6545 30.64 26.3691 31.5184C26.7986 31.6069 27.2305 31.6943 27.6619 31.7775C28.3068 31.9025 28.9529 32.0299 29.5991 32.1573C29.6351 32.164 29.6711 32.1708 29.7046 32.1787C29.2414 31.8213 28.7352 31.4085 28.1825 30.9389C27.5597 30.4103 27.2357 29.8435 27.2656 29.3443C27.3032 28.7214 27.8615 28.2314 28.3244 27.9304C31.9016 25.5975 35.5273 25.0664 39.1186 26.3435C39.4488 26.461 39.7794 26.5946 40.1091 26.7419C43.8204 28.409 46.5817 30.9627 49.5058 33.6666C50.4049 34.4982 51.3283 35.3524 52.2994 36.1976L52.294 36.1957C51.7397 36.1571 51.1239 36.2171 50.4689 36.3194C50.0282 36.3875 49.571 36.4738 49.104 36.5646C48.1362 36.7504 47.1449 36.9398 46.1729 36.9956C45.8444 37.0152 45.5175 37.0194 45.1963 37.0015C41.1647 36.7922 37.488 35.9483 33.4675 34.3037C32.9432 34.2317 32.4494 34.1705 31.9484 34.1068C31.021 33.9917 30.0743 33.8738 28.8605 33.677C29.8507 34.4286 30.6454 34.934 31.2994 35.2268C36.111 37.3816 40.3718 38.4532 45.1131 38.7022C46.5957 38.7798 48.1035 38.491 49.4355 38.2361C49.7762 38.1706 50.1103 38.1067 50.4291 38.0515C48.3779 40.8347 46.0401 44.1964 46.0007 47.5024C45.997 47.8764 46.2363 48.1984 46.572 48.3177C46.6581 48.3484 46.7511 48.3654 46.8474 48.3675C47.3199 48.375 47.7082 47.9992 47.7136 47.5294C47.7452 44.8309 49.7798 41.8331 51.643 39.2941C51.6679 39.5539 51.7048 39.7115 51.7785 39.8C51.9063 39.9578 52.2906 40.0825 52.9274 40.2929L52.9938 40.3165C53.3882 40.4467 53.7795 40.8588 53.8738 41.2416C53.9506 41.56 54.0441 41.8883 54.1348 42.2076C54.414 43.1961 54.7017 44.2177 54.6487 45.2366C54.5639 46.8905 53.5234 50.9364 52.5152 54.8513C51.7981 57.6352 51.1217 60.265 50.9557 61.4424C50.7195 63.1127 50.4163 64.7953 50.1237 66.4255C49.9719 67.2728 49.8184 68.1194 49.6763 68.9681C49.6252 69.2711 49.5159 69.6979 49.1578 69.9259C48.7919 70.159 48.3358 70.0771 48.0254 69.9948C43.9256 68.9142 39.8496 67.8801 34.9942 66.6613L34.9993 66.647L13.8669 59.7099C13.3791 59.5806 12.7152 58.8326 12.6335 58.6871C12.5144 58.4762 12.3814 58.2703 12.242 58.0541C11.9291 57.5695 11.6063 57.0673 11.4351 56.5026C10.2622 52.615 10.1896 49.6185 11.2026 46.7872C11.7797 45.1699 15.1483 36.0106 15.8098 34.5256C16.643 32.6602 18.2188 31.7934 20.2497 32.0861C21.8386 32.3139 23.4342 32.6365 24.9789 32.949C25.3922 33.0317 25.8049 33.1163 26.2171 33.1966C27.2447 33.3995 28.1041 33.5526 28.8629 33.6759C28.3265 33.2683 27.7366 32.7896 27.0777 32.2321C26.7947 31.993 26.5648 31.7526 26.3733 31.5179C26.074 31.4557 25.7765 31.394 25.4826 31.3336C23.8284 30.9882 22.1159 30.6302 20.4238 30.4198C17.5446 30.0623 15.5328 31.1714 14.2717 33.808C13.4276 35.5733 9.90332 45.1991 9.37131 46.9851C8.3828 50.3047 8.60578 53.7823 10.0511 57.6202C10.9341 59.9636 12.5214 60.7248 15.5264 61.4562L15.5569 61.467L27.744 65.5141L27.7583 65.5192C28.2788 65.7384 28.7998 65.9618 29.319 66.1846C31.0624 66.933 32.8631 67.7079 34.6879 68.2505C37.3343 69.035 40.0625 69.7202 42.7014 70.3837C44.0619 70.725 45.4704 71.0794 46.8516 71.4421C47.2525 71.5486 47.6345 71.7025 48.0038 71.8519C48.2848 71.9658 48.5502 72.0723 48.8244 72.1597C49.238 72.2928 49.6985 72.3963 50.2317 72.4776C50.3259 72.491 50.4447 72.4811 50.5726 72.4683C50.7649 72.4504 50.982 72.4313 51.2043 72.4883C52.7366 72.8867 54.2676 73.2946 55.7967 73.7019C58.0035 74.29 60.2846 74.8965 62.5357 75.4682C64.4907 75.9627 74.5824 80.8764 75.3183 81.2344L76.0854 81.4651C76.6262 81.6273 77.1429 81.783 77.6592 81.9344C80.4255 82.7456 81.4936 82.3005 82.8479 79.7713C83.1119 79.279 83.2949 78.8443 83.408 78.4409L83.4002 78.4401ZM56.0157 35.6565C56.5592 35.2878 56.8719 35.0738 56.9829 34.9948C57.8941 34.3313 58.7987 33.6293 59.6741 32.9531C61.6152 31.4515 63.621 29.8987 65.7463 28.7034C71.2187 25.6234 76.86 25.0925 82.5439 27.1139C83.0841 27.306 83.6257 27.5227 84.1682 27.7597C85.0785 28.1618 85.9982 28.816 86.7578 29.602C87.7048 30.5831 87.6689 31.8951 86.6703 32.8668C86.0148 33.5048 85.1717 34.0962 84.2342 34.5777C79.0688 37.2269 73.2898 38.6563 67.0553 38.8257C65.414 38.8703 63.2078 38.2122 61.0747 37.576C59.044 36.9703 56.9474 36.3451 55.146 36.2545C55.4476 36.0486 55.7676 35.8312 56.018 35.6613L56.0157 35.6565ZM81.315 78.8006L80.3589 80.261C80.143 80.5897 79.7411 80.7419 79.3577 80.6376L75.3201 79.541L62.65 73.9813C62.4175 73.8846 59.7678 73.0467 59.4365 72.955C57.3093 72.3591 56.5676 72.1595 55.54 71.8824C54.7833 71.6795 53.8792 71.4363 52.1538 70.9612C51.9734 70.9111 51.8024 70.8463 51.6343 70.7845C51.559 70.7577 51.4831 70.7267 51.4041 70.6986L51.1313 70.6016L51.1502 70.3153C51.155 70.2507 51.1554 70.1927 51.1552 70.1364C51.157 70.0005 51.1589 69.8587 51.2049 69.7125C52.4907 65.517 54.9766 54.5644 56.0032 49.0342C56.1004 48.5108 56.184 48.0367 56.2535 47.6198C56.4369 46.5128 56.453 45.2339 56.3029 43.8197C56.2133 42.9688 55.9917 42.1253 55.7571 41.2329C55.651 40.8319 55.5422 40.4159 55.4444 39.9917L55.299 39.3659L55.9189 39.5442C56.0399 39.5792 56.1633 39.613 56.2843 39.648C56.5065 39.711 56.7288 39.774 56.9528 39.8376C57.7088 40.0483 58.49 40.2678 59.2568 40.5105C61.9 41.344 62.923 41.6055 63.9119 41.8548C64.9134 42.1086 65.9496 42.3727 68.6531 43.2298C69.7378 43.5734 70.8257 43.9141 71.9123 44.2523C74.364 45.0158 76.899 45.8069 79.3739 46.653C82.5221 47.7264 85.2469 49.5866 87.464 52.1695C88.5333 53.4149 88.8612 54.6134 88.4927 55.9396C87.9935 57.7412 86.7144 61.6962 85.4779 65.5199C84.3562 68.9869 83.2968 72.2613 82.8404 73.8573L82.766 74.1179L82.7431 74.1197C82.6549 74.4075 82.5025 74.9555 82.3636 75.4541C81.8728 77.2205 81.5082 78.4959 81.3077 78.804L81.315 78.8006Z"/>
</mask>
<path d="M83.4002 78.4401C83.6019 77.725 83.7926 76.99 83.9744 76.2798C84.1657 75.537 84.3642 74.7685 84.5775 74.0154C84.9974 72.5389 86.0363 69.3676 87.135 66.0108C88.3234 62.3848 89.5519 58.6347 89.9955 57.018C90.4343 55.4258 90.7092 53.5785 89.4345 51.961C87.8643 49.9694 85.9016 47.7741 83.2429 46.5977C80.6397 45.4472 75.1359 43.7949 72.8887 43.1383L70.5154 42.5011L63.6614 40.0636C64.8831 40.3575 66.0583 40.5547 67.1075 40.5264C73.5993 40.3501 79.6268 38.8585 85.0225 36.0905C86.1107 35.532 87.0952 34.8384 87.8684 34.0857C89.5353 32.4625 89.5872 30.0823 87.9888 28.426C87.0791 27.4822 85.9649 26.6926 84.8532 26.2029C78.0985 23.2246 71.3834 23.5684 64.8949 27.2204C62.6608 28.4773 60.6049 30.0685 58.6161 31.6074C57.7512 32.2773 56.8557 32.9705 55.9634 33.6206C55.8707 33.688 55.4496 33.9738 55.0437 34.251C54.4489 34.6557 54.0145 34.9508 53.706 35.1643C52.6506 34.255 51.6449 33.3253 50.6682 32.422C47.6374 29.6199 44.7743 26.9719 40.8067 25.1895C36.3213 23.1749 31.8049 23.6181 27.3781 26.5039C25.951 27.4356 25.5979 28.5023 25.5542 29.2335C25.5179 29.8187 25.6545 30.64 26.3691 31.5184C26.7986 31.6069 27.2305 31.6943 27.6619 31.7775C28.3068 31.9025 28.9529 32.0299 29.5991 32.1573C29.6351 32.164 29.6711 32.1708 29.7046 32.1787C29.2414 31.8213 28.7352 31.4085 28.1825 30.9389C27.5597 30.4103 27.2357 29.8435 27.2656 29.3443C27.3032 28.7214 27.8615 28.2314 28.3244 27.9304C31.9016 25.5975 35.5273 25.0664 39.1186 26.3435C39.4488 26.461 39.7794 26.5946 40.1091 26.7419C43.8204 28.409 46.5817 30.9627 49.5058 33.6666C50.4049 34.4982 51.3283 35.3524 52.2994 36.1976L52.294 36.1957C51.7397 36.1571 51.1239 36.2171 50.4689 36.3194C50.0282 36.3875 49.571 36.4738 49.104 36.5646C48.1362 36.7504 47.1449 36.9398 46.1729 36.9956C45.8444 37.0152 45.5175 37.0194 45.1963 37.0015C41.1647 36.7922 37.488 35.9483 33.4675 34.3037C32.9432 34.2317 32.4494 34.1705 31.9484 34.1068C31.021 33.9917 30.0743 33.8738 28.8605 33.677C29.8507 34.4286 30.6454 34.934 31.2994 35.2268C36.111 37.3816 40.3718 38.4532 45.1131 38.7022C46.5957 38.7798 48.1035 38.491 49.4355 38.2361C49.7762 38.1706 50.1103 38.1067 50.4291 38.0515C48.3779 40.8347 46.0401 44.1964 46.0007 47.5024C45.997 47.8764 46.2363 48.1984 46.572 48.3177C46.6581 48.3484 46.7511 48.3654 46.8474 48.3675C47.3199 48.375 47.7082 47.9992 47.7136 47.5294C47.7452 44.8309 49.7798 41.8331 51.643 39.2941C51.6679 39.5539 51.7048 39.7115 51.7785 39.8C51.9063 39.9578 52.2906 40.0825 52.9274 40.2929L52.9938 40.3165C53.3882 40.4467 53.7795 40.8588 53.8738 41.2416C53.9506 41.56 54.0441 41.8883 54.1348 42.2076C54.414 43.1961 54.7017 44.2177 54.6487 45.2366C54.5639 46.8905 53.5234 50.9364 52.5152 54.8513C51.7981 57.6352 51.1217 60.265 50.9557 61.4424C50.7195 63.1127 50.4163 64.7953 50.1237 66.4255C49.9719 67.2728 49.8184 68.1194 49.6763 68.9681C49.6252 69.2711 49.5159 69.6979 49.1578 69.9259C48.7919 70.159 48.3358 70.0771 48.0254 69.9948C43.9256 68.9142 39.8496 67.8801 34.9942 66.6613L34.9993 66.647L13.8669 59.7099C13.3791 59.5806 12.7152 58.8326 12.6335 58.6871C12.5144 58.4762 12.3814 58.2703 12.242 58.0541C11.9291 57.5695 11.6063 57.0673 11.4351 56.5026C10.2622 52.615 10.1896 49.6185 11.2026 46.7872C11.7797 45.1699 15.1483 36.0106 15.8098 34.5256C16.643 32.6602 18.2188 31.7934 20.2497 32.0861C21.8386 32.3139 23.4342 32.6365 24.9789 32.949C25.3922 33.0317 25.8049 33.1163 26.2171 33.1966C27.2447 33.3995 28.1041 33.5526 28.8629 33.6759C28.3265 33.2683 27.7366 32.7896 27.0777 32.2321C26.7947 31.993 26.5648 31.7526 26.3733 31.5179C26.074 31.4557 25.7765 31.394 25.4826 31.3336C23.8284 30.9882 22.1159 30.6302 20.4238 30.4198C17.5446 30.0623 15.5328 31.1714 14.2717 33.808C13.4276 35.5733 9.90332 45.1991 9.37131 46.9851C8.3828 50.3047 8.60578 53.7823 10.0511 57.6202C10.9341 59.9636 12.5214 60.7248 15.5264 61.4562L15.5569 61.467L27.744 65.5141L27.7583 65.5192C28.2788 65.7384 28.7998 65.9618 29.319 66.1846C31.0624 66.933 32.8631 67.7079 34.6879 68.2505C37.3343 69.035 40.0625 69.7202 42.7014 70.3837C44.0619 70.725 45.4704 71.0794 46.8516 71.4421C47.2525 71.5486 47.6345 71.7025 48.0038 71.8519C48.2848 71.9658 48.5502 72.0723 48.8244 72.1597C49.238 72.2928 49.6985 72.3963 50.2317 72.4776C50.3259 72.491 50.4447 72.4811 50.5726 72.4683C50.7649 72.4504 50.982 72.4313 51.2043 72.4883C52.7366 72.8867 54.2676 73.2946 55.7967 73.7019C58.0035 74.29 60.2846 74.8965 62.5357 75.4682C64.4907 75.9627 74.5824 80.8764 75.3183 81.2344L76.0854 81.4651C76.6262 81.6273 77.1429 81.783 77.6592 81.9344C80.4255 82.7456 81.4936 82.3005 82.8479 79.7713C83.1119 79.279 83.2949 78.8443 83.408 78.4409L83.4002 78.4401ZM56.0157 35.6565C56.5592 35.2878 56.8719 35.0738 56.9829 34.9948C57.8941 34.3313 58.7987 33.6293 59.6741 32.9531C61.6152 31.4515 63.621 29.8987 65.7463 28.7034C71.2187 25.6234 76.86 25.0925 82.5439 27.1139C83.0841 27.306 83.6257 27.5227 84.1682 27.7597C85.0785 28.1618 85.9982 28.816 86.7578 29.602C87.7048 30.5831 87.6689 31.8951 86.6703 32.8668C86.0148 33.5048 85.1717 34.0962 84.2342 34.5777C79.0688 37.2269 73.2898 38.6563 67.0553 38.8257C65.414 38.8703 63.2078 38.2122 61.0747 37.576C59.044 36.9703 56.9474 36.3451 55.146 36.2545C55.4476 36.0486 55.7676 35.8312 56.018 35.6613L56.0157 35.6565ZM81.315 78.8006L80.3589 80.261C80.143 80.5897 79.7411 80.7419 79.3577 80.6376L75.3201 79.541L62.65 73.9813C62.4175 73.8846 59.7678 73.0467 59.4365 72.955C57.3093 72.3591 56.5676 72.1595 55.54 71.8824C54.7833 71.6795 53.8792 71.4363 52.1538 70.9612C51.9734 70.9111 51.8024 70.8463 51.6343 70.7845C51.559 70.7577 51.4831 70.7267 51.4041 70.6986L51.1313 70.6016L51.1502 70.3153C51.155 70.2507 51.1554 70.1927 51.1552 70.1364C51.157 70.0005 51.1589 69.8587 51.2049 69.7125C52.4907 65.517 54.9766 54.5644 56.0032 49.0342C56.1004 48.5108 56.184 48.0367 56.2535 47.6198C56.4369 46.5128 56.453 45.2339 56.3029 43.8197C56.2133 42.9688 55.9917 42.1253 55.7571 41.2329C55.651 40.8319 55.5422 40.4159 55.4444 39.9917L55.299 39.3659L55.9189 39.5442C56.0399 39.5792 56.1633 39.613 56.2843 39.648C56.5065 39.711 56.7288 39.774 56.9528 39.8376C57.7088 40.0483 58.49 40.2678 59.2568 40.5105C61.9 41.344 62.923 41.6055 63.9119 41.8548C64.9134 42.1086 65.9496 42.3727 68.6531 43.2298C69.7378 43.5734 70.8257 43.9141 71.9123 44.2523C74.364 45.0158 76.899 45.8069 79.3739 46.653C82.5221 47.7264 85.2469 49.5866 87.464 52.1695C88.5333 53.4149 88.8612 54.6134 88.4927 55.9396C87.9935 57.7412 86.7144 61.6962 85.4779 65.5199C84.3562 68.9869 83.2968 72.2613 82.8404 73.8573L82.766 74.1179L82.7431 74.1197C82.6549 74.4075 82.5025 74.9555 82.3636 75.4541C81.8728 77.2205 81.5082 78.4959 81.3077 78.804L81.315 78.8006Z" fill="black" stroke="black" stroke-width="2" mask="url(#path-4-inside-1_843_4693)"/>
</g>
<defs>
<clipPath id="clip0_843_4693">
<rect width="89.7695" height="64.0096" fill="white" transform="translate(21.4476) rotate(19.5767)"/>
</clipPath>
</defs>
</svg>
