<svg width="136" height="116" viewBox="0 0 136 116" fill="none" xmlns="http://www.w3.org/2000/svg">
<g clip-path="url(#clip0_851_4592)">
<path d="M81.5763 31.6744C90.5758 26.5513 100.346 26.0019 109.779 30.1015L109.78 30.1009C111.368 30.7895 113.627 31.693 115.14 33.2448C116.742 34.8882 117.552 37.1828 117.58 39.4308C117.607 41.68 116.852 43.9866 115.186 45.6245C114.132 46.6607 112.712 47.6925 111.281 48.5022L110.668 48.835C107.583 50.4378 104.121 51.312 100.723 52.0525C103.581 52.9488 106.536 53.9467 108.487 54.7978C112.847 56.7007 115.878 60.0549 118.195 62.9642L118.195 62.9654C121.172 66.7052 120.472 70.8456 119.777 73.4234C119.336 75.0609 118.339 78.2188 117.234 81.6681L116.109 85.1689L115.127 88.2218C114.167 91.2147 113.314 93.9137 112.936 95.2676L112.568 96.6411C112.448 97.1043 112.329 97.5755 112.206 98.0623L112.206 98.0632C112.001 98.8739 111.785 99.7195 111.555 100.567L111.558 100.574L111.458 100.937C111.224 101.788 110.869 102.641 110.391 103.547L110.391 103.548C109.092 106.004 107.55 107.729 105.525 108.585C103.502 109.44 101.183 109.349 98.4996 108.578L98.4978 108.577C97.8228 108.382 97.1492 108.182 96.4479 107.975L95.1899 107.605L95.1102 107.581L95.0351 107.544L94.8094 107.435L94.8097 107.435C91.4878 105.836 87.904 104.158 84.9796 102.837C83.5163 102.177 82.2227 101.608 81.2118 101.184C80.1692 100.747 79.5034 100.497 79.2465 100.434L79.2447 100.433C76.3337 99.7107 73.3903 98.9411 70.5515 98.2018L70.5506 98.2014C68.7522 97.7319 66.9564 97.2633 65.1582 96.803C64.8914 96.8223 64.5351 96.8349 64.128 96.7933L63.9038 96.7655C62.9887 96.6315 62.164 96.4487 61.3938 96.207L61.3901 96.2057C60.8729 96.0413 60.4041 95.8547 60.0213 95.7029L60.0158 95.701C59.609 95.5371 59.31 95.42 59.0945 95.3652L59.0908 95.3639C57.342 94.9132 55.5479 94.4698 53.8105 94.044L53.8096 94.0437C50.3982 93.2038 46.8415 92.3315 43.3526 91.3149L43.3517 91.3146C40.7468 90.5532 38.2827 89.5086 35.9581 88.5238L35.9572 88.5235C35.3481 88.2651 34.7447 88.0086 34.1398 87.7593L19.1181 82.854C18.4578 82.7799 17.7878 82.5703 17.2097 82.3591C16.8955 82.2442 16.5876 82.121 16.3102 82.0112C16.0264 81.8989 15.7782 81.8013 15.5563 81.7236C13.9422 81.1588 12.5629 80.3851 11.417 79.2924C10.2702 78.1989 9.39868 76.8264 8.74614 75.1216C6.54718 69.3811 6.17011 63.8206 7.6877 58.6309C8.06204 57.3519 9.37217 53.5943 10.7251 49.8731C12.0745 46.1617 13.506 42.3756 14.1243 41.066L14.3558 40.5966C15.5405 38.2828 17.149 36.524 19.1582 35.4081C21.3016 34.2179 23.8214 33.803 26.6114 34.1341L27.7476 34.2844C28.5853 34.4047 29.4129 34.5452 30.2287 34.6952C30.8263 33.2805 31.9072 32.0522 33.3458 31.1032C39.7609 26.8723 46.7128 26.1508 53.3649 29.0973L53.8818 29.332C58.4946 31.4774 62.0891 34.5059 65.3936 37.4974L66.8453 38.8216L66.8468 38.8232C67.5433 39.4631 68.2506 40.1073 68.97 40.7507C69.3833 40.4676 69.8071 40.1774 69.8889 40.1173C70.9895 39.3062 72.1095 38.431 73.2035 37.5752L73.2039 37.5743C75.7881 35.5553 78.5245 33.4129 81.5754 31.674L81.5763 31.6744Z" fill="#A8ADED" stroke="#A8ADED" stroke-width="2"/>
<path d="M70.7037 50.2083L70.8941 51.009C71.0221 51.5518 71.165 52.0818 71.3027 52.5971C71.6091 53.7387 71.8985 54.8179 72.0188 55.9072C72.2203 57.718 72.208 59.3564 71.9803 60.7757C71.8949 61.308 71.79 61.9181 71.6689 62.5893C71.8484 62.7265 72.0694 62.8116 72.3115 62.8141C72.9175 62.826 73.4179 62.3491 73.427 61.7465C73.4777 58.7791 72.7591 54.2053 71.9686 50.5611C71.8134 50.517 71.655 50.4745 71.4998 50.4304L70.7045 50.206L70.7037 50.2083Z" fill="black"/>
<path d="M36.7954 43.0925C38.3516 43.3367 39.5651 43.4815 40.754 43.6229C41.397 43.699 42.0299 43.7741 42.7012 43.8653C42.0782 43.6139 41.4515 43.351 40.8158 43.0695C40.0949 42.7506 39.1082 42.1127 37.8701 41.1662C37.824 41.1577 37.7778 41.1493 37.7347 41.1393C36.9062 40.9803 36.08 40.8221 35.2507 40.6654C34.6998 40.5625 34.1436 40.4526 33.5929 40.3421C33.8397 40.6415 34.1358 40.9478 34.4998 41.2523C35.3468 41.9645 36.1087 42.5725 36.7962 43.0902L36.7954 43.0925Z" fill="black"/>
<mask id="path-4-inside-1_851_4592" fill="white">
<path d="M106.958 100.081C107.211 99.1633 107.451 98.2204 107.679 97.3095C107.919 96.3566 108.169 95.3709 108.437 94.4047C108.965 92.5105 110.275 88.4411 111.661 84.1338C113.16 79.481 114.709 74.6689 115.267 72.595C115.818 70.5524 116.158 68.1842 114.515 66.1204C112.49 63.5794 109.962 60.7798 106.548 59.2902C103.206 57.8333 96.1445 55.7527 93.2615 54.9262L90.2171 54.1253L81.4208 51.0475C82.9878 51.4161 84.4946 51.661 85.8385 51.6179C94.1536 51.3497 101.865 49.3996 108.759 45.8184C110.15 45.0959 111.406 44.2009 112.392 43.2316C114.517 41.1413 114.568 38.0919 112.509 35.9805C111.338 34.7774 109.905 33.7731 108.478 33.1531C99.8054 29.3819 91.2054 29.8662 82.9172 34.5869C80.0634 36.2115 77.4401 38.2634 74.9025 40.2477C73.7988 41.1115 72.6562 42.0054 71.5173 42.8441C71.399 42.931 70.8614 43.2999 70.3433 43.6577C69.584 44.18 69.0294 44.5609 68.6357 44.8364C67.2777 43.6784 65.9832 42.494 64.7261 41.3432C60.8253 37.7734 57.1402 34.3998 52.046 32.1425C46.2868 29.591 40.504 30.1882 34.8519 33.9139C33.0298 35.1168 32.5845 36.4856 32.5333 37.4225C32.4906 38.1725 32.6709 39.2237 33.5921 40.3443C34.1429 40.4549 34.6967 40.564 35.2499 40.6677C36.0769 40.8236 36.9054 40.9826 37.734 41.1416C37.7801 41.1501 37.8263 41.1585 37.8694 41.1684C37.2736 40.7136 36.6225 40.188 35.9113 39.5901C35.1101 38.917 34.6913 38.193 34.7264 37.5533C34.7704 36.7551 35.4825 36.1238 36.0735 35.7351C40.6407 32.7233 45.2821 32.0192 49.891 33.6318C50.3148 33.7801 50.7391 33.9491 51.1624 34.1357C55.9277 36.2471 59.4816 39.5004 63.2453 42.9451C64.4025 44.0046 65.5909 45.0929 66.8405 46.1692L66.8336 46.1668C66.1231 46.121 65.3347 46.2019 64.4963 46.3372C63.9322 46.4273 63.347 46.5408 62.7494 46.6603C61.5109 46.9046 60.2422 47.1537 58.9973 47.2315C58.5767 47.2588 58.1579 47.2663 57.7463 47.2455C52.5803 47.0036 47.8648 45.9466 42.7036 43.8661C42.0315 43.7772 41.3985 43.7021 40.7564 43.6237C39.5675 43.4823 38.3539 43.3375 36.7977 43.0933C38.0712 44.0497 39.0925 44.6919 39.9323 45.0628C46.1102 47.7917 51.5754 49.1366 57.6509 49.4246C59.5506 49.5144 61.4803 49.1346 63.185 48.7994C63.621 48.7132 64.0485 48.6292 64.4566 48.5564C61.8471 52.1352 58.8743 56.457 58.8453 60.6923C58.8431 61.1715 59.1518 61.5823 59.5825 61.733C59.693 61.7717 59.8123 61.7929 59.9356 61.795C60.5409 61.8015 61.036 61.3176 61.0398 60.7157C61.0627 57.2586 63.6495 53.405 66.0198 50.1403C66.0533 50.4729 66.1017 50.6746 66.1966 50.7874C66.3614 50.9888 66.8545 51.146 67.6717 51.4114L67.7569 51.4412C68.263 51.6054 68.7669 52.1308 68.8902 52.6206C68.9907 53.0279 69.1126 53.4479 69.2309 53.8563C69.595 55.1208 69.9702 56.4277 69.9089 57.7332C69.8112 59.8525 68.5046 65.0422 67.2387 70.0639C66.3382 73.6349 65.4889 77.0082 65.2839 78.5176C64.9923 80.6589 64.6148 82.8164 64.2506 84.9066C64.0617 85.993 63.8706 87.0786 63.6941 88.1668C63.6306 88.5552 63.4933 89.1027 63.0361 89.3971C62.5689 89.6981 61.9841 89.5962 61.5859 89.4928C56.3268 88.1352 51.0985 86.8372 44.8707 85.3075L44.8771 85.2892L17.7603 76.5404C17.1346 76.3779 16.2792 75.4241 16.1735 75.2382C16.0196 74.9688 15.8479 74.7059 15.6679 74.4299C15.2639 73.8111 14.8471 73.1699 14.6242 72.4476C13.0962 67.4751 12.9837 63.6369 14.2628 60.0033C14.9917 57.9277 19.2471 46.1722 20.0848 44.2656C21.14 41.8704 23.1531 40.7498 25.7566 41.1115C27.7935 41.393 29.8397 41.7958 31.8205 42.186C32.3506 42.2893 32.8798 42.3949 33.4083 42.4951C34.7261 42.7483 35.828 42.9388 36.8008 43.0918C36.111 42.5733 35.3522 41.9638 34.5045 41.2539C34.1405 40.9495 33.8444 40.6431 33.5975 40.3437C33.2137 40.2658 32.8322 40.1888 32.4553 40.1134C30.3338 39.6817 28.1378 39.2342 25.9687 38.9757C22.2781 38.5366 19.7081 39.9705 18.1098 43.3564C17.04 45.6233 12.5881 57.9774 11.9182 60.2687C10.6736 64.5278 10.9819 68.9812 12.8584 73.8883C14.005 76.8845 16.0433 77.8493 19.8975 78.7666L19.9367 78.7803L35.5753 83.8852L35.5937 83.8916C36.2619 84.169 36.9308 84.4518 37.5973 84.7338C39.8356 85.6813 42.1475 86.6622 44.4886 87.3453C47.8838 88.3331 51.3833 89.193 54.7682 90.0257C56.5133 90.4541 58.3199 90.8989 60.0917 91.3545C60.6059 91.4882 61.0962 91.6829 61.5704 91.8719C61.931 92.0161 62.2717 92.1507 62.6235 92.2609C63.1543 92.4287 63.7449 92.5583 64.4284 92.6589C64.5493 92.6755 64.7014 92.662 64.8651 92.6448C65.1114 92.6206 65.3893 92.5947 65.6745 92.6662C67.6401 93.1666 69.6039 93.6792 71.5654 94.191C74.3963 94.93 77.3225 95.692 80.2099 96.4097C82.7176 97.0304 95.6775 103.259 96.6226 103.713L97.6068 104.003C98.3006 104.208 98.9636 104.404 99.626 104.594C103.175 105.616 104.54 105.038 106.259 101.789C106.594 101.157 106.825 100.599 106.968 100.082L106.958 100.081ZM71.5976 45.4518C72.2915 44.9759 72.6906 44.6997 72.8323 44.5979C73.9953 43.7419 75.1496 42.8368 76.2665 41.9647C78.7433 40.0285 81.3028 38.0261 84.0176 36.4811C91.0077 32.4998 98.2311 31.7828 105.526 34.3352C106.219 34.5778 106.914 34.8518 107.611 35.1519C108.779 35.661 109.962 36.4931 110.94 37.4951C112.16 38.7457 112.122 40.4267 110.849 41.6779C110.014 42.4995 108.938 43.2626 107.74 43.8856C101.14 47.3131 93.7461 49.1819 85.7605 49.4397C83.6582 49.5075 80.8277 48.6788 78.091 47.8778C75.4856 47.1151 72.7957 46.3279 70.4874 46.2235C70.8725 45.9578 71.2809 45.6772 71.6006 45.458L71.5976 45.4518ZM104.289 100.556L103.073 102.433C102.799 102.856 102.285 103.053 101.793 102.922L96.6139 101.544L80.3466 94.5042C80.0482 94.3818 76.6484 93.3257 76.2234 93.2104C73.4945 92.4609 72.5429 92.2101 71.2248 91.8618C70.254 91.6069 69.0942 91.3012 66.8808 90.7038C66.6495 90.6408 66.43 90.5589 66.2143 90.4808C66.1175 90.447 66.0201 90.4078 65.9187 90.3723L65.5686 90.2498L65.591 89.8829C65.5967 89.8002 65.5969 89.7258 65.5962 89.6537C65.5977 89.4797 65.5992 89.298 65.6571 89.1103C67.2769 83.7273 70.3899 69.6804 71.6689 62.5893C71.79 61.9181 71.8941 61.3103 71.9803 60.7758C72.208 59.3565 72.2203 57.718 72.0189 55.9073C71.8985 54.8179 71.6091 53.7387 71.3027 52.5971C71.1643 52.0841 71.0222 51.5518 70.8941 51.0091L70.7037 50.2084L71.499 50.4328C71.6543 50.4768 71.8126 50.5194 71.9678 50.5634C72.2529 50.6426 72.538 50.7218 72.8254 50.8019C73.7953 51.0668 74.7974 51.343 75.7814 51.6488C79.1728 52.6994 80.485 53.0276 81.7534 53.3405C83.038 53.6591 84.3672 53.9907 87.8361 55.071C89.2279 55.5041 90.6237 55.9334 92.018 56.3597C95.1637 57.3217 98.4162 58.3186 101.592 59.3863C105.632 60.7408 109.135 63.106 111.992 66.4004C113.37 67.9888 113.798 69.522 113.334 71.2233C112.707 73.5345 111.094 78.6094 109.535 83.5157C108.121 87.9644 106.785 92.1659 106.211 94.2135L106.117 94.5478L106.088 94.5503C105.976 94.9196 105.785 95.6225 105.61 96.2622C104.993 98.5283 104.534 100.164 104.279 100.56L104.289 100.556Z"/>
</mask>
<path d="M106.958 100.081C107.211 99.1633 107.451 98.2204 107.679 97.3095C107.919 96.3566 108.169 95.3709 108.437 94.4047C108.965 92.5105 110.275 88.4411 111.661 84.1338C113.16 79.481 114.709 74.6689 115.267 72.595C115.818 70.5524 116.158 68.1842 114.515 66.1204C112.49 63.5794 109.962 60.7798 106.548 59.2902C103.206 57.8333 96.1445 55.7527 93.2615 54.9262L90.2171 54.1253L81.4208 51.0475C82.9878 51.4161 84.4946 51.661 85.8385 51.6179C94.1536 51.3497 101.865 49.3996 108.759 45.8184C110.15 45.0959 111.406 44.2009 112.392 43.2316C114.517 41.1413 114.568 38.0919 112.509 35.9805C111.338 34.7774 109.905 33.7731 108.478 33.1531C99.8054 29.3819 91.2054 29.8662 82.9172 34.5869C80.0634 36.2115 77.4401 38.2634 74.9025 40.2477C73.7988 41.1115 72.6562 42.0054 71.5173 42.8441C71.399 42.931 70.8614 43.2999 70.3433 43.6577C69.584 44.18 69.0294 44.5609 68.6357 44.8364C67.2777 43.6784 65.9832 42.494 64.7261 41.3432C60.8253 37.7734 57.1402 34.3998 52.046 32.1425C46.2868 29.591 40.504 30.1882 34.8519 33.9139C33.0298 35.1168 32.5845 36.4856 32.5333 37.4225C32.4906 38.1725 32.6709 39.2237 33.5921 40.3443C34.1429 40.4549 34.6967 40.564 35.2499 40.6677C36.0769 40.8236 36.9054 40.9826 37.734 41.1416C37.7801 41.1501 37.8263 41.1585 37.8694 41.1684C37.2736 40.7136 36.6225 40.188 35.9113 39.5901C35.1101 38.917 34.6913 38.193 34.7264 37.5533C34.7704 36.7551 35.4825 36.1238 36.0735 35.7351C40.6407 32.7233 45.2821 32.0192 49.891 33.6318C50.3148 33.7801 50.7391 33.9491 51.1624 34.1357C55.9277 36.2471 59.4816 39.5004 63.2453 42.9451C64.4025 44.0046 65.5909 45.0929 66.8405 46.1692L66.8336 46.1668C66.1231 46.121 65.3347 46.2019 64.4963 46.3372C63.9322 46.4273 63.347 46.5408 62.7494 46.6603C61.5109 46.9046 60.2422 47.1537 58.9973 47.2315C58.5767 47.2588 58.1579 47.2663 57.7463 47.2455C52.5803 47.0036 47.8648 45.9466 42.7036 43.8661C42.0315 43.7772 41.3985 43.7021 40.7564 43.6237C39.5675 43.4823 38.3539 43.3375 36.7977 43.0933C38.0712 44.0497 39.0925 44.6919 39.9323 45.0628C46.1102 47.7917 51.5754 49.1366 57.6509 49.4246C59.5506 49.5144 61.4803 49.1346 63.185 48.7994C63.621 48.7132 64.0485 48.6292 64.4566 48.5564C61.8471 52.1352 58.8743 56.457 58.8453 60.6923C58.8431 61.1715 59.1518 61.5823 59.5825 61.733C59.693 61.7717 59.8123 61.7929 59.9356 61.795C60.5409 61.8015 61.036 61.3176 61.0398 60.7157C61.0627 57.2586 63.6495 53.405 66.0198 50.1403C66.0533 50.4729 66.1017 50.6746 66.1966 50.7874C66.3614 50.9888 66.8545 51.146 67.6717 51.4114L67.7569 51.4412C68.263 51.6054 68.7669 52.1308 68.8902 52.6206C68.9907 53.0279 69.1126 53.4479 69.2309 53.8563C69.595 55.1208 69.9702 56.4277 69.9089 57.7332C69.8112 59.8525 68.5046 65.0422 67.2387 70.0639C66.3382 73.6349 65.4889 77.0082 65.2839 78.5176C64.9923 80.6589 64.6148 82.8164 64.2506 84.9066C64.0617 85.993 63.8706 87.0786 63.6941 88.1668C63.6306 88.5552 63.4933 89.1027 63.0361 89.3971C62.5689 89.6981 61.9841 89.5962 61.5859 89.4928C56.3268 88.1352 51.0985 86.8372 44.8707 85.3075L44.8771 85.2892L17.7603 76.5404C17.1346 76.3779 16.2792 75.4241 16.1735 75.2382C16.0196 74.9688 15.8479 74.7059 15.6679 74.4299C15.2639 73.8111 14.8471 73.1699 14.6242 72.4476C13.0962 67.4751 12.9837 63.6369 14.2628 60.0033C14.9917 57.9277 19.2471 46.1722 20.0848 44.2656C21.14 41.8704 23.1531 40.7498 25.7566 41.1115C27.7935 41.393 29.8397 41.7958 31.8205 42.186C32.3506 42.2893 32.8798 42.3949 33.4083 42.4951C34.7261 42.7483 35.828 42.9388 36.8008 43.0918C36.111 42.5733 35.3522 41.9638 34.5045 41.2539C34.1405 40.9495 33.8444 40.6431 33.5975 40.3437C33.2137 40.2658 32.8322 40.1888 32.4553 40.1134C30.3338 39.6817 28.1378 39.2342 25.9687 38.9757C22.2781 38.5366 19.7081 39.9705 18.1098 43.3564C17.04 45.6233 12.5881 57.9774 11.9182 60.2687C10.6736 64.5278 10.9819 68.9812 12.8584 73.8883C14.005 76.8845 16.0433 77.8493 19.8975 78.7666L19.9367 78.7803L35.5753 83.8852L35.5937 83.8916C36.2619 84.169 36.9308 84.4518 37.5973 84.7338C39.8356 85.6813 42.1475 86.6622 44.4886 87.3453C47.8838 88.3331 51.3833 89.193 54.7682 90.0257C56.5133 90.4541 58.3199 90.8989 60.0917 91.3545C60.6059 91.4882 61.0962 91.6829 61.5704 91.8719C61.931 92.0161 62.2717 92.1507 62.6235 92.2609C63.1543 92.4287 63.7449 92.5583 64.4284 92.6589C64.5493 92.6755 64.7014 92.662 64.8651 92.6448C65.1114 92.6206 65.3893 92.5947 65.6745 92.6662C67.6401 93.1666 69.6039 93.6792 71.5654 94.191C74.3963 94.93 77.3225 95.692 80.2099 96.4097C82.7176 97.0304 95.6775 103.259 96.6226 103.713L97.6068 104.003C98.3006 104.208 98.9636 104.404 99.626 104.594C103.175 105.616 104.54 105.038 106.259 101.789C106.594 101.157 106.825 100.599 106.968 100.082L106.958 100.081ZM71.5976 45.4518C72.2915 44.9759 72.6906 44.6997 72.8323 44.5979C73.9953 43.7419 75.1496 42.8368 76.2665 41.9647C78.7433 40.0285 81.3028 38.0261 84.0176 36.4811C91.0077 32.4998 98.2311 31.7828 105.526 34.3352C106.219 34.5778 106.914 34.8518 107.611 35.1519C108.779 35.661 109.962 36.4931 110.94 37.4951C112.16 38.7457 112.122 40.4267 110.849 41.6779C110.014 42.4995 108.938 43.2626 107.74 43.8856C101.14 47.3131 93.7461 49.1819 85.7605 49.4397C83.6582 49.5075 80.8277 48.6788 78.091 47.8778C75.4856 47.1151 72.7957 46.3279 70.4874 46.2235C70.8725 45.9578 71.2809 45.6772 71.6006 45.458L71.5976 45.4518ZM104.289 100.556L103.073 102.433C102.799 102.856 102.285 103.053 101.793 102.922L96.6139 101.544L80.3466 94.5042C80.0482 94.3818 76.6484 93.3257 76.2234 93.2104C73.4945 92.4609 72.5429 92.2101 71.2248 91.8618C70.254 91.6069 69.0942 91.3012 66.8808 90.7038C66.6495 90.6408 66.43 90.5589 66.2143 90.4808C66.1175 90.447 66.0201 90.4078 65.9187 90.3723L65.5686 90.2498L65.591 89.8829C65.5967 89.8002 65.5969 89.7258 65.5962 89.6537C65.5977 89.4797 65.5992 89.298 65.6571 89.1103C67.2769 83.7273 70.3899 69.6804 71.6689 62.5893C71.79 61.9181 71.8941 61.3103 71.9803 60.7758C72.208 59.3565 72.2203 57.718 72.0189 55.9073C71.8985 54.8179 71.6091 53.7387 71.3027 52.5971C71.1643 52.0841 71.0222 51.5518 70.8941 51.0091L70.7037 50.2084L71.499 50.4328C71.6543 50.4768 71.8126 50.5194 71.9678 50.5634C72.2529 50.6426 72.538 50.7218 72.8254 50.8019C73.7953 51.0668 74.7974 51.343 75.7814 51.6488C79.1728 52.6994 80.485 53.0276 81.7534 53.3405C83.038 53.6591 84.3672 53.9907 87.8361 55.071C89.2279 55.5041 90.6237 55.9334 92.018 56.3597C95.1637 57.3217 98.4162 58.3186 101.592 59.3863C105.632 60.7408 109.135 63.106 111.992 66.4004C113.37 67.9888 113.798 69.522 113.334 71.2233C112.707 73.5345 111.094 78.6094 109.535 83.5157C108.121 87.9644 106.785 92.1659 106.211 94.2135L106.117 94.5478L106.088 94.5503C105.976 94.9196 105.785 95.6225 105.61 96.2622C104.993 98.5283 104.534 100.164 104.279 100.56L104.289 100.556Z" fill="black" stroke="black" stroke-width="2" mask="url(#path-4-inside-1_851_4592)"/>
</g>
<defs>
<clipPath id="clip0_851_4592">
<rect width="115" height="82" fill="white" transform="translate(27.0816) rotate(19.2847)"/>
</clipPath>
</defs>
</svg>
