<svg width="119" height="90" viewBox="0 0 119 90" fill="none" xmlns="http://www.w3.org/2000/svg">
<g clip-path="url(#clip0_843_5065)">
<path d="M76.7207 7.05298C70.5526 1.58769 63.0333 -0.523922 54.9473 0.961182L54.9482 0.962158C53.3951 1.24659 51.7706 1.9055 50.3643 2.81274C47.3144 4.78078 46.491 8.62392 48.4356 11.7219H48.4365C49.1706 12.8895 50.1647 14.0291 51.3154 15.0227C56.4946 19.503 62.684 22.7376 69.7051 24.6379C71.614 25.1541 73.5575 25.6061 75.4678 26.0334L77.3643 26.4543C77.3925 26.4605 77.4211 26.4667 77.4492 26.4729C77.1491 27.7122 76.9735 28.9498 76.8037 30.1409C76.7475 30.5338 76.6933 30.913 76.6367 31.2834C75.6861 31.3661 74.7286 31.4388 73.7871 31.5071L73.7852 31.5081C73.6661 31.5172 73.5462 31.5257 73.4258 31.5344C73.3458 31.5402 73.2653 31.545 73.1846 31.551C70.7585 30.532 68.4902 31.2293 67.0166 31.8333L67.0156 31.8342C63.427 33.3068 58.8668 35.5309 55.2539 39.6946C53.8872 39.6319 52.5082 39.5619 51.166 39.4924L47.6006 39.3127C46.4001 39.2555 45.1921 39.2033 43.9912 39.1614L42.5098 39.1194C39.1415 39.0529 35.5844 39.2044 32.0068 40.1457C29.7101 36.1403 26.8217 32.7223 23.4033 29.9778C20.0678 27.3 16.6772 25.7796 13.0488 25.3665C10.845 25.1141 8.71805 25.5004 6.73341 26.509C2.96097 28.4268 1.30019 32.1796 2.42579 36.2532C3.241 39.2043 5.04291 41.7736 7.75098 43.8899C9.76138 45.4616 12.1015 46.7199 14.8818 47.7317L15.4443 47.9309C15.5702 47.9742 15.6964 48.0175 15.8223 48.0608C13.4582 48.9983 11.2184 50.0568 9.07618 51.2493L8.00098 51.8635L7.42579 52.2141C4.60725 53.9952 2.65926 56.2127 1.51173 58.9797C0.986723 60.2449 0.662398 61.4723 0.550789 62.6272V62.6282C0.346991 64.7684 0.771829 66.6971 1.78419 68.2864C2.79621 69.8751 4.37303 71.0907 6.41602 71.842C9.37514 72.9305 12.9491 73.0282 16.4785 72.1438C20.0607 71.2487 23.1626 69.4437 25.1992 67.0364C26.9253 64.9938 28.5512 62.8537 30.1172 60.7981H30.1182C30.4163 60.4063 30.7176 60.0109 31.0205 59.6145C32.5342 60.6695 34.1004 61.4229 35.5518 62.0256L36.2197 62.2961C40.7941 64.1093 45.6826 65.4852 50.749 66.3899C52.381 66.6816 53.9952 67.0704 55.7773 67.5159C56.9523 68.7685 58.0982 70.0285 59.4141 71.4895C59.3146 73.0242 59.2047 74.5594 59.0908 76.1311C58.9913 76.0622 58.8938 75.993 58.8018 75.9192L58.8008 75.9182L58.4814 75.6633L58.4805 75.6623C56.9859 74.4725 56.2161 73.7937 55.9277 72.7971V72.7961C55.6413 71.8099 54.9305 71.0376 54.1104 70.5276C53.2916 70.0185 52.3169 69.7404 51.4365 69.7815C50.3211 69.835 49.3086 70.3256 48.5986 71.1711L48.4561 71.3518C47.7697 72.2715 47.4942 73.4565 47.6494 74.6975C47.9203 76.8658 48.9311 78.7659 50.6963 80.4993C53.2279 82.9848 56.287 84.8475 59.7822 86.0334C59.7879 86.0364 59.7951 86.0423 59.8057 86.0481C59.8376 86.0658 59.8786 86.0903 59.9258 86.1194C60.0201 86.1774 60.1256 86.2453 60.2139 86.303V86.3039C60.4168 86.4362 60.6622 86.596 60.9375 86.7502L60.9385 86.7493C60.9635 86.7634 60.9879 86.7786 61.0186 86.7971L61.0205 86.7991C61.2869 86.9571 61.7585 87.2394 62.4004 87.3909L62.6865 87.4475C67.7416 88.2399 72.841 88.3996 77.2002 88.4895C77.6835 88.4998 78.1704 88.5032 78.6543 88.5032H79.4629L79.458 88.4914C85.6439 88.4212 91.9188 87.5456 98.5313 85.8264L99.916 85.4553C101.026 85.1503 102.19 84.7103 103.378 84.1526C104.578 83.5892 105.489 82.6401 105.911 81.4622V81.4612C106.3 80.3775 106.242 79.2043 105.747 78.1594C105.31 77.2356 104.536 76.4403 103.49 76.0364C102.438 75.6301 101.156 75.637 99.7383 76.2395C98.529 76.7536 95.9018 77.4867 93.5059 78.0315C93.7224 76.9656 93.9386 75.9227 94.1709 74.887C95.2212 74.3299 96.3011 73.7761 97.3525 73.2375C99.1978 72.2923 101.12 71.3088 102.99 70.2483C106.068 68.4998 108.524 66.0069 110.29 62.8479C113.749 56.6577 113.464 50.3111 109.457 44.5588C106.318 40.0502 101.827 36.5829 95.7715 33.9465C94.8501 33.546 93.9235 33.2213 93.0225 32.925C93.1783 31.1493 93.105 29.3675 92.8037 27.5911C93.0543 27.628 93.3055 27.6633 93.5576 27.6965L93.5566 27.6975C99.8239 28.5365 105.053 28.4969 109.996 27.5569C111.479 27.2754 112.98 26.7867 114.378 26.1331L114.97 25.843C116.735 24.9402 117.948 23.548 118.353 21.8752L118.423 21.5374C118.736 19.7315 118.075 17.8991 116.651 16.3831C112.304 11.7534 106.896 9.86873 101.045 10.9866L99.1777 11.3567C94.7877 12.2571 89.5471 13.5821 84.4639 15.8557C83.9634 15.2449 83.464 14.6224 82.9746 14.01C81.2517 11.8507 79.4458 9.58648 77.3135 7.59204L76.7207 7.05298Z" fill="#E8B870" stroke="#E8B870"/>
<path d="M3.58469 63.6181C3.67438 62.6782 3.96182 61.728 4.32671 60.8493C5.36838 58.338 7.23566 56.552 9.54325 55.1973C14.1034 52.5204 18.9795 50.62 24.0758 49.2571C24.4101 49.1672 24.7403 49.0568 25.0726 48.9546C24.7179 48.6011 24.3795 48.454 24.0329 48.3355C21.5011 47.4691 18.9673 46.615 16.4375 45.7424C13.9892 44.8985 11.6776 43.7828 9.62682 42.1808C7.60259 40.5992 6.05945 38.6538 5.36432 36.1384C4.62434 33.4575 5.64563 31.1893 8.11426 29.9346C9.55752 29.2011 11.0945 28.9191 12.705 29.103C16.0563 29.4851 18.9081 30.985 21.4991 33.0631C25.1174 35.9668 27.9183 39.5346 30.0628 43.6377C30.2687 44.0321 30.3401 44.5756 31.0739 44.3202C35.2345 42.8755 39.5541 42.7611 43.8859 42.9164C47.9629 43.0615 52.0379 43.3189 56.1129 43.4967C56.3942 43.509 56.7856 43.3435 56.9568 43.1269C59.9045 39.3854 63.8755 37.1295 68.1727 35.3681C69.5528 34.802 70.9981 34.4669 72.4393 35.2884C72.5738 35.364 72.7716 35.3537 72.9387 35.3415C74.8182 35.2005 76.6998 35.0779 78.5731 34.8756C78.8606 34.8449 79.2825 34.4669 79.3417 34.187C80.0103 31.0442 79.9777 27.7482 81.5147 24.963C77.7639 24.0987 74.0986 23.3753 70.5007 22.4006C64.1283 20.676 58.3288 17.7662 53.3059 13.4219C52.4354 12.6699 51.6261 11.7769 51.0146 10.8043C49.9546 9.11439 50.3419 7.16703 52.0114 6.09015C53.0511 5.41992 54.2823 4.89885 55.4952 4.67612C63.0397 3.29069 69.7056 5.36883 75.2341 10.5366C78.0717 13.1889 80.3487 16.4441 82.8744 19.4315C83.1129 19.7135 83.3147 20.0303 83.5043 20.2939C83.6633 20.2775 83.7407 20.2898 83.7958 20.2632C89.4282 17.4188 95.4764 15.874 101.616 14.7011C106.678 13.7345 110.965 15.498 114.432 19.1904C116.063 20.9273 115.705 22.7521 113.582 23.8371C112.288 24.4992 110.855 24.9978 109.428 25.2695C104.289 26.2463 99.1192 26.0747 93.9598 25.384C92.174 25.1449 90.4005 24.8037 88.5394 24.4971C90.0683 28.1916 90.4719 31.9086 89.6178 35.7338C91.271 36.3039 92.9629 36.7678 94.5571 37.4605C99.478 39.602 103.842 42.5465 106.957 47.0195C110.325 51.8563 110.519 56.9014 107.63 62.0692C106.148 64.7236 104.093 66.8242 101.486 68.3057C98.5668 69.9629 95.5315 71.4178 92.5654 72.9973C92.1088 73.2405 91.4993 73.6185 91.4015 74.0374C90.7573 76.8001 90.2334 79.5894 89.6422 82.5074C92.0803 82.3725 98.6443 80.7378 100.931 79.7651C101.932 79.3401 102.666 79.4872 102.994 80.1799C103.319 80.8665 103.005 81.6716 102.087 82.1007C101.129 82.5503 100.128 82.9426 99.109 83.2246C91.962 85.1944 84.707 86.2979 77.2624 86.1467C72.5392 86.0506 67.8302 85.8728 63.158 85.1413C62.9032 85.1004 62.6646 84.9308 62.4302 84.8001C61.8737 84.4874 61.358 84.0563 60.7627 83.856C57.7559 82.8343 55.0998 81.2629 52.8289 79.0315C51.6914 77.9138 50.8739 76.6366 50.6721 75.0326C50.5845 74.3215 50.8209 73.5838 51.5793 73.547C52.0563 73.5245 52.8859 73.9659 53.0001 74.3623C53.6259 76.5222 55.2955 77.736 56.8977 79.0193C58.3573 80.1881 60.1022 80.75 61.8166 81.3957C62.0674 77.9342 62.314 74.6505 62.5199 71.3647C62.5342 71.1256 62.2855 70.8354 62.0979 70.627C60.7281 69.1047 59.3541 67.5864 57.9537 66.0927C57.6642 65.7841 57.2911 65.4613 56.9018 65.3632C55.0406 64.8952 53.1713 64.4334 51.2837 64.0963C46.5054 63.2442 41.8535 61.9589 37.3423 60.1709C34.8513 59.1839 32.4764 57.9824 30.5541 55.9186C30.2381 56.3354 30.016 56.6358 29.7876 56.928C27.4902 59.8848 25.2866 62.9213 22.873 65.778C19.5177 69.7504 12.3482 71.4832 7.46601 69.6891C4.67326 68.6633 3.30337 66.5974 3.58469 63.6345V63.6181ZM80.6443 20.8354C78.2286 17.9828 76.0413 14.8788 73.324 12.3511C68.5518 7.90878 62.7625 6.1208 56.2372 7.1895C55.4076 7.32641 54.5881 7.65336 53.8237 8.01708C53.0633 8.37672 52.9084 9.05718 53.4363 9.72741C53.9419 10.3711 54.5025 10.9882 55.1242 11.5174C59.2563 15.0341 63.9224 17.6395 69.1022 19.1843C72.7063 20.2591 76.4164 20.9784 80.0816 21.8468C80.4078 21.9245 80.7523 21.9265 81.3761 21.996C81.0357 21.4504 80.8767 21.1112 80.6443 20.8354ZM84.0506 25.8131C82.7806 27.9873 82.6257 30.4455 82.2628 32.8506C82.167 33.4861 82.0977 34.1277 82.0141 34.7816C82.2241 34.8511 82.3464 34.9185 82.4748 34.9287C83.9691 35.0452 85.4653 35.1515 87.0615 35.2679C87.6261 31.9923 87.6547 28.8108 86.1217 25.8049C85.3756 24.3439 84.8844 24.3888 84.0506 25.8131ZM95.6069 22.9482C100.226 23.3467 104.841 23.5347 109.416 22.5784C110.523 22.3475 111.577 21.8632 112.889 21.4157C112.347 20.8129 112.076 20.4185 111.719 20.1263C108.918 17.8356 105.797 16.5381 102.116 17.2574C96.9645 18.2627 91.9111 19.6257 87.039 21.6119C86.7639 21.7242 86.507 21.8836 86.191 22.0471C86.3419 22.2065 86.3704 22.2555 86.3867 22.2514C89.5342 21.4872 92.5369 22.6826 95.6069 22.9482ZM65.6286 82.6708C66.9129 82.8629 68.191 83.243 69.4753 83.2552C74.7122 83.3084 79.9512 83.2798 85.1901 83.2164C87.0044 83.1939 87.0024 83.1061 87.2837 81.359C87.6363 79.1684 87.989 76.9779 88.3722 74.5892C84.3808 75.8888 80.4975 76.5386 76.4674 76.0645C72.5106 75.6006 68.8393 74.2377 65.1007 72.5192C64.9824 73.5654 64.8336 74.4727 64.7888 75.384C64.6909 77.3723 64.6787 79.3666 64.5686 81.3528C64.5238 82.1804 64.8581 82.5523 65.6286 82.6688V82.6708ZM56.8549 56.0555C57.2667 58.2174 58.1881 60.2874 58.9321 62.3798C59.0708 62.7721 59.456 63.0787 59.7312 63.424C59.9208 63.6631 60.2327 63.8756 60.2837 64.1392C60.6893 66.1744 62.1428 67.4475 63.7002 68.4651C70.5068 72.9033 77.825 74.9897 85.8832 72.5621C91.1813 70.9662 96.1817 68.6551 100.817 65.6002C103.651 63.7326 105.524 61.1436 106.546 57.9129C107.247 55.6938 107.161 53.5278 106.301 51.3618C105.3 48.8402 103.683 46.7989 101.68 45.0129C95.7435 39.7225 88.6943 37.4912 80.8807 37.5198C78.0798 37.53 75.2769 37.8467 72.4841 38.1144C71.3589 38.2227 70.3335 38.615 69.5589 39.6183C68.7129 40.7136 67.7201 40.3499 67.0617 38.66C64.2323 40.2375 61.466 41.7516 59.4275 44.2671C56.5981 47.7593 56.0477 51.8195 56.8549 56.0575V56.0555ZM30.9842 48.4908C31.2329 48.9424 31.235 49.6535 31.0862 50.1725C30.8986 50.8264 30.8823 51.2208 31.5 51.6519C31.8241 51.8767 31.9485 52.4121 32.1258 52.8228C32.3317 53.301 32.4336 53.8363 32.7027 54.2695C32.931 54.6353 33.3102 54.9214 33.6649 55.187C36.4902 57.304 39.8008 58.3053 42.9156 59.3311C42.7485 57.4675 42.5303 55.6775 42.4508 53.8813C42.404 52.8351 43.0094 52.2016 43.7799 52.2793C44.738 52.3753 45.0357 53.0803 44.9908 53.8976C44.9113 55.3301 44.7727 56.7625 44.5851 58.1847C44.5219 58.6567 44.2325 59.1002 43.9981 59.6723C45.6431 60.1035 47.3473 60.551 49.0821 61.0046C49.0107 59.4925 48.9027 58.1071 48.8905 56.7196C48.8762 55.1625 49.4266 54.3595 50.346 54.4187C51.2021 54.4739 51.5507 55.1564 51.5364 56.6869C51.5242 58.1908 51.5344 59.6968 51.5344 61.3765C52.7901 61.6442 54.2354 61.9507 55.856 62.296C53.7441 56.9301 53.1876 51.6519 55.1222 46.1593C54.635 46.098 54.2415 46.0203 53.8461 46.006C49.2227 45.8385 44.5994 45.5442 39.9781 45.5749C37.5727 45.5912 35.1652 46.1613 32.7679 46.5393C32.2461 46.6211 31.7161 46.8806 31.2717 47.1789C30.8314 47.4732 30.6336 47.8533 30.9842 48.4867V48.4908ZM28.0386 45.5524C25.6148 40.5706 22.2594 36.3673 17.4628 33.5126C16.0807 32.6892 14.4458 32.2294 12.8742 31.8044C11.5145 31.4365 10.1446 31.7308 8.9317 32.5073C7.94914 33.1346 7.57812 34.0215 7.83905 35.1637C8.28956 37.1254 9.42094 38.6804 10.9845 39.8595C12.1811 40.7626 13.449 41.6699 14.8291 42.2053C19.1691 43.887 23.5763 45.393 28.2995 47.0911C28.1935 46.4188 28.2261 45.9325 28.0406 45.5503L28.0386 45.5524ZM8.29771 67.1573C8.74415 67.3249 9.21301 67.4638 9.68391 67.5353C10.3933 67.6436 11.1149 67.6825 11.8304 67.7499C16.1276 67.6089 19.6807 66.1376 22.235 62.4656C24.1552 59.705 26.2977 57.1017 28.3281 54.4167C28.8968 53.6647 28.8581 51.9421 28.2445 51.3005C28.1038 51.1534 27.743 51.1207 27.5127 51.1717C21.3992 52.4857 15.5752 54.5658 10.2445 57.8864C8.15299 59.1901 6.70769 61.0312 6.23679 63.5098C5.89228 65.3203 6.58945 66.5116 8.29976 67.1553L8.29771 67.1573Z" fill="black" stroke="#E8B870" stroke-miterlimit="10"/>
<path d="M90.7735 61.3764C92.3799 61.3049 94.0046 61.3601 95.5885 61.1333C97.9898 60.79 98.9826 59.4025 98.3731 57.0505C97.6168 54.1305 96.6709 51.2534 95.6456 48.4151C95.4213 47.7939 94.5162 47.4179 93.923 46.9316C93.8986 46.9132 93.8578 46.9153 93.8231 46.9091C88.1887 45.9916 82.5543 45.0803 76.9219 44.1546C75.603 43.938 74.2922 43.6683 72.9753 43.4353C70.9389 43.0737 69.2225 43.6867 67.926 45.2805C67.2838 46.0713 66.6111 46.9357 66.2992 47.8818C65.5185 50.2521 64.7663 52.6572 64.3178 55.1073C63.849 57.6656 64.8336 58.9673 67.4143 59.3882C70.3538 59.8663 73.3239 60.2219 76.294 60.4385C81.1131 60.79 85.9443 60.982 90.7715 61.2416C90.7715 61.2865 90.7715 61.3315 90.7735 61.3764ZM91.9029 58.5954C91.9029 58.6362 91.9008 58.675 91.8988 58.7159C85.8118 58.3318 79.7208 57.9782 73.6379 57.543C71.6931 57.404 69.7647 57.0608 67.8302 56.7931C67.1758 56.7032 66.7314 56.3844 66.8435 55.6263C67.2533 52.8943 67.8607 50.2235 69.2857 47.8103C70.1541 46.3411 71.3629 45.7342 73.0915 46.1061C75.7375 46.6762 78.3978 47.1911 81.0621 47.6713C84.7375 48.3334 88.4272 48.9239 92.1026 49.5942C92.6204 49.6882 93.391 49.9599 93.5255 50.3339C94.3674 52.6899 95.0748 55.095 95.8005 57.4919C96.0064 58.1724 95.6741 58.5667 94.9851 58.5851C93.9597 58.6137 92.9323 58.5933 91.9049 58.5933L91.9029 58.5954Z" fill="black" stroke="#E8B870" stroke-miterlimit="10"/>
</g>
<defs>
<clipPath id="clip0_843_5065">
<rect width="119" height="90" fill="white" transform="matrix(-1 0 0 1 119 0)"/>
</clipPath>
</defs>
</svg>
