<svg width="142" height="160" viewBox="0 0 142 160" fill="none" xmlns="http://www.w3.org/2000/svg">
<g clip-path="url(#clip0_851_4568)">
<path d="M51.087 67.0317C47.1396 56.3882 49.6618 48.0084 59.0937 41.8819C58.4646 40.7881 57.8047 39.781 57.2828 38.7058C55.4445 34.9241 56.3226 31.6331 59.7952 29.2421C61.8944 27.796 64.2177 26.9306 66.7851 26.8084C69.4457 26.6814 71.3328 27.8846 72.5259 30.2232C73.5168 32.1629 73.7309 34.246 73.6075 36.3809C73.5809 36.8455 73.5631 37.3075 73.544 37.6992C77.6694 38.7649 81.7216 39.5407 85.9135 39.7031C87.6753 39.7715 88.7211 39.7045 89.5649 37.916C90.509 35.9179 92.3992 34.5761 94.5236 34.0334C96.8743 33.4323 99.3351 32.9906 101.75 32.9803C105.204 32.9679 107.587 35.1357 108.283 38.5175C109.223 43.0811 108.533 47.2824 105.08 50.6852C104.117 51.6341 103.989 52.4287 104.554 53.7033C106.116 57.2315 106.259 60.8991 104.853 64.5194C103.89 67.0005 102.743 69.4085 101.684 71.8532C101.589 72.0723 101.534 72.3073 101.395 72.7355C102.025 72.4881 102.482 72.2678 102.964 72.1282C105.601 71.3567 108.215 70.4511 110.899 69.896C113.097 69.4417 114.6 70.4343 115.607 72.4652C116.363 73.99 116.601 75.6159 116.179 77.2427C114.971 81.9001 112.224 85.1366 107.36 86.1757C105.684 86.5331 103.943 86.5924 102.229 86.7817C101.771 86.8321 101.31 86.8655 100.976 86.8972C101.308 89.6071 101.717 92.1862 101.926 94.7838C102.537 102.367 99.5086 108.768 94.9873 114.502C93.5737 116.294 91.4048 117.557 89.4256 118.824C85.742 121.184 88.7351 118.468 89.7323 117.961C90.694 117.471 91.8851 118.96 92.642 120.657C93.844 123.359 95.201 126.081 95.8047 128.941C97.0145 134.67 94.7091 139.321 90.2705 142.896C87.9257 144.784 86.277 144.591 84.3578 142.265C79.9344 136.906 75.63 131.446 73.5119 124.67C73.2682 123.892 72.8101 123.783 72.0952 123.686C68.6812 123.227 65.2593 122.793 61.8778 122.151C57.0932 121.24 52.8411 119.061 48.9258 116.216C48.2543 115.727 47.8743 115.744 47.1672 116.238C40.6018 120.812 33.4217 123.533 25.2712 123.179C24.4952 123.146 23.7161 123.122 22.9523 123C19.8955 122.512 17.2607 121.354 16.2331 118.131C15.1337 114.68 15.4978 111.362 18.2063 108.818C19.6707 107.443 21.5348 106.273 23.4288 105.618C27.4922 104.214 31.6929 103.202 35.8387 102.035C36.2034 101.932 36.5812 101.864 37.0463 101.759C36.2526 93.8076 39.9633 87.2649 43.5908 80.6468C39.2965 80.9002 35.3544 80.117 31.7143 77.9531C28.5648 76.08 27.1845 73.3715 27.9619 69.7924C28.369 67.9214 28.9999 66.0666 29.7825 64.3173C30.7089 62.2491 32.501 61.268 34.7577 61.7387C37.3238 62.2774 39.8748 62.9457 42.3664 63.7641C45.2255 64.7043 48.012 65.8683 51.0862 67.0342L51.087 67.0317Z" fill="#A8ADED" stroke="#A8ADED" stroke-width="12" stroke-miterlimit="10"/>
<path d="M92.6352 120.659C91.8791 118.96 90.8425 118.508 89.8839 118.996C88.8867 119.504 89.0127 120.537 89.7727 122.307C90.9012 124.945 92.235 127.614 92.6702 130.395C93.2885 134.349 91.4524 137.652 88.385 140.215C87.8492 140.662 87.3361 140.749 86.832 140.126C83.0362 135.424 79.2961 130.693 77.087 124.978C76.9244 124.557 76.8538 124.102 76.7371 123.647C77.0376 123.535 77.194 123.451 77.3575 123.421C81.6589 122.613 85.7416 121.183 89.4245 118.826C91.4013 117.558 93.5726 116.296 94.9863 114.504C99.5076 108.77 102.536 102.369 101.925 94.785C101.715 92.1898 101.307 89.6082 100.976 86.8982C101.308 86.8689 101.769 86.8355 102.228 86.7827C103.939 86.5925 105.682 86.5364 107.359 86.1767C112.223 85.1374 114.974 81.8993 116.178 77.2433C116.601 75.6141 116.363 73.9882 115.606 72.4658C114.601 70.438 113.096 69.4423 110.898 69.8966C108.212 70.4509 105.601 71.3573 102.963 72.1289C102.484 72.2692 102.027 72.4895 101.397 72.737C101.536 72.3088 101.59 72.0738 101.686 71.8546C102.745 69.4099 103.892 67.0018 104.855 64.5206C106.26 60.9027 106.118 57.2327 104.556 53.7044C103.991 52.4297 104.122 51.6359 105.082 50.6862C108.533 47.2801 109.224 43.0786 108.285 38.5183C107.589 35.1363 105.206 32.9685 101.752 32.981C99.3378 32.9888 96.8762 33.433 94.5255 34.0341C92.4011 34.5768 90.5109 35.9187 89.5668 37.9168C88.7205 39.7046 87.6779 39.7699 85.9153 39.704C81.7234 39.5416 77.6712 38.7658 73.5458 37.7001C73.5641 37.3109 73.5827 36.8464 73.6093 36.3818C73.7335 34.2444 73.5186 32.1637 72.5277 30.224C71.3347 27.8854 69.4475 26.6821 66.7869 26.8091C64.2195 26.9313 61.8962 27.7968 59.797 29.243C56.3244 31.6339 55.4454 34.9275 57.2845 38.7069C57.8072 39.7797 58.4671 40.7867 59.0954 41.8829C49.6634 48.0097 47.1411 56.3896 51.0885 67.0334C48.0142 65.8675 45.2277 64.7035 42.3687 63.7633C39.8771 62.9449 37.326 62.2766 34.76 61.7379C32.5041 61.2648 30.7119 62.2459 29.7847 64.3166C28.9996 66.0651 28.3687 67.9201 27.9641 69.7919C27.1858 73.3735 28.567 76.0795 31.7165 77.9527C35.3566 80.1166 39.2987 80.8998 43.593 80.6463C39.9655 87.2646 36.2546 93.8075 37.0484 101.759C36.5833 101.864 36.2054 101.932 35.8408 102.035C31.6949 103.202 27.495 104.212 23.4307 105.618C21.5368 106.273 19.6726 107.443 18.2082 108.818C15.4996 111.363 15.1356 114.681 16.2349 118.132C17.2625 121.355 19.8966 122.515 22.9542 123.001C23.718 123.122 24.4995 123.147 25.273 123.18C33.4228 123.536 40.6038 120.812 47.1691 116.238C47.8755 115.746 48.2531 115.729 48.9278 116.216C52.843 119.061 57.096 121.238 61.8798 122.152C65.2606 122.796 68.6849 123.231 72.0972 123.686C72.8129 123.781 73.2702 123.892 73.5139 124.67C75.632 131.446 79.9371 136.904 84.3598 142.265C86.2789 144.592 87.9301 144.786 90.2725 142.897C94.7111 139.322 97.0165 134.67 95.8068 128.941C95.2023 126.084 93.8461 123.359 92.6441 120.657L92.6352 120.659ZM97.6083 78.397C99.3021 77.47 101.011 76.5292 102.8 75.8158C105.191 74.865 107.649 74.0754 110.11 73.3165C112.017 72.7301 112.862 73.1573 113.011 75.7732C113.039 76.277 112.896 76.7926 112.846 77.1902C111.623 80.2137 109.79 82.4612 106.51 82.9763C104.221 83.3367 101.895 83.4724 99.5799 83.6631C99.3029 83.6862 98.9154 83.4934 98.7278 83.274C98.0307 82.4565 97.3754 81.6016 96.7467 80.731C96.2354 80.0222 96.5687 78.9688 97.61 78.4003L97.6083 78.397ZM92.4049 39.5868C93.2618 38.6225 94.3379 37.6055 95.5146 37.2261C97.4017 36.6172 99.4456 36.3226 101.436 36.2525C103.524 36.1792 104.643 37.3324 105.083 39.3839C105.928 43.3115 104.789 46.8409 102.113 48.8852C99.7799 47.0722 97.4934 45.2718 95.1821 43.5063C94.4647 42.9592 93.6857 42.4943 92.9171 42.022C91.5014 41.1518 91.3232 40.8036 92.4049 39.5868ZM59.6987 35.2496C59.5646 34.9399 59.7487 34.4968 59.8013 33.952C60.1629 33.51 60.5287 32.9134 61.0346 32.4752C62.6415 31.0845 64.5458 30.3225 66.6571 30.1277C68.1764 29.9884 68.985 30.4951 69.6408 31.8638C70.5634 33.7814 70.3029 35.8155 70.1913 37.8226C70.1794 38.0258 69.7595 38.2984 69.4806 38.3773C67.2915 39.012 65.098 39.6184 62.8945 40.1973C62.6115 40.2723 62.0722 40.24 61.9938 40.0828C61.1796 38.4961 60.4088 36.8832 59.6995 35.2471L59.6987 35.2496ZM53.0218 54.4512C54.2329 49.6925 57.4405 46.2316 61.9168 44.3111C64.972 43.0001 68.2715 42.1741 71.5346 41.4521C74.5542 40.7828 77.4436 41.5796 80.0388 43.2838C81.1183 43.994 82.1234 44.352 83.0954 43.1158C83.2476 42.9205 83.6289 42.7752 83.8804 42.8057C85.5058 43.0126 87.3007 42.6131 88.5976 44.0659C88.7041 44.1864 88.888 44.2676 89.0496 44.3011C93.3132 45.2315 96.3806 48.0728 99.1232 51.11C102.603 54.9586 103.436 59.5359 101.393 64.4522C100.8 65.8814 100.223 67.3209 99.5857 68.7301C97.4249 73.5009 93.6326 76.4873 88.7774 78.5376C88.741 78.093 88.6854 77.7738 88.6915 77.4559C88.786 73.0155 87.3443 69.0664 84.6956 65.565C81.9657 61.9567 76.8644 59.8111 72.0093 61.4206C70.1588 62.0333 68.5243 62.9687 67.2968 64.4609C66.2369 65.752 65.337 67.1729 64.3906 68.5545C63.3826 70.0264 62.4056 71.5191 61.378 73.0599C54.6134 69.1035 51.1907 61.6383 53.0186 54.4529L53.0218 54.4512ZM80.6504 66.2057C80.9884 66.4766 81.3118 66.6594 81.533 66.9246C84.1576 70.0929 85.5825 73.695 85.3459 77.8501C85.2432 79.6719 84.8441 79.9969 83.0934 80.443C78.488 81.6146 74.3187 80.1771 70.2348 78.3183C68.4362 77.4987 66.7195 76.5013 64.9542 75.6037C64.0609 75.1502 63.9808 74.7156 64.7247 73.9673C65.4323 73.2557 65.9984 72.3906 66.5639 71.5523C67.662 69.9187 68.6149 68.1762 69.8306 66.6372C70.5062 65.7835 71.5891 65.2527 72.4908 64.5744C72.581 64.687 72.6687 64.7987 72.7589 64.9113C72.0848 67.8223 72.9256 69.5682 75.2309 70.0385C77.7863 70.5603 80.1113 68.983 80.6536 66.204L80.6504 66.2057ZM41.6137 77.4076C38.6844 77.3077 35.9128 76.6298 33.3654 75.1023C31.5693 74.0254 30.7031 72.5241 31.1838 70.4591C31.5241 69.002 32.0008 67.573 32.5093 66.1623C32.8588 65.1921 33.6487 64.7088 34.6729 65.0327C38.8574 66.3568 43.0244 67.7264 47.197 69.087C47.3531 69.1376 47.5461 69.2405 47.6138 69.3726C48.2202 70.5613 49.27 70.7564 50.4578 70.7085C50.7446 70.6966 51.0341 70.8093 51.4937 70.8964C49.1715 73.6792 46.976 76.3121 44.7139 79.0255C44.0779 77.7036 42.9191 77.4544 41.6186 77.4092L41.6137 77.4076ZM23.4475 119.725C21.6042 119.533 19.9237 118.956 19.3238 116.958C18.662 114.751 18.8908 112.615 20.6594 111C21.6233 110.122 22.8026 109.31 24.0285 108.912C28.0402 107.61 32.1002 106.441 36.188 105.403C36.9481 105.211 38.203 105.597 38.7504 106.169C40.9703 108.499 43.0014 111.005 45.1744 113.529C38.7492 118.187 31.5594 120.564 23.4458 119.722L23.4475 119.725ZM50.6656 108.486C50.4431 109.871 50.2416 111.257 49.9851 112.93C46.5265 109.857 43.0047 107.228 41.05 103.207C39.694 100.415 40.0913 97.4601 40.9143 94.6135C42.579 88.8458 45.2647 83.5784 49.0939 78.9316C50.7335 76.9413 52.4743 75.0294 54.1458 73.0654C54.7545 72.3513 55.2118 72.3705 55.9317 73.0179C61.4703 78.0045 67.8461 81.5472 75.031 83.4917C77.0598 84.0418 79.2819 83.9125 81.4179 84.0322C82.3943 84.0879 83.3792 84.0174 84.357 83.9606C84.7337 83.9375 85.1309 83.8593 85.474 83.707C87.397 82.8543 89.3199 81.9935 91.2164 81.0812C91.8774 80.7631 92.3009 80.895 92.8061 81.3814C96.1632 84.6096 98.0762 88.4103 98.5848 93.143C99.3315 100.101 97.0245 106.013 93.1998 111.519C92.322 112.78 91.0372 113.759 89.7922 115.014C89.4267 111.602 89.1409 108.576 88.7685 105.56C87.8052 97.7656 84.539 94.0076 76.9298 91.9336C72.8072 90.8097 68.609 90.5753 64.3619 91.0242C61.2557 91.3535 58.7637 92.7396 56.6314 95.0112C53.0508 98.8244 51.4716 103.472 50.6664 108.483L50.6656 108.486ZM66.4181 119.748C64.2633 119.338 62.1231 118.84 59.7137 118.325C57.9448 117.48 55.9763 116.52 53.9855 115.603C53.1065 115.197 52.9146 114.766 53.1849 113.725C53.691 111.781 53.8412 109.746 54.1694 107.753C54.8504 103.623 56.3459 99.8576 59.4499 96.9411C60.4529 95.9999 61.701 94.993 62.9857 94.7292C68.9596 93.5093 74.8081 93.9317 80.3032 96.8824C83.1676 98.4212 84.8287 100.796 85.2176 104.027C85.5776 107.015 86.0389 109.999 86.2143 112.999C86.4237 116.552 85.9059 117.102 82.6609 118.483C77.3803 120.732 71.9464 120.801 66.4189 119.746L66.4181 119.748Z" fill="black" stroke="#A8ADED" stroke-width="1.2" stroke-miterlimit="10"/>
<path d="M89.4505 58.1317C89.0796 58.7076 88.7703 59.3417 88.3236 59.8469C86.706 61.6751 84.5153 61.324 83.6243 59.0851C83.1671 57.9416 82.8114 56.7493 82.4595 55.5609C82.2085 54.7181 82.9579 53.4951 83.9726 52.9347C84.5987 52.5882 85.2194 52.2265 85.8262 51.8439C87.2592 50.9376 88.4678 51.6041 88.5642 53.3243C88.5864 53.7204 88.7582 54.135 88.961 54.4782C89.6284 55.6056 89.7952 56.7883 89.4505 58.1317Z" fill="black"/>
<path d="M66.8106 55.565C65.0231 54.9725 64.055 53.322 64.6022 51.7951C65.1969 50.1404 67.5031 49.0379 69.172 49.6075C70.9459 50.2138 72.4747 52.562 71.9803 53.9262C71.4214 55.47 68.9173 56.2635 66.8098 55.5673L66.8106 55.565Z" fill="black"/>
</g>
<defs>
<clipPath id="clip0_851_4568">
<rect width="105.57" height="133.722" fill="white" transform="translate(41.2333) rotate(17.9599)"/>
</clipPath>
</defs>
</svg>
