<svg width="84" height="87" viewBox="0 0 84 87" fill="none" xmlns="http://www.w3.org/2000/svg">
<g clip-path="url(#clip0_843_4698)">
<path d="M72.0249 54.9191C72.1454 54.1323 72.2988 53.3208 72.4478 52.5346C72.6767 51.327 72.9137 50.0769 73.0569 48.7977C73.2136 47.4146 73.4387 45.7946 73.9373 44.2659C74.2805 43.2118 74.6567 41.9749 74.7665 40.6454C75.1155 36.4086 74.9945 32.2143 74.4023 28.1804C73.8743 24.5709 72.5467 21.2899 70.3454 18.1512C69.1033 16.38 67.4845 14.9815 65.5341 13.9948C62.622 12.5205 59.7852 13.237 57.9444 15.91C55.6113 19.2963 55.9325 22.6153 58.8751 25.5107C59.1501 25.7823 59.4266 26.0327 59.6942 26.2737L60.8838 24.9856L59.7073 26.286C59.9062 26.4658 60.1114 26.6525 60.2975 26.83C60.4795 27.0046 60.6646 27.1801 60.8486 27.3536L60.8658 27.3689C61.3772 27.8518 61.9073 28.3505 62.3586 28.8532C63.3297 29.9313 63.6565 31.0596 63.3905 32.4089C63.159 33.5758 62.8652 34.77 62.5805 35.9237C62.5748 35.942 62.5707 35.9607 62.5666 35.9794C62.5328 35.9689 62.5004 35.9589 62.4666 35.9484C60.6828 35.4095 58.8401 34.8539 57.1171 34.184C56.0261 33.7597 54.9146 33.2274 53.8366 32.7122C52.8879 32.2587 51.9068 31.7901 50.8958 31.3689C48.7581 30.4807 46.8555 29.9499 45.026 29.7381C46.0332 28.1787 47.056 26.5793 48.0246 24.9647C49.5599 22.4019 50.4445 20.2853 50.8888 18.0988C51.0431 17.3442 51.5105 15.0451 49.4908 13.4709C47.5568 11.9632 45.5469 12.9008 44.688 13.3007C42.1681 14.475 39.8729 16.2248 37.6961 18.6323C35.9555 17.7089 34.0162 16.9969 31.8176 16.4744C31.7832 16.3406 31.7493 16.2052 31.7148 16.0713C31.3667 14.7017 31.0062 13.2849 30.581 11.8864C30.2663 10.8501 29.855 9.64069 29.1931 8.53847C28.5308 7.43777 27.4943 6.734 26.3498 6.60774C25.1941 6.47966 24.0205 6.94867 23.1307 7.89508C22.3513 8.72422 21.4841 9.73923 20.9717 10.9856C20.3481 12.4989 19.8704 14.0474 19.4082 15.5457C19.2878 15.9346 19.1679 16.322 19.0459 16.7104C18.7887 17.5247 18.7489 18.2632 18.9246 18.9102C18.2361 19.5111 17.5314 20.132 16.8362 20.7708C14.1328 23.2566 12.3155 26.3929 11.4323 30.0949C10.2262 35.1452 11.708 39.4095 15.7155 42.4265C16.6699 43.1448 17.5496 43.7069 18.4023 44.144C18.9394 44.4185 19.4663 44.6499 20.0046 44.8715C18.3776 50.2193 17.1294 55.6993 15.9168 61.0156L15.7057 61.9424C15.2134 64.099 15.1073 66.0588 15.3793 67.936C15.6306 69.6618 16.5482 70.9947 17.8985 71.5942C19.2494 72.1972 20.863 71.9843 22.3216 71.0142C24.2476 69.7327 25.5755 68.0846 26.2704 66.1122C27.1656 63.5693 28.0159 60.9809 28.8368 58.4766C29.0469 57.8358 29.2571 57.195 29.4693 56.5532C29.8712 56.6493 30.27 56.7445 30.6672 56.8392C30.5386 57.3254 30.4099 57.8117 30.2813 58.2979C29.6414 60.7134 28.9811 63.2108 28.4329 65.7113C27.9849 67.7518 27.7192 69.9169 27.6414 72.1452C27.5896 73.6357 28.1208 74.8823 29.1356 75.6559C29.4765 75.9163 29.8652 76.1149 30.2898 76.2463C31.1606 76.5159 32.1726 76.4929 33.2158 76.1783C33.4668 76.1029 33.7988 75.9943 34.1406 75.8271C36.9313 74.4587 38.7358 72.6601 39.6576 70.3252C40.5522 68.0618 41.4153 65.6172 42.3751 62.6315C42.7024 61.6124 42.9724 60.5823 43.2266 59.5706C43.4408 59.6686 43.6569 59.7654 43.874 59.8593C44.8551 60.2846 45.829 60.6676 46.6095 60.9676C46.3131 62.0011 45.9881 63.0509 45.673 64.0687C45.2685 65.3751 44.8499 66.7271 44.4779 68.0919C44.0901 69.5134 43.6785 71.2022 43.5528 72.9478C43.4406 74.5029 43.9803 75.9019 45.0712 76.8872C46.1923 77.9002 47.7739 78.33 49.4091 78.0638C51.1664 77.7788 52.6151 76.9388 53.5951 75.6574C53.3193 77.6646 53.7518 79.4915 54.8652 80.9816C56.3888 83.0198 59.0371 83.6416 61.3063 82.493C63.4032 81.4325 64.8178 79.8478 65.5099 77.7864C66.2937 75.4454 67.0637 73.0618 67.8144 70.7406C68.2952 69.253 68.7764 67.7639 69.2639 66.2767C70.5561 62.3368 71.4603 58.6214 72.0264 54.9195L72.0249 54.9191Z" fill="#A8ADED"/>
<path d="M70.091 52.4308C70.3128 51.2626 70.5401 50.0545 70.6757 48.8596C70.8449 47.3654 71.0919 45.604 71.6523 43.8864C71.9568 42.9519 72.2889 41.8627 72.3779 40.7749C72.713 36.7085 72.5974 32.6873 72.0308 28.8212C71.5536 25.5704 70.3546 22.6089 68.3618 19.7662C67.3394 18.3093 66.0066 17.1575 64.399 16.3435C62.5069 15.3865 60.9407 15.7839 59.7388 17.526C58.0143 20.0302 58.2117 22.099 60.3825 24.236C60.6251 24.476 60.885 24.7096 61.1349 24.9368C61.3495 25.1314 61.5708 25.3314 61.7841 25.5356C61.9672 25.7122 62.1512 25.8857 62.3367 26.0596C62.8835 26.5752 63.4486 27.1081 63.9601 27.6776C65.4108 29.2871 65.9411 31.141 65.5361 33.1897C65.2952 34.4036 64.9948 35.6241 64.7048 36.8062C64.6194 37.1526 64.5341 37.4991 64.4502 37.8461C64.3549 38.241 64.2223 38.6312 63.9023 38.8101C63.5902 38.9848 63.2071 38.9045 62.8743 38.8031C62.4866 38.6831 62.0975 38.5676 61.7073 38.4501C59.8815 37.8999 57.9926 37.33 56.1869 36.6278C55.0147 36.1717 53.862 35.62 52.7485 35.0888C51.8261 34.6484 50.8717 34.1915 49.9173 33.7944C47.4526 32.77 45.3682 32.2762 43.3569 32.2378C42.8122 32.2273 42.2482 32.3174 41.6523 32.4125C41.3543 32.4601 41.0477 32.5084 40.7216 32.5489L40.0115 32.637L40.4933 32.1153C40.5567 32.0467 40.6111 31.9853 40.6596 31.9321C40.7576 31.8226 40.8348 31.7366 40.9248 31.6529C41.0058 31.5765 41.0921 31.51 41.176 31.446C41.3087 31.344 41.433 31.2476 41.5035 31.1396C41.8178 30.6526 42.1321 30.1656 42.448 29.679C43.6178 27.872 44.8247 26.005 45.9479 24.1303C47.347 21.795 48.1476 19.8954 48.5399 17.9692C48.7459 16.9609 48.7279 16.1696 47.9799 15.5851C47.2246 14.9967 46.477 15.2713 45.5784 15.6906C43.0581 16.8664 40.7644 18.7149 38.5708 21.3403C38.4977 21.4292 38.4205 21.5152 38.3433 21.6011L38.0852 21.8958L37.8928 21.7713C35.8875 20.4663 33.5437 19.5308 30.7285 18.909C30.1083 18.7719 29.7833 18.4765 29.6394 17.9175C29.5559 17.5937 29.4739 17.2703 29.3909 16.945C29.049 15.5989 28.6942 14.2072 28.2851 12.8603C28.0103 11.9562 27.6577 10.9114 27.1233 10.0235C26.8317 9.53867 26.4381 9.24702 26.0111 9.1997C25.5743 9.15104 25.1135 9.35964 24.7137 9.78521C24.075 10.4648 23.3702 11.282 22.9963 12.1901C22.4125 13.6075 21.9498 15.1073 21.5022 16.5586C21.3804 16.952 21.2591 17.344 21.1362 17.7354C21.0072 18.1466 20.9758 18.4931 21.052 18.7098C21.1003 18.848 21.286 18.9887 21.4649 19.124C21.5589 19.1964 21.6574 19.2702 21.7439 19.3502L21.9549 19.5454L21.7414 19.734C21.3935 20.0408 21.0401 20.3493 20.6842 20.6602C19.8991 21.3444 19.0882 22.0523 18.3036 22.7732C15.9377 24.9474 14.3443 27.7036 13.566 30.9636C12.571 35.1303 13.7252 38.4925 16.9961 40.9535C17.8436 41.5921 18.6117 42.0846 19.3468 42.4603C20.0247 42.8084 20.7294 43.0915 21.4732 43.39C21.7986 43.5208 22.1266 43.6539 22.4563 43.7926L22.6589 43.8787L22.6119 44.0905C22.6013 44.1355 22.5924 44.186 22.582 44.2361C22.5571 44.3599 22.5291 44.4994 22.4859 44.6391C20.6926 50.2951 19.3523 56.1761 18.057 61.863L17.8455 62.7913C17.4164 64.6728 17.3208 66.3646 17.5526 67.9629C17.6896 68.9092 18.1081 69.5832 18.7277 69.8582C19.3503 70.1343 20.1339 69.994 20.9345 69.4611C22.4441 68.4568 23.4764 67.1866 24.0056 65.6841C24.8923 63.1685 25.7383 60.5887 26.5558 58.095C26.8912 57.0718 27.226 56.0501 27.566 55.0284C27.6104 54.8956 27.6498 54.763 27.6911 54.6243L27.8265 54.1868L29.3904 54.5594C30.5237 54.8304 31.6356 55.0947 32.7479 55.3575C32.773 55.3636 32.7965 55.3692 32.8196 55.3764C32.9842 55.4273 33.1003 55.5099 33.1699 55.628C33.2931 55.8293 33.233 56.0504 33.1862 56.229L33.1692 56.2837C32.9198 57.2636 32.6611 58.2406 32.4025 59.2176C31.7696 61.6103 31.1144 64.086 30.5757 66.5395C30.1564 68.449 29.9076 70.4779 29.8345 72.5711C29.8081 73.3154 30.0136 73.8768 30.4282 74.1932C30.8822 74.5402 31.5948 74.591 32.435 74.3385C32.6117 74.285 32.8197 74.2178 33.0122 74.1243C35.2722 73.0161 36.7146 71.6081 37.4218 69.8194C38.2973 67.6017 39.1452 65.2006 40.0904 62.262C40.4734 61.0738 40.7808 59.8305 41.0785 58.6292C41.2129 58.0865 41.3518 57.5235 41.4975 56.971L41.5769 56.671L41.8627 56.8044C42.1541 56.9412 42.4425 57.0771 42.7304 57.2145C43.37 57.5175 44.0298 57.8316 44.6852 58.1161C45.7255 58.568 46.7671 58.972 47.5588 59.2738C47.847 59.383 48.0841 59.4614 48.2754 59.5239C49.2657 59.8488 49.2814 60.0102 48.9521 61.1285C48.908 61.2763 48.8593 61.4444 48.8042 61.6387C48.4788 62.7932 48.119 63.9553 47.7705 65.081C47.3708 66.3722 46.9574 67.7075 46.597 69.0293C46.2381 70.3465 45.8557 71.9029 45.7455 73.4569C45.6845 74.302 45.9587 75.0445 46.5159 75.5482C47.1111 76.0871 47.9904 76.3077 48.9273 76.1566C50.4059 75.9169 51.5006 75.1421 52.0939 73.9174C52.9145 72.2254 53.6057 70.51 54.1469 68.8164C54.5925 67.4261 54.9306 65.9693 55.2587 64.561C55.3738 64.0639 55.4905 63.5673 55.6102 63.0716C55.6581 62.8734 55.7508 62.5958 56.0005 62.47C56.2482 62.3452 56.5205 62.4295 56.705 62.5033C57.0844 62.6557 57.5313 62.8241 57.9814 62.9168C58.3333 62.9891 58.5543 63.1141 58.6803 63.3113C58.8563 63.5872 58.7891 63.9293 58.7048 64.2561C57.7153 68.1166 56.7552 71.8929 55.8912 75.6691C55.4972 77.3883 55.7328 78.7947 56.6113 79.9706C57.4624 81.1098 58.8868 81.4426 60.1563 80.8001C61.7036 80.0173 62.7405 78.8684 63.2377 77.3876C64.0196 75.0526 64.7891 72.6706 65.5331 70.3655C66.0153 68.8734 66.497 67.3828 66.9854 65.8926C68.2379 62.0702 69.114 58.4727 69.6624 54.8935C69.7896 54.0688 69.9461 53.2366 70.0992 52.4317L70.091 52.4308ZM38.9781 22.5185C39.3539 22.1488 39.7264 21.768 40.0854 21.398C40.9156 20.5463 41.775 19.6654 42.7081 18.9005C43.6522 18.1274 44.746 17.5188 45.8037 16.929C45.9667 16.838 46.1313 16.7474 46.2948 16.6549C46.7213 16.4157 47.0501 16.3826 47.2743 16.5569C47.4929 16.7278 47.539 17.0417 47.4078 17.4872L47.289 17.8983C46.9297 19.1404 46.5588 20.4256 45.9483 21.5751C44.9785 23.4007 43.9007 25.2045 42.8586 26.9478C42.429 27.6655 41.9869 28.4076 41.5561 29.1399L41.4484 29.3246L40.8354 29.1099L40.6341 26.9883L40.7159 26.9037C40.8919 26.7218 41.0567 26.5598 41.2116 26.408C41.519 26.1069 41.7836 25.8459 41.9951 25.5601C42.3144 25.1279 42.5969 24.651 42.8696 24.1894C42.9677 24.025 43.0643 23.8602 43.1635 23.6978C43.2528 23.5506 43.3342 23.386 43.4055 23.21C43.7812 22.2742 43.3853 22.0118 43.2554 21.925C42.9294 21.7092 42.2404 21.7672 41.812 22.1706C41.4075 22.5515 41.0119 22.9417 40.5944 23.3535C40.4102 23.5346 40.2226 23.7212 40.029 23.9109L39.8016 24.1335L38.8297 22.6657L38.9802 22.5175L38.9781 22.5185ZM21.9956 19.022L22.1216 18.5932C22.2823 18.047 22.4264 17.4889 22.5668 16.9481C23.1569 14.672 23.7674 12.3189 25.7078 10.4026L25.9559 10.1565L26.1235 10.4647C26.9075 11.9077 27.2527 13.423 27.586 14.8896C27.8312 15.971 28.0854 17.0885 28.5141 18.1435L28.6589 18.4979L28.2743 18.4987C28.087 18.499 27.909 18.5022 27.7392 18.5062C27.3283 18.5155 26.9398 18.5234 26.5585 18.4753C26.24 18.4366 25.95 18.0555 25.884 17.8003C25.8326 17.6013 25.8245 17.399 25.8159 17.2032C25.8058 16.9854 25.7975 16.778 25.7273 16.6181C25.5911 16.3013 25.3173 15.9984 25.1158 15.936C25.1127 15.9351 25.1096 15.9341 25.1065 15.9332C24.9436 15.8877 24.5555 16.0522 24.3399 16.2585C23.7656 16.8065 23.5718 17.4923 23.7454 18.3584L23.7943 18.6033L21.9961 19.0204L21.9956 19.022ZM24.0533 42.5224C23.9862 42.505 23.923 42.4804 23.8613 42.4564C23.813 42.4381 23.7334 42.4068 23.6976 42.4023C23.1102 42.6117 22.5649 42.5378 22.0618 42.382C21.8126 42.3048 21.5745 42.2078 21.3468 42.1157C21.2661 42.0824 21.1864 42.051 21.1068 42.0197C19.1939 41.266 17.5461 40.1299 16.2074 38.6434C15.2022 37.5281 13.9427 35.5899 14.5975 31.6558C14.6572 31.2997 14.7517 30.9511 14.8205 30.6961C14.8457 30.604 14.8675 30.5225 14.8826 30.4573L14.8864 30.4451L14.8902 30.433C15.9552 27.3633 17.3466 25.1455 19.2719 23.4576C20.3948 22.4718 21.5832 21.4813 22.8011 20.5099C23.7921 19.7213 24.9536 19.7763 26.0764 19.8309L26.3357 19.8429C26.5883 19.8546 26.8507 19.8675 27.0603 19.8059C27.8497 19.5759 28.58 19.6405 29.2919 20.0041C29.4434 20.0809 29.6447 20.1333 29.8746 20.1529C30.047 20.1679 30.227 20.1637 30.4152 20.1604C30.7681 20.1531 31.1292 20.1467 31.4761 20.2625C32.8176 20.7161 34.3911 21.2698 35.8816 21.9394C37.6788 22.7455 38.8353 24.2705 39.322 26.4722C40.2454 30.6452 39.1655 34.5309 36.1145 38.0195C33.1303 41.4339 29.4661 43.0479 25.226 42.8189C24.934 42.8034 24.6585 42.7132 24.3933 42.6277C24.2795 42.5925 24.165 42.5537 24.0518 42.522L24.0533 42.5224ZM51.4164 72.7621C51.069 73.3887 50.5586 73.9915 49.9397 74.504C49.6088 74.7778 49.0881 74.9512 48.3923 75.0205C48.1816 75.0418 47.976 75.0198 47.7883 74.9617C47.5883 74.8997 47.4081 74.7957 47.262 74.6522C46.997 74.392 46.8694 74.0362 46.9058 73.6463C46.9868 72.7258 47.1354 71.8046 47.2908 70.8289C47.3594 70.4007 47.4301 69.9598 47.4997 69.4952L47.5714 69.008L47.9371 69.346C48.6905 70.0437 49.1312 69.7856 49.7181 69.3114L49.947 69.1275C50.4691 68.7099 51.0097 68.2763 51.4336 67.7782C51.8067 67.3411 51.9492 66.9024 51.8379 66.5433C51.7232 66.1732 51.3412 65.8768 50.7631 65.7128C50.4473 65.6217 50.1254 65.5453 49.7497 65.4573C49.5597 65.4118 49.3555 65.3636 49.1313 65.3092L48.8604 65.2419L49.2014 64.1406C49.5507 63.0068 49.8803 61.9369 50.2389 60.8493C50.3225 60.5955 50.7702 60.4295 51.0148 60.5052L51.0209 60.5071C52.0707 60.8521 53.1232 61.2263 54.1487 61.617C54.3871 61.7074 54.6385 62.1099 54.5599 62.3636C54.1886 63.5521 53.9097 64.7959 53.6389 65.9972C53.1278 68.2745 52.5977 70.6291 51.4189 72.7596L51.4164 72.7621ZM64.0169 71.5326C63.768 72.3095 63.511 73.1122 63.266 73.9037C63.1258 74.3564 62.9101 74.6991 62.3159 74.903C61.8987 75.0469 61.4538 75.3786 61.1559 75.7691C61.0027 75.9698 60.9427 76.3923 61.0178 76.7053C61.0826 76.752 61.2806 76.8149 61.4139 76.8579C61.5493 76.8998 61.6884 76.9462 61.818 77.0013L62.0408 77.0986L61.9621 77.3256C61.5546 78.4946 60.6105 79.3876 59.2301 79.9091C58.6571 80.1262 58.0268 79.8911 57.5432 79.2803C57.0182 78.6183 56.8132 77.7991 56.9321 76.8487C57.0798 75.6692 57.3391 74.4776 57.5669 73.4261C57.6585 73.005 57.7952 72.5962 57.9281 72.1995C57.9878 72.0232 58.0454 71.8479 58.1004 71.6702L58.1931 71.3709L58.4741 71.5195C59.4298 72.0268 59.6778 71.9937 60.513 71.2401C60.9338 70.861 61.2989 70.4497 61.6014 70.0173C62.059 69.3615 62.1118 68.8369 61.7661 68.3636C61.3813 67.8366 60.8118 67.7701 59.9571 67.8351C59.8469 67.8426 59.7268 67.882 59.5753 67.93C59.489 67.9582 59.3957 67.9876 59.2926 68.0156L58.9131 68.1195L58.9608 67.7314C58.9687 67.6623 58.9752 67.5977 58.9798 67.5392C58.9913 67.4096 59.0019 67.288 59.0369 67.164C59.2143 66.5531 59.3952 65.9415 59.5761 65.33C59.7476 64.7488 59.9202 64.1696 60.0886 63.5875C60.3352 62.7366 60.2089 62.4911 59.3777 62.1971C58.5737 61.9132 57.75 61.6332 56.955 61.3638C56.4269 61.1853 55.8978 61.0048 55.3706 60.8233C55.1499 60.7467 54.9386 60.6613 54.735 60.5783C54.6466 60.5426 54.5597 60.5073 54.4774 60.4736L54.2688 60.3906L54.3172 60.1742C54.4198 59.7066 54.5246 59.2429 54.6284 58.7823C54.9013 57.5633 55.1586 56.4111 55.3973 55.2315C55.4981 54.7316 55.5209 54.2442 55.4615 53.8263C55.4151 53.5023 55.245 53.2565 54.9921 53.1533C54.7442 53.0499 54.4525 53.1044 54.1969 53.2983C53.7916 53.6056 53.4096 54.0117 53.0951 54.4721C52.4111 55.4722 51.7584 56.4804 51.0675 57.5467C50.7958 57.967 50.5191 58.3924 50.2365 58.8259L50.1214 59.0017L49.9225 58.9252C49.6333 58.814 49.3409 58.7018 49.0444 58.5867C47.8796 58.1395 46.6742 57.6764 45.4751 57.182C45.0972 57.025 45.1478 56.2733 45.1482 56.2667C45.1873 55.841 45.2395 55.411 45.2905 54.9957C45.3668 54.3734 45.4467 53.7289 45.477 53.0973C45.4979 52.6593 45.4043 52.1559 45.2095 51.6794C45.0848 51.3744 44.8761 51.1717 44.6132 51.0952C44.3241 51.0107 43.9962 51.084 43.6918 51.2994L43.6703 51.3144C43.5693 51.3847 43.4654 51.459 43.4169 51.5339C43.1533 51.9334 42.887 52.3304 42.6208 52.7275C41.8726 53.8426 41.0994 54.9949 40.4307 56.1746C40.2364 56.519 40.1777 56.9536 40.1146 57.4135C40.0745 57.7174 40.031 58.0319 39.9461 58.3335C39.285 60.6593 38.5912 63.0148 37.9193 65.2939L37.6395 66.2411C37.5907 66.4041 37.5196 66.5469 37.4478 66.6861C37.4187 66.742 37.3911 66.7984 37.3655 66.8538L37.2787 67.0416L37.0746 66.9984C35.6638 66.7031 34.1708 67.4795 33.6055 68.8044C33.471 69.119 33.4631 69.4112 33.5856 69.6472C33.7162 69.9007 33.9885 70.0832 34.3713 70.1701C34.5535 70.2132 34.7567 70.2212 34.991 70.2322C35.1174 70.238 35.2503 70.2442 35.3951 70.2557L35.9101 70.2969L35.5759 70.6846C34.3985 72.048 33.2271 72.869 31.8894 73.2689C31.6814 73.331 31.5204 73.3228 31.4004 73.2857C31.3235 73.2618 31.2636 73.2266 31.2174 73.1907C31.0886 73.0892 30.9404 72.8819 30.9669 72.4639C30.9837 72.2028 30.9974 71.9406 31.0101 71.6765C31.0549 70.8131 31.1004 69.9199 31.2555 69.054C31.5074 67.647 31.8229 66.2248 32.1279 64.8476C32.258 64.2586 32.3906 63.6671 32.5174 63.0721L32.5743 62.8067L32.8392 62.8771C33.921 63.162 34.7224 62.7027 35.5695 62.2158C35.6863 62.1487 35.8012 62.0827 35.9171 62.0188C36.2367 61.8414 36.6068 61.5065 36.5507 60.9198C36.4895 60.2732 36.0221 59.9804 35.6413 59.8491C35.2527 59.7155 34.8314 59.6333 34.3856 59.5486C34.1739 59.508 33.9561 59.4655 33.732 59.4161L33.4526 59.3546L33.8284 58.1408C34.0499 57.4253 34.2739 56.7073 34.4948 55.9883C34.6705 55.41 34.695 55.0747 34.5758 54.8663C34.4555 54.6559 34.1458 54.5018 33.539 54.3489C31.8936 53.9344 30.1007 53.4742 27.8957 52.9014C27.5167 52.8023 27.2421 52.8072 27.0611 52.9126C26.8635 53.0279 26.7214 53.2853 26.613 53.7228C25.4487 58.3765 24.2409 62.1195 22.8084 65.5049C22.289 66.7307 21.4237 67.7447 20.2364 68.5191C19.9532 68.7044 19.5857 68.9003 19.2446 68.7548C18.9001 68.6098 18.7787 68.196 18.7104 67.8502C18.6853 67.7243 18.6725 67.6021 18.6638 67.4995C18.4339 65.0128 19.0361 62.6106 19.6179 60.2903L19.7348 59.8254L20.0598 60.1208C20.8535 60.841 21.1593 60.8607 22.2471 60.2603C23.2066 59.7316 23.6543 59.0479 23.4737 58.3843C23.1718 57.2737 22.3443 57.2073 21.2961 57.1242C21.0804 57.1073 20.8566 57.0897 20.635 57.0593L20.3415 57.0217L22.3445 49.1418L22.6302 49.2701C23.9514 49.8656 26.5109 49.3912 27.5176 48.3611C27.8112 48.0608 27.9554 47.7042 27.9272 47.3542C27.8968 47.0002 27.6957 46.675 27.3452 46.4133C26.2354 45.5869 25.0802 45.3591 23.8152 45.7149L23.3494 45.8471L23.4914 45.3883C23.521 45.2926 23.5508 45.2019 23.5792 45.1158C23.6363 44.9421 23.6864 44.7911 23.7193 44.6414C23.8577 43.9818 24.3373 43.9305 24.6857 43.9485C31.2415 44.3001 36.0638 41.4016 39.4305 35.0908L39.5086 34.9418C39.7915 34.3985 40.1117 33.7834 41.0739 33.785C41.4296 33.7853 41.7937 33.6766 42.1795 33.563C42.3856 33.5019 42.5972 33.4392 42.8123 33.3926C42.9443 33.3636 43.0652 33.3761 43.2203 33.3924C43.2938 33.4002 43.3785 33.4098 43.4814 33.415L43.7678 33.4321L43.7281 33.7128C43.6786 34.0687 43.631 34.4185 43.5838 34.7668C43.4764 35.5659 43.3739 36.3216 43.2478 37.0883C43.127 37.8217 42.9855 38.562 42.8464 39.278C42.7722 39.6646 42.6985 40.0496 42.6264 40.4351C42.5964 40.5973 42.5829 40.7663 42.5726 40.9246C42.53 41.5906 42.5956 42.0321 43.057 42.3115C43.532 42.6017 43.9928 42.453 44.5349 42.1397C46.2645 41.1437 47.3665 39.5121 47.9019 37.1509C48.0159 36.6468 48.0785 36.1285 48.1451 35.5814C48.1766 35.3215 48.2081 35.0565 48.246 34.7869L48.2883 34.487L48.5822 34.578C48.7037 34.6157 48.8282 34.6492 48.9553 34.6852C49.2535 34.7676 49.5625 34.8532 49.8609 34.9839C50.4022 35.2231 50.9465 35.4798 51.4718 35.7274C52.0253 35.987 52.5975 36.2573 53.166 36.5066C53.855 36.8081 53.8099 37.2803 53.6594 37.7448C53.212 39.1245 52.7456 40.5982 52.3754 42.11C52.1424 43.0584 52.3131 43.6506 52.913 43.9728C53.6182 44.3526 54.1837 44.04 54.9167 43.3713C56.093 42.3004 56.84 40.9003 57.1391 39.21C57.149 39.1564 57.1562 39.1004 57.1629 39.0459C57.1732 38.9692 57.1835 38.8924 57.1984 38.8171C57.215 38.7307 57.2629 38.674 57.3043 38.6219C57.3206 38.6019 57.3419 38.5769 57.3659 38.5427L57.4761 38.3937L57.6546 38.449C57.8315 38.5037 58.0115 38.5595 58.1925 38.6122C58.7319 38.7758 59.2892 38.9417 59.8327 39.1466C60.1106 39.251 60.2572 39.7358 60.2053 39.9961C59.9778 41.1393 59.7132 42.2826 59.4406 43.4517C59.2252 44.3706 59.5512 45.2073 59.9344 45.9735C60.0448 46.1942 60.2377 46.3388 60.4769 46.3779C60.7528 46.4233 61.0463 46.3194 61.2641 46.1005C61.6119 45.7504 61.8966 45.3208 62.0628 44.8929C62.4734 43.8447 62.8391 42.7559 63.1925 41.7017L63.4016 41.0806C63.5625 40.6044 63.8231 40.3671 64.3321 40.2317C64.6318 40.1513 64.9949 39.8442 65.0777 39.5985C65.8781 37.2477 66.6717 34.7332 66.8174 32.1115C66.9214 30.2292 66.271 28.4963 64.8832 26.9613C64.3409 26.3605 63.7337 25.7896 63.1473 25.2385C62.8366 24.9459 62.5166 24.6454 62.2066 24.3397C62.0851 24.2204 61.9635 24.1012 61.8414 23.9835C61.3683 23.5241 60.88 23.0483 60.4372 22.54C59.702 21.6964 59.5596 20.6751 60.0139 19.5073C60.0559 19.3988 60.1062 19.2961 60.152 19.1971L60.184 19.1321C60.6187 18.2179 61.1917 17.255 62.1336 17.0388C62.9268 16.8566 63.8691 17.2166 65.0991 18.1717L65.2922 18.3214L65.1559 18.5222C65.0754 18.6405 64.9877 18.7549 64.9025 18.8667C64.7179 19.1091 64.543 19.3363 64.446 19.5843C64.275 20.0225 64.0833 20.5924 64.107 21.1041C64.1265 21.5147 64.3083 21.8423 64.6049 22.0008C64.9072 22.1626 65.2911 22.1316 65.6565 21.9151C66.0134 21.7044 66.3399 21.4176 66.6874 21.1123C66.8566 20.9632 67.0323 20.8095 67.2213 20.6566L67.4515 20.4682L67.6106 20.7222C67.695 20.8582 67.7849 20.9926 67.8743 21.1285C68.0759 21.4356 68.2855 21.7552 68.461 22.0925C69.0505 23.2323 69.508 24.178 69.8968 25.0625C70.0404 25.3883 69.8546 25.8302 69.7373 26.0186C69.4639 26.455 69.1753 26.8917 68.8949 27.3127C68.5734 27.7958 68.2421 28.2942 67.9368 28.7956C67.8244 28.9789 67.7982 29.2704 67.7867 29.5582C67.7697 29.9941 67.9167 30.3526 68.2009 30.5671C68.4837 30.7811 68.869 30.8272 69.285 30.6979C69.5742 30.6077 69.8618 30.4687 70.1658 30.3197C70.3186 30.2455 70.4774 30.1682 70.646 30.0922L70.9634 29.9491L71.0158 30.2916C71.3622 32.538 71.4859 34.6872 71.3904 36.8634L71.3784 37.1527L71.0893 37.1064C69.807 36.9025 68.8287 37.432 67.7546 38.2931C67.1003 38.8163 66.8844 39.4753 67.1447 40.1486C67.4339 40.8973 68.1808 41.3816 68.96 41.3265C69.3582 41.2983 69.7706 41.1913 70.2053 41.0778C70.4217 41.0216 70.6436 40.9638 70.8824 40.9112L71.3119 40.8145L71.1954 41.2345C71.0546 41.7436 70.9003 42.2585 70.7516 42.7552C70.4157 43.8781 70.0691 45.041 69.8471 46.1992C69.6237 47.3619 69.5185 48.5296 69.4058 49.7649C69.3567 50.2991 69.3071 50.8514 69.2467 51.4004L69.2008 51.8156L68.8449 51.5873C67.8307 50.937 66.6625 50.7185 65.5567 50.9738C64.4418 51.2312 63.4925 51.9395 62.8826 52.9675C62.6249 53.4022 62.5599 53.8465 62.6953 54.253C62.8337 54.6721 63.1859 55.0209 63.6839 55.2366C64.4793 55.5811 65.3521 55.6099 66.4297 55.3259C66.7764 55.2352 67.114 55.125 67.5037 54.9992C67.6894 54.9385 67.8842 54.8756 68.0932 54.8105L68.5056 54.6818L68.4323 55.1036C68.3852 55.3703 68.347 55.6299 68.308 55.8808C68.2255 56.4196 68.1484 56.9301 68.0151 57.4316L67.9877 57.5363C67.1604 60.6712 66.3033 63.9134 65.3971 67.0855C64.9713 68.5752 64.4919 70.0748 64.0279 71.5243L64.0169 71.5326Z" fill="black"/>
<path d="M43.3991 21.7114C43.8649 22.0204 43.9522 22.5552 43.6482 23.3084C43.5754 23.489 43.4883 23.6668 43.3878 23.8337C43.0029 24.467 42.6454 25.1205 42.2067 25.7155C41.8751 26.1655 41.4368 26.5359 40.9058 27.0856C40.9487 27.5351 41.0136 28.2294 41.08 28.9242C41.1622 28.9529 41.2459 28.9822 41.328 29.0109C42.8004 26.4986 44.3502 24.0252 45.7143 21.4543C46.3781 20.2032 46.7544 18.7865 47.1557 17.4141C47.3565 16.7272 47.0644 16.5219 46.4257 16.8801C45.2087 17.5655 43.9462 18.2234 42.8776 19.0994C41.5541 20.183 40.408 21.4779 39.164 22.7025C39.4502 23.1341 39.6443 23.4272 39.8417 23.7264C40.4757 23.1053 41.0433 22.5352 41.6292 21.9825C42.1222 21.5175 42.939 21.4058 43.3996 21.7099L43.3991 21.7114ZM40.2208 22.9864C40.1096 23.0952 39.9975 23.2069 39.8833 23.3198L39.4982 22.7394C39.8252 22.4128 40.1486 22.0818 40.4625 21.7594C41.3219 20.8785 42.1323 20.0473 43.0429 19.3005C43.9511 18.5562 45.0243 17.9595 46.0614 17.3816C46.2265 17.2896 46.3911 17.199 46.5546 17.1065C46.7959 16.9698 46.9107 16.9637 46.9454 16.9661C46.9543 16.9972 46.9712 17.1006 46.9019 17.3406L46.7826 17.7531C46.4309 18.971 46.0669 20.2284 45.4807 21.332C44.5177 23.1464 43.4418 24.9442 42.4031 26.6819C42.0404 27.2871 41.669 27.9096 41.3031 28.5304L41.1752 27.1791C41.3161 27.0345 41.4512 26.9032 41.5777 26.7776C41.9004 26.4597 42.1789 26.1863 42.414 25.8679C42.7481 25.4153 43.0374 24.9272 43.317 24.4544C43.4131 24.2911 43.5087 24.1292 43.6079 23.9668C43.7114 23.7958 43.8058 23.6053 43.8887 23.4028C44.3291 22.3073 43.9422 21.7597 43.5411 21.4923C42.976 21.1176 42.0163 21.255 41.4458 21.7908C41.0368 22.1753 40.6402 22.5686 40.2187 22.9824L40.2208 22.9864Z" fill="#A8ADED"/>
<path d="M24.155 16.0714C24.4064 15.8312 24.885 15.6032 25.174 15.6826C25.4983 15.7731 25.8204 16.1758 25.968 16.5161C26.1252 16.8794 26.0351 17.3393 26.1383 17.7358C26.1884 17.9278 26.416 18.1947 26.5896 18.2168C27.101 18.2803 27.6265 18.2382 28.2722 18.2384C27.2571 15.7449 27.2421 13.0651 25.8935 10.5866C23.5506 12.8994 23.2114 15.8192 22.3738 18.6662C22.8351 18.5593 23.1639 18.483 23.4876 18.4068C23.3041 17.491 23.4947 16.701 24.157 16.0703L24.155 16.0714ZM23.189 18.2111L22.7475 18.3141C22.8621 17.9002 22.9702 17.4858 23.075 17.0821C23.6455 14.8798 24.1869 12.7934 25.8285 11.0309C26.4651 12.3184 26.7748 13.6812 27.0739 15.0024C27.2968 15.987 27.5275 17.0006 27.8919 17.9857C27.8344 17.9863 27.7784 17.9873 27.7225 17.9882C27.3136 17.9965 26.9607 18.0038 26.6259 17.9634C26.5643 17.9443 26.4194 17.7862 26.3912 17.6759C26.3523 17.5291 26.3466 17.3625 26.3386 17.1869C26.3265 16.9318 26.3157 16.6671 26.2087 16.4192C26.0428 16.0349 25.6789 15.571 25.2666 15.4433C25.2589 15.4409 25.2512 15.4385 25.2435 15.4362C24.8167 15.3173 24.2445 15.6296 23.9743 15.8872C23.33 16.5035 23.0663 17.2842 23.1901 18.2131L23.189 18.2111Z" fill="#A8ADED"/>
<path d="M25.2407 42.5589C29.6183 42.7955 33.1254 41.0412 35.9182 37.8473C38.7605 34.5971 40.0252 30.8551 39.0683 26.5236C38.6397 24.5863 37.6494 23.0145 35.777 22.1734C34.353 21.5344 32.8747 21.0052 31.3952 20.5072C30.9251 20.3483 30.3696 20.4543 29.8556 20.4101C29.6241 20.39 29.3786 20.339 29.175 20.2343C28.5126 19.896 27.8483 19.8469 27.1367 20.0544C26.8589 20.1349 26.5428 20.1102 26.2448 20.0979C25.0992 20.0462 23.93 19.9456 22.9674 20.713C21.7719 21.6663 20.5955 22.6455 19.4472 23.6534C17.3875 25.4596 16.0954 27.7597 15.138 30.5198C15.0777 30.7691 14.9352 31.2294 14.8566 31.7011C14.4471 34.1564 14.6171 36.488 16.4019 38.4723C17.7364 39.9559 19.3501 41.0498 21.2013 41.7794C21.963 42.0801 22.7393 42.4753 23.6206 42.1555C23.7537 42.1068 23.9516 42.2297 24.1202 42.2735C24.4941 42.3727 24.8637 42.5404 25.2417 42.5609L25.2407 42.5589ZM24.5562 42.1339C24.4321 42.0938 24.3095 42.0541 24.1865 42.0211C24.143 42.0093 24.0962 41.9915 24.0515 41.9726C23.9009 41.9143 23.7144 41.8416 23.5299 41.9093C22.8366 42.1608 22.2094 41.905 21.5431 41.6338C21.4608 41.6 21.3801 41.5667 21.2974 41.5345C19.4611 40.8111 17.8796 39.7222 16.5979 38.2966C15.0948 36.6276 14.6381 34.6067 15.1155 31.7414C15.1708 31.4105 15.261 31.0756 15.327 30.8296C15.3522 30.7375 15.3735 30.6576 15.3896 30.5893C16.4229 27.6114 17.7678 25.4674 19.6209 23.8437C20.7384 22.8646 21.9192 21.8767 23.1317 20.912C23.9686 20.2455 24.9819 20.2945 26.0552 20.3455L26.3145 20.3575C26.5967 20.3717 26.9177 20.3861 27.2121 20.3008C27.8758 20.1068 28.4597 20.1594 29.0556 20.462C29.2695 20.5715 29.5328 20.6414 29.8352 20.6668C30.0356 20.6839 30.2374 20.6798 30.4307 20.6764C30.7527 20.6712 31.0532 20.6643 31.3113 20.7509C32.641 21.1992 34.1991 21.7482 35.6705 22.4085C37.3298 23.1536 38.3576 24.5172 38.8127 26.5759C39.6988 30.5809 38.6572 34.3154 35.72 37.6761C32.8461 40.9631 29.3249 42.5182 25.2539 42.2983C25.0318 42.2861 24.8019 42.2116 24.5567 42.1324L24.5562 42.1339Z" fill="#A8ADED"/>
<path d="M54.0531 61.8604C53.0234 61.4667 51.9843 61.0983 50.9376 60.7543C50.8134 60.7142 50.5213 60.8302 50.4877 60.933C50.0403 62.2911 49.6252 63.6591 49.192 65.0582C49.8596 65.2217 50.3518 65.3257 50.8346 65.4652C52.1862 65.8537 52.5444 66.8802 51.6337 67.9484C51.1307 68.5385 50.4937 69.0221 49.8844 69.5144C49.3046 69.9824 48.6794 70.3898 47.7582 69.5369C47.5299 71.0694 47.2819 72.366 47.1654 73.6734C47.1049 74.3588 47.6614 74.8324 48.3638 74.7636C48.8506 74.7162 49.4159 74.5999 49.7698 74.3066C50.3254 73.846 50.8373 73.2654 51.1852 72.6372C52.9685 69.4204 53.2312 65.7294 54.3066 62.2885C54.3409 62.1776 54.1795 61.9095 54.0526 61.8619L54.0531 61.8604ZM50.955 72.5094C50.6426 73.0719 50.1619 73.6389 49.5993 74.1056C49.3501 74.3115 48.9241 74.446 48.3344 74.5048C48.0547 74.5314 47.7977 74.4518 47.6282 74.2861C47.4758 74.1357 47.4055 73.9325 47.426 73.6975C47.5065 72.7951 47.6523 71.883 47.8064 70.9169C47.8529 70.625 47.9013 70.3271 47.948 70.0185C48.9046 70.6427 49.607 70.0727 50.0478 69.7164L50.2747 69.5336C50.8152 69.1 51.3753 68.6525 51.8313 68.1161C52.3215 67.5404 52.5004 66.9299 52.3352 66.396C52.1663 65.8526 51.6561 65.4366 50.9031 65.2168C50.5766 65.1223 50.2464 65.0451 49.8646 64.9552C49.7545 64.9294 49.6414 64.9027 49.5206 64.8736L49.6989 64.2979C50.0425 63.1824 50.3679 62.1261 50.7189 61.0578C50.758 61.035 50.8301 61.009 50.8681 61.0058C51.901 61.3456 52.9371 61.713 53.9456 62.0985C53.9768 62.1231 54.026 62.1983 54.0409 62.2428C53.6703 63.4399 53.3903 64.6817 53.1195 65.883C52.6157 68.1259 52.0954 70.4436 50.95 72.5095L50.955 72.5094Z" fill="#A8ADED"/>
<path d="M40.0269 23.9119C40.2205 23.7222 40.4096 23.536 40.5923 23.3545C41.0102 22.9412 41.4054 22.5525 41.8099 22.1716C42.2383 21.7682 42.9273 21.7102 43.2533 21.926C43.3832 22.0128 43.7806 22.2757 43.4034 23.211C43.332 23.387 43.2507 23.5516 43.1613 23.6987C43.0617 23.8627 42.9656 24.026 42.8675 24.1904C42.5948 24.652 42.3122 25.1289 41.993 25.5611C41.783 25.8473 41.5169 26.1079 41.2095 26.4089C41.0546 26.5607 40.8898 26.7228 40.7138 26.9047L40.632 26.9892L40.8333 29.1108L41.4462 29.3256L41.554 29.1409C41.9832 28.4081 42.4269 27.6665 42.8565 26.9488C43.8991 25.204 44.9768 23.4002 45.9462 21.5761C46.5567 20.4266 46.9291 19.1419 47.2869 17.8992L47.4057 17.4882C47.5353 17.0423 47.4908 16.7288 47.2722 16.5579C47.0495 16.3841 46.7191 16.4167 46.2927 16.6559C46.1296 16.7469 45.9661 16.8394 45.8015 16.93C44.7444 17.5183 43.6506 18.1269 42.706 18.9015C41.7729 19.6664 40.9135 20.5473 40.0833 21.399C39.7228 21.7685 39.3498 22.1508 38.976 22.5195L38.8256 22.6677L39.7975 24.1356L40.0249 23.913L40.0269 23.9119ZM39.1634 22.704C40.4074 21.4794 41.5535 20.1845 42.8769 19.1009C43.9472 18.2254 45.2086 17.5654 46.4251 16.8816C47.0642 16.5218 47.3564 16.7272 47.1551 17.4156C46.7553 18.7884 46.3795 20.2037 45.7137 21.4558C44.3485 24.0247 42.8003 26.4986 41.3274 29.0124C41.2452 28.9837 41.1616 28.9544 41.0794 28.9257C41.0145 28.2314 40.9476 27.5381 40.9051 27.0871C41.4341 26.5384 41.8745 26.167 42.206 25.717C42.6448 25.122 43.0023 24.4685 43.3871 23.8352C43.4893 23.6688 43.5748 23.4905 43.6476 23.3099C43.95 22.5562 43.8643 22.0219 43.3985 21.7129C42.9384 21.4073 42.1226 21.521 41.6281 21.9855C41.0427 22.5367 40.4746 23.1083 39.8406 23.7294C39.6432 23.4302 39.4491 23.1371 39.1629 22.7055L39.1634 22.704Z" fill="#A8ADED"/>
<path d="M67.9783 57.545L68.0056 57.4402C68.1379 56.9368 68.2161 56.4283 68.2986 55.8895C68.3365 55.6366 68.3757 55.379 68.4229 55.1123L68.4962 54.6905L68.0837 54.8192C67.8763 54.8848 67.6815 54.9477 67.4942 55.0079C67.1041 55.1352 66.767 55.2439 66.4203 55.3346C65.3427 55.6186 64.4699 55.5898 63.6745 55.2453C63.1765 55.0295 62.8247 54.6792 62.6859 54.2617C62.5504 53.8552 62.6155 53.4109 62.8731 52.9762C63.4831 51.9482 64.4324 51.2399 65.5473 50.9824C66.6531 50.7271 67.8217 50.9441 68.8355 51.5959L69.1914 51.8243L69.2373 51.409C69.2982 50.8585 69.3478 50.3062 69.3963 49.7736C69.5075 48.5378 69.6143 47.3706 69.8377 46.2078C70.0597 45.0497 70.4073 43.8888 70.7421 42.7639C70.8908 42.2672 71.0452 41.7523 71.186 41.2432L71.3025 40.8231L70.873 40.9199C70.6357 40.9729 70.4118 41.0318 70.1959 41.0865C69.7612 41.2 69.3507 41.3059 68.9505 41.3352C68.1714 41.3903 67.426 40.9065 67.1353 40.1572C66.875 39.484 67.0908 38.825 67.7451 38.3018C68.8193 37.4407 69.7976 36.9112 71.0798 37.1151L71.369 37.1613L71.381 36.8721C71.4749 34.6954 71.3528 32.5467 71.0064 30.3003L70.954 29.9577L70.6365 30.1009C70.468 30.1769 70.3092 30.2542 70.1564 30.3284C69.8523 30.4773 69.5648 30.6164 69.2755 30.7066C68.8596 30.8359 68.4742 30.7898 68.1915 30.5758C67.9077 30.3597 67.7608 30.0013 67.7772 29.5669C67.7888 29.2791 67.8145 28.9891 67.9273 28.8043C68.2342 28.3033 68.5655 27.8049 68.8855 27.3213C69.1659 26.9004 69.454 26.4652 69.7279 26.0273C69.8452 25.8389 70.0314 25.3954 69.8873 25.0711C69.4975 24.1847 69.0411 23.241 68.4515 22.1012C68.2766 21.7624 68.068 21.4448 67.8649 21.1372C67.7754 21.0013 67.6875 20.8659 67.6012 20.7309L67.4421 20.4769L67.2118 20.6653C67.0224 20.8197 66.8467 20.9734 66.6779 21.1209C66.331 21.4247 66.0025 21.7126 65.6471 21.9238C65.2816 22.1403 64.8962 22.1708 64.5955 22.0094C64.2989 21.851 64.1171 21.5234 64.0975 21.1128C64.0739 20.6011 64.2655 20.0311 64.4366 19.593C64.5336 19.345 64.7069 19.1173 64.8931 18.8753C64.9778 18.7651 65.066 18.6492 65.1464 18.5309L65.2828 18.3301L65.0897 18.1804C63.8596 17.2253 62.9174 16.8653 62.1242 17.0475C61.1802 17.2647 60.6088 18.2281 60.1745 19.1408L60.1426 19.2058C60.0952 19.3043 60.0465 19.4074 60.0044 19.516C59.5497 20.6853 59.6925 21.7051 60.4278 22.5486C60.8706 23.057 61.3589 23.5328 61.832 23.9922C61.9536 24.1114 62.0772 24.2296 62.1972 24.3483C62.5061 24.6521 62.8272 24.9546 63.1379 25.2472C63.7242 25.7983 64.3299 26.3687 64.8738 26.9699C66.2611 28.5065 66.9115 30.2394 66.808 32.1201C66.6638 34.7424 65.8702 37.2568 65.0683 39.6072C64.9855 39.8529 64.6223 40.16 64.3227 40.2403C63.8137 40.3758 63.5526 40.6146 63.3922 41.0893L63.183 41.7104C62.8286 42.7626 62.4624 43.8529 62.0534 44.9015C61.8857 45.329 61.6029 45.7576 61.2547 46.1092C61.0368 46.3281 60.7433 46.432 60.4674 46.3865C60.2283 46.3475 60.0354 46.2028 59.925 45.9822C59.5418 45.216 59.2173 44.3797 59.4311 43.4604C59.7038 42.2913 59.9684 41.1479 60.1958 40.0048C60.2478 39.7445 60.1012 39.2596 59.8233 39.1553C59.2797 38.9504 58.7229 38.783 58.183 38.6208C58.003 38.5651 57.8221 38.5124 57.6452 38.4576L57.4667 38.4024L57.3565 38.5514C57.3309 38.5851 57.3112 38.6106 57.2949 38.6305C57.254 38.6811 57.2056 38.7394 57.1889 38.8258C57.1741 38.9011 57.1638 38.9778 57.1535 39.0546C57.1468 39.1091 57.14 39.1636 57.1297 39.2186C56.8306 40.909 56.0835 42.3091 54.9073 43.38C54.1727 44.0482 53.6088 44.3613 52.9036 43.9815C52.3037 43.6593 52.1345 43.0675 52.3659 42.1187C52.7362 40.6069 53.2041 39.1336 53.65 37.7534C53.8005 37.289 53.8451 36.8183 53.1566 36.5153C52.5881 36.266 52.0155 35.9972 51.4624 35.736C50.9371 35.4885 50.3923 35.2333 49.8515 34.9926C49.5535 34.8604 49.2445 34.7747 48.9459 34.6939C48.8183 34.6594 48.6943 34.6243 48.5727 34.5867L48.2789 34.4957L48.2366 34.7956C48.1987 35.0652 48.1672 35.3301 48.1356 35.5901C48.0686 36.1386 48.0064 36.6554 47.8925 37.1595C47.357 39.5208 46.2566 41.1528 44.5254 42.1484C43.9818 42.4612 43.523 42.6088 43.0476 42.3201C42.5866 42.0392 42.5221 41.5997 42.5632 40.9333C42.5734 40.775 42.587 40.606 42.6169 40.4438C42.6876 40.0578 42.7633 39.6717 42.8369 39.2867C42.9745 38.5702 43.1175 37.8304 43.2384 37.097C43.3649 36.3288 43.4669 35.5746 43.5744 34.7755C43.6215 34.4272 43.6696 34.0759 43.7187 33.7215L43.7584 33.4408L43.472 33.4237C43.3691 33.4185 43.2844 33.4089 43.2109 33.4011C43.0573 33.3852 42.9349 33.3723 42.8028 33.4013C42.5878 33.4479 42.3762 33.5106 42.1701 33.5716C41.7843 33.6853 41.4202 33.7939 41.0645 33.7937C40.1018 33.7936 39.7816 34.4087 39.4992 34.9505L39.4211 35.0994C36.0559 41.4107 31.2321 44.3088 24.6763 43.9572C24.3278 43.9392 23.8483 43.9905 23.7098 44.6501C23.6785 44.8002 23.6284 44.9512 23.5697 45.1245C23.5414 45.2106 23.5116 45.3013 23.482 45.397L23.34 45.8557L23.8057 45.7236C25.0712 45.3663 26.2259 45.5956 27.3357 46.4219C27.6863 46.6836 27.8874 47.0089 27.9177 47.3629C27.9464 47.7114 27.8018 48.0695 27.5082 48.3698C26.5014 49.3999 23.9419 49.8743 22.6207 49.2788L22.3351 49.1504L20.3321 57.0304L20.6256 57.068C20.8461 57.0963 21.0699 57.114 21.2867 57.1328C22.3349 57.216 23.1624 57.2824 23.4642 58.393C23.6449 59.0566 23.1976 59.7388 22.2377 60.269C21.1498 60.8694 20.8425 60.8492 20.0504 60.1295L19.7254 59.8341L19.6084 60.299C19.0262 62.6208 18.4245 65.0215 18.6544 67.5082C18.6647 67.6113 18.6774 67.7334 18.7009 67.8589C18.7692 68.2047 18.8906 68.6185 19.2352 68.7634C19.5752 68.907 19.9437 68.7131 20.227 68.5278C21.4158 67.7539 22.2815 66.7384 22.799 65.5135C24.2315 62.1282 25.4408 58.3857 26.6035 53.7315C26.712 53.294 26.8556 53.0371 27.0516 52.9213C27.2331 52.8144 27.5073 52.811 27.8863 52.9101C30.0912 53.4828 31.8842 53.9431 33.5295 54.3576C34.1363 54.5105 34.446 54.6646 34.5664 54.875C34.6856 55.0834 34.6626 55.4192 34.4854 55.9969C34.266 56.7164 34.0415 57.436 33.8189 58.1495L33.4432 59.3633L33.721 59.4243C33.9451 59.4738 34.1634 59.5147 34.3746 59.5568C34.82 59.6431 35.2418 59.7237 35.6303 59.8573C36.0112 59.9886 36.477 60.281 36.5397 60.928C36.5958 61.5147 36.2257 61.8496 35.9061 62.027C35.7902 62.091 35.6749 62.1585 35.5585 62.224C34.7115 62.7109 33.9095 63.1718 32.8282 62.8853L32.5634 62.8149L32.5065 63.0803C32.3796 63.6753 32.247 64.2668 32.1169 64.8558C31.812 66.233 31.4964 67.6552 31.2446 69.0622C31.0894 69.9281 31.0439 70.8213 30.9991 71.6847C30.9854 71.9468 30.9717 72.209 30.956 72.4721C30.9294 72.8901 31.0776 73.0974 31.2064 73.1989C31.2526 73.2348 31.3125 73.27 31.3894 73.2939C31.5094 73.331 31.6704 73.3392 31.8785 73.2771C33.2162 72.8772 34.3875 72.0563 35.565 70.6928L35.8991 70.3051L35.3842 70.2639C35.2394 70.2524 35.1064 70.2462 34.9801 70.2404C34.7457 70.2294 34.543 70.2199 34.3603 70.1783C33.978 70.0899 33.7052 69.9089 33.5747 69.6554C33.4522 69.4194 33.4596 69.1287 33.5945 68.8126C34.1614 67.4881 35.6529 66.7113 37.0636 67.0066L37.2677 67.0498L37.3546 66.862C37.3801 66.8066 37.4092 66.7507 37.4368 66.6943C37.5071 66.5546 37.5802 66.4108 37.6286 66.2493L37.9083 65.3021C38.5802 63.023 39.2745 60.666 39.9351 58.3417C40.0196 58.0416 40.063 57.7271 40.1036 57.4217C40.1652 56.9613 40.2239 56.5267 40.4198 56.1828C41.0885 55.0031 41.8617 53.8508 42.6098 52.7357C42.8761 52.3386 43.1423 51.9416 43.4059 51.5421C43.4559 51.4677 43.5599 51.3934 43.6593 51.3226L43.6808 51.3076C43.9873 51.0912 44.3131 51.0189 44.6022 51.1034C44.8652 51.1799 45.0738 51.3826 45.1986 51.6876C45.3918 52.1636 45.487 52.6675 45.466 53.1055C45.4342 53.7366 45.3559 54.3816 45.2795 55.0039C45.2285 55.4192 45.1748 55.8487 45.1372 56.2749C45.1349 56.2825 45.0857 57.0348 45.4642 57.1902C46.6643 57.6866 47.8682 58.1492 49.0334 58.5949C49.3304 58.7085 49.6228 58.8207 49.9116 58.9334L50.1104 59.0099L50.2255 58.8341C50.5081 58.4006 50.7848 57.9752 51.0566 57.5549C51.748 56.4871 52.4006 55.4789 53.0841 54.4803C53.3986 54.0199 53.7806 53.6138 54.186 53.3065C54.442 53.1111 54.7333 53.0581 54.9811 53.1615C55.2341 53.2647 55.4041 53.5105 55.4505 53.8345C55.5095 54.254 55.4872 54.7398 55.3864 55.2397C55.1476 56.4193 54.8904 57.5715 54.6175 58.7905C54.5136 59.2511 54.4109 59.7137 54.3062 60.1824L54.2578 60.3988L54.4665 60.4817C54.5507 60.5145 54.6361 60.5492 54.724 60.5865C54.9292 60.67 55.14 60.7569 55.3596 60.8315C55.8868 61.013 56.4159 61.1935 56.944 61.372C57.739 61.6414 58.5627 61.9214 59.3667 62.2053C60.1979 62.4993 60.3238 62.7463 60.0776 63.5957C59.9092 64.1778 59.7366 64.757 59.5651 65.3382C59.3847 65.9482 59.2038 66.5597 59.026 67.1722C58.9899 67.2942 58.9788 67.4173 58.9688 67.5474C58.9637 67.6074 58.9577 67.6705 58.9498 67.7396L58.9021 68.1277L59.2816 68.0238C59.3847 67.9958 59.4781 67.9664 59.5644 67.9382C59.7163 67.8887 59.8359 67.8508 59.9461 67.8433C60.8003 67.7798 61.3703 67.8448 61.7551 68.3718C62.1009 68.8451 62.048 69.3697 61.5904 70.0255C61.2879 70.4579 60.9229 70.8692 60.502 71.2483C59.6668 72.0019 59.4184 72.0365 58.4632 71.5277L58.1821 71.3791L58.0895 71.6784C58.0349 71.8546 57.9753 72.0309 57.9171 72.2077C57.7842 72.6044 57.6475 73.0132 57.5559 73.4343C57.3282 74.4858 57.0688 75.6774 56.9212 76.8569C56.8023 77.8073 57.0072 78.6265 57.5323 79.2885C58.0159 79.8993 58.6461 80.1344 59.2191 79.9173C60.5996 79.3958 61.5437 78.5028 61.9511 77.3338L62.0298 77.1068L61.807 77.0095C61.6779 76.9529 61.5379 76.9095 61.403 76.8661C61.2691 76.8246 61.0716 76.7602 61.0068 76.7135C60.9322 76.399 60.9917 75.978 61.1449 75.7774C61.4428 75.3868 61.8878 75.0551 62.3049 74.9113C62.9007 74.7078 63.1148 74.3646 63.255 73.9119C63.5 73.1204 63.757 72.3177 64.006 71.5408C64.4699 70.0913 64.9494 68.5916 65.3752 67.102C66.2829 63.9304 67.138 60.6892 67.9658 57.5527L67.9783 57.545Z" fill="#A8ADED"/>
<path d="M54.5579 62.3646C54.6369 62.1094 54.385 61.7084 54.1467 61.618C53.1212 61.2272 52.0686 60.8531 51.0189 60.5081L51.0127 60.5062C50.7681 60.4305 50.322 60.597 50.2369 60.8503C49.8782 61.9379 49.5487 63.0078 49.1993 64.1416L48.8584 65.2429L49.1292 65.3101C49.3535 65.3646 49.5577 65.4128 49.7476 65.4583C50.1218 65.5459 50.4453 65.6227 50.761 65.7138C51.3391 65.8778 51.7206 66.1757 51.8358 66.5443C51.9472 66.9034 51.8042 67.3436 51.4316 67.7792C51.0076 68.2773 50.4675 68.7093 49.9449 69.1285L49.716 69.3124C49.1292 69.7866 48.6885 70.0447 47.935 69.347L47.5693 69.009L47.4977 69.4962C47.428 69.9608 47.3568 70.4032 47.2888 70.8299C47.1318 71.8051 46.9847 72.7268 46.9038 73.6473C46.8693 74.0362 46.9964 74.3935 47.26 74.6532C47.405 74.7947 47.5863 74.9007 47.7863 74.9627C47.974 75.0208 48.1785 75.0408 48.3902 75.0214C49.0876 74.9527 49.6083 74.7793 49.9376 74.505C50.5566 73.9925 51.0669 73.3897 51.4143 72.7631C52.5947 70.6331 53.1233 68.278 53.6344 66.0008C53.9041 64.7974 54.1845 63.5541 54.5554 62.3671L54.5579 62.3646ZM51.1857 72.6357C50.8373 73.2653 50.3259 73.8445 49.7703 74.305C49.4164 74.5984 48.851 74.7146 48.3643 74.7621C47.6618 74.8309 47.1054 74.3573 47.1659 73.6719C47.2824 72.3645 47.5299 71.0694 47.7587 69.5354C48.6799 70.3883 49.3046 69.9824 49.8849 69.5128C50.4942 69.0206 51.1327 68.5374 51.6342 67.9469C52.5449 66.8787 52.1866 65.8522 50.8351 65.4637C50.3522 65.3242 49.8597 65.2217 49.1925 65.0567C49.6257 63.6576 50.0408 62.2895 50.4882 60.9315C50.5218 60.8287 50.8159 60.7116 50.9381 60.7528C51.9848 61.0968 53.0239 61.4652 54.0535 61.8588C54.1804 61.9064 54.3414 62.176 54.3076 62.2854C53.2321 65.7264 52.9699 69.4158 51.1862 72.6342L51.1857 72.6357Z" fill="#A8ADED"/>
<path d="M23.7434 18.3594C23.5699 17.4933 23.7641 16.806 24.3379 16.2595C24.5535 16.0532 24.9417 15.8887 25.1046 15.9342C25.1077 15.9351 25.1108 15.9361 25.1139 15.937C25.3169 15.9999 25.5892 16.3023 25.7254 16.6191C25.7952 16.7806 25.8039 16.9864 25.814 17.2043C25.8225 17.4 25.8312 17.6008 25.8821 17.8013C25.9481 18.0565 26.2361 18.4386 26.5565 18.4763C26.9378 18.5244 27.3253 18.5145 27.7373 18.5072C27.9071 18.5032 28.0851 18.5 28.2723 18.4997L28.657 18.499L28.5121 18.1445C28.083 17.091 27.8292 15.972 27.5841 14.8906C27.2508 13.424 26.9071 11.9092 26.1216 10.4658L25.954 10.1575L25.7058 10.4036C23.7655 12.32 23.155 14.673 22.5649 16.9491C22.4249 17.4884 22.2804 18.048 22.1197 18.5942L21.9937 19.023L23.7919 18.6059L23.743 18.361L23.7434 18.3594ZM22.3739 18.6662C23.2115 15.8192 23.5511 12.8979 25.8936 10.5866C27.2422 13.0651 27.2572 15.7449 28.2723 18.2384C27.6262 18.2398 27.1011 18.2803 26.5897 18.2168C26.4176 18.1952 26.1885 17.9278 26.1384 17.7358C26.0352 17.3393 26.1253 16.8795 25.9681 16.5161C25.8205 16.1758 25.4989 15.7716 25.1741 15.6827C24.8851 15.6032 24.4065 15.8312 24.1551 16.0714C23.4939 16.704 23.3022 17.492 23.4857 18.4078C23.1604 18.4836 22.8337 18.5589 22.3719 18.6673L22.3739 18.6662Z" fill="#A8ADED"/>
<path d="M25.2296 42.8183C29.4697 43.0473 33.1329 41.4313 36.1181 38.0189C39.1691 34.5303 40.2475 30.6441 39.3256 26.4716C38.8384 24.2715 37.6819 22.7464 35.8852 21.9388C34.3932 21.2688 32.8212 20.7155 31.4797 20.2619C31.1313 20.1457 30.7717 20.1525 30.4188 20.1598C30.2286 20.1642 30.0506 20.1673 29.8782 20.1523C29.6483 20.1327 29.4465 20.0819 29.2954 20.0035C28.5825 19.6379 27.8538 19.5738 27.0639 19.8053C26.8543 19.867 26.5919 19.854 26.3393 19.8423L26.08 19.8303C24.9567 19.7772 23.7957 19.7207 22.8047 20.5093C21.5852 21.4802 20.3984 22.4712 19.2755 23.457C17.3502 25.1449 15.9577 27.3607 14.8938 30.4324L14.89 30.4445L14.8862 30.4567C14.8706 30.5234 14.8477 30.6029 14.8241 30.6955C14.7553 30.9505 14.6603 31.3007 14.6011 31.6552C13.9467 35.5878 15.2063 37.526 16.211 38.6428C17.5497 40.1293 19.1975 41.2654 21.1104 42.0191C21.19 42.0504 21.2692 42.0833 21.3504 42.1151C21.5797 42.2077 21.8177 42.3047 22.0654 42.3814C22.5685 42.5372 23.1138 42.6111 23.7012 42.4018C23.737 42.4062 23.8151 42.437 23.8649 42.4558C23.9266 42.4798 23.9898 42.5044 24.0569 42.5219C24.1706 42.5521 24.2855 42.5893 24.3984 42.6276C24.6637 42.713 24.9392 42.8033 25.2311 42.8188L25.2296 42.8183ZM24.1208 42.2719C23.9523 42.2281 23.7543 42.1052 23.6212 42.1539C22.7399 42.4737 21.9641 42.077 21.2019 41.7778C19.3507 41.0482 17.7386 39.9547 16.4025 38.4707C14.6162 36.4859 14.4477 34.1548 14.8572 31.6995C14.9358 31.2278 15.0783 30.7675 15.1386 30.5182C16.096 27.7581 17.3881 25.458 19.4478 23.6518C20.5961 22.6439 21.7726 21.6647 22.968 20.7114C23.9306 19.944 25.0998 20.0446 26.2455 20.0963C26.543 20.1102 26.8606 20.1353 27.1373 20.0528C27.849 19.8453 28.5117 19.894 29.1756 20.2327C29.3792 20.3374 29.6263 20.3889 29.8562 20.4085C30.3702 20.4527 30.9257 20.3467 31.3958 20.5056C32.8764 21.0056 34.3551 21.5333 35.7777 22.1718C37.65 23.0129 38.6403 24.5847 39.0689 26.522C40.0259 30.8535 38.7611 34.5955 35.9188 37.8457C33.126 41.0397 29.621 42.7929 25.2413 42.5573C24.8632 42.5368 24.4936 42.3691 24.1197 42.27L24.1208 42.2719Z" fill="#A8ADED"/>
<path d="M29.7849 38.8433C30.5177 38.366 31.0245 37.6872 31.2473 36.8805C31.272 36.79 31.231 36.6391 31.1922 36.4922C31.191 36.4852 31.1893 36.4797 31.1861 36.4737C31.0456 36.4918 30.8996 36.5115 30.8261 36.5637C30.5692 36.7455 30.3165 36.9519 30.0743 37.1516C29.7847 37.3899 29.4841 37.6365 29.1634 37.8501C28.5255 38.2769 27.8781 38.6308 27.2399 38.906C26.9344 39.0378 26.2845 38.8716 26.1273 38.5516C25.8027 37.8901 25.4485 37.1062 25.283 36.2958C25.2163 35.9722 25.4307 35.6607 25.6384 35.3604C25.7095 35.2559 25.7767 35.1585 25.8284 35.068C26.0328 34.7018 26.0943 34.3396 26.004 34.0486C25.9365 33.8313 25.7892 33.6642 25.5645 33.5513C24.8022 33.1655 23.1118 33.5993 22.6927 34.2886C22.5901 34.4566 22.5581 34.7397 22.5979 34.807C23.0996 35.6099 22.5381 36.1219 22.2696 36.3684C22.1667 36.4614 22.0658 36.5583 21.9655 36.6538C21.7171 36.8898 21.4607 37.1351 21.1735 37.3442C20.7793 37.6316 20.2646 37.9434 19.8016 37.7834C19.4434 37.6609 19.1958 37.3062 18.9991 36.6344C18.7975 35.946 18.6513 35.2365 18.5087 34.5481C18.4397 34.2154 18.3718 33.8848 18.2973 33.5537C18.2429 33.3155 18.1163 32.9567 17.8271 32.8671C17.7578 32.8457 17.6788 32.8395 17.5881 32.8547C17.2441 32.9147 17.0764 33.2606 17.1617 33.7365L17.1873 33.8826C17.3525 34.8028 17.5216 35.7541 17.7801 36.6565C18.1402 37.9166 18.7316 38.7074 19.4916 38.9427L19.4947 38.9436C20.2644 39.1803 21.2127 38.8512 22.237 37.9931C22.5559 37.7255 22.8553 37.4337 23.1705 37.1234C23.3205 36.9767 23.4724 36.829 23.6284 36.6792L23.9032 36.418L24.0509 36.7684C24.1608 37.0288 24.2635 37.2853 24.3629 37.5359C24.5743 38.0675 24.7728 38.5701 25.0283 39.0354C25.6358 40.1391 26.3852 40.436 27.5344 40.0294C28.3368 39.7467 29.0884 39.2902 29.7812 38.8388L29.7849 38.8433Z" fill="black"/>
<path d="M27.7175 40.5222C28.5713 40.2205 29.3556 39.7459 30.0759 39.2763C30.9163 38.7291 31.4969 37.9483 31.7522 37.0202C31.8147 36.7965 31.7529 36.566 31.6979 36.3625C31.677 36.2828 31.6568 36.2066 31.6444 36.1378L31.5993 35.8642L31.3256 35.9259C31.2618 35.9412 31.1898 35.9505 31.1127 35.9599C30.918 35.9845 30.6979 36.0146 30.519 36.1407C30.2455 36.3323 29.9873 36.5454 29.7361 36.7523C29.456 36.9819 29.1664 37.2202 28.8667 37.4204C28.2548 37.8285 27.635 38.1694 27.0285 38.4294C26.9422 38.4576 26.6635 38.383 26.5901 38.3153C26.2821 37.6873 25.9468 36.9459 25.7956 36.1982C25.774 36.0883 25.9521 35.8288 26.0709 35.6575C26.1465 35.5494 26.2236 35.4367 26.2853 35.3243C26.5584 34.8345 26.6356 34.3291 26.5017 33.9014C26.3915 33.5493 26.1478 33.2691 25.7978 33.0925C24.7953 32.584 22.7982 33.1044 22.2398 34.0202C22.0894 34.2666 21.9577 34.7736 22.1496 35.0794C22.3851 35.4569 22.2726 35.6568 21.9091 35.9871C21.8036 36.0826 21.7003 36.1822 21.5975 36.2802C21.3511 36.5152 21.117 36.7374 20.8578 36.9268C20.4401 37.2303 20.1422 37.3595 19.965 37.2946C19.7941 37.2367 19.6366 36.9666 19.498 36.4942C19.3019 35.8258 19.1575 35.1269 19.0182 34.4495C18.9482 34.1149 18.8802 33.7792 18.8046 33.4461C18.6269 32.6586 18.1237 32.2365 17.4914 32.3454C16.8541 32.4544 16.5052 33.0639 16.6421 33.8254L16.6676 33.9715C16.8342 34.9037 17.0078 35.868 17.273 36.7975C17.6839 38.2365 18.3975 39.15 19.336 39.4405L19.3406 39.442C20.2893 39.7323 21.4076 39.3711 22.5755 38.3925C22.9103 38.1116 23.2167 37.8136 23.5394 37.4957C23.5974 37.4387 23.6555 37.3818 23.7156 37.3238C23.7699 37.4588 23.8232 37.5919 23.8749 37.7244C24.0913 38.2725 24.2972 38.7891 24.5687 39.2843C25.2968 40.6084 26.3251 41.0117 27.714 40.5228L27.7175 40.5222ZM24.8022 39.1618C24.416 38.4596 24.1598 37.6861 23.8125 36.8694C23.3251 37.3328 22.89 37.7907 22.4077 38.1941C20.1865 40.0534 18.3194 39.5003 17.5272 36.728C17.2524 35.764 17.0797 34.7699 16.9015 33.7825C16.7849 33.1354 17.0634 32.6823 17.5386 32.6014C18.0245 32.5187 18.4023 32.8504 18.5495 33.502C18.781 34.5242 18.9538 35.5616 19.2464 36.5661C19.5817 37.7104 20.045 37.8421 21.0137 37.1366C21.3994 36.8548 21.7328 36.5019 22.0874 36.1788C22.4634 35.8358 22.7184 35.4969 22.3721 34.9435C22.2596 34.7622 22.3346 34.3675 22.4646 34.1547C22.9594 33.3407 24.8167 32.8853 25.6795 33.3222C26.3439 33.6594 26.4917 34.4127 26.0547 35.198C25.861 35.5459 25.4747 35.944 25.5369 36.2496C25.6904 37.0063 26.0143 37.7409 26.3603 38.4423C26.4429 38.611 26.9345 38.7549 27.1308 38.6708C27.7866 38.3878 28.4187 38.0341 29.0137 37.6373C29.594 37.2493 30.1006 36.7569 30.6719 36.3545C30.8574 36.2238 31.1441 36.2343 31.3849 36.1807C31.4276 36.4403 31.5605 36.7245 31.4981 36.9532C31.2521 37.8459 30.6959 38.5643 29.9295 39.0629C29.2032 39.5355 28.4389 39.9948 27.627 40.2811C26.3435 40.7344 25.4594 40.3608 24.8013 39.1649L24.8022 39.1618Z" fill="#A8ADED"/>
<path d="M29.9302 39.0598C30.6966 38.5613 31.2528 37.8429 31.4988 36.9502C31.5617 36.7199 31.4288 36.4357 31.3857 36.1777C31.1448 36.2313 30.8581 36.2208 30.6726 36.3514C30.1013 36.7539 29.5943 37.2478 29.0144 37.6343C28.421 38.0316 27.7888 38.3852 27.1315 38.6678C26.9352 38.7519 26.4431 38.6095 26.361 38.4392C26.0166 37.7383 25.6927 37.0038 25.5376 36.2466C25.4754 35.941 25.8612 35.5444 26.0554 35.195C26.492 34.4112 26.3446 33.6564 25.6802 33.3192C24.8174 32.8822 22.9616 33.3382 22.4653 34.1517C22.3353 34.3645 22.2583 34.7602 22.3728 34.9405C22.7191 35.4938 22.4641 35.8327 22.0881 36.1758C21.7335 36.4988 21.4016 36.8522 21.0144 37.1335C20.0462 37.8376 19.5824 37.7073 19.2471 36.5631C18.953 35.5581 18.7802 34.5207 18.5502 33.499C18.403 32.8474 18.0252 32.5157 17.5393 32.5983C17.0636 32.6808 16.7856 33.1324 16.9022 33.7795C17.0788 34.7664 17.2511 35.762 17.5279 36.725C18.3201 39.4973 20.1872 40.0504 22.4084 38.191C22.8907 37.7877 23.3243 37.3293 23.8132 36.8664C24.159 37.6826 24.4157 38.4546 24.8029 39.1588C25.4611 40.3547 26.3436 40.7279 27.6286 40.275C28.441 39.9872 29.2069 39.5284 29.9312 39.0568L29.9302 39.0598ZM25.0319 39.0399C24.7749 38.5741 24.5764 38.0715 24.3666 37.5404C24.2671 37.2899 24.166 37.0338 24.0546 36.7729L23.9068 36.4225L23.632 36.6837C23.4745 36.8331 23.3226 36.9808 23.1742 37.128C22.8589 37.4382 22.5595 37.7301 22.2406 37.9976C21.2163 38.8558 20.268 39.1848 19.4983 38.9482L19.4953 38.9472C18.7352 38.7119 18.1438 37.9212 17.7837 36.661C17.5257 35.7571 17.3551 34.8053 17.1909 33.8872L17.1653 33.7411C17.0804 33.2636 17.2467 32.9172 17.5917 32.8593C17.6809 32.8436 17.7599 32.8497 17.8307 32.8716C18.1199 32.9612 18.2481 33.3205 18.3009 33.5583C18.3759 33.8878 18.4449 34.2205 18.5123 34.5526C18.6539 35.2391 18.8011 35.9505 19.0028 36.6389C19.1989 37.3123 19.4465 37.6669 19.8053 37.788C20.2683 37.948 20.7829 37.6362 21.1771 37.3487C21.4643 37.1396 21.7207 36.8944 21.9691 36.6583C22.0695 36.5629 22.1703 36.4659 22.2733 36.3729C22.5433 36.1269 23.1048 35.6149 22.6016 34.8115C22.5622 34.7427 22.5937 34.4612 22.6963 34.2931C23.1154 33.6039 24.8059 33.17 25.5682 33.5558C25.7913 33.6682 25.9381 33.8368 26.0077 34.0532C26.0995 34.3446 26.0364 34.7063 25.832 35.0725C25.7819 35.1636 25.7147 35.2609 25.642 35.365C25.4344 35.6652 25.2199 35.9767 25.2866 36.3004C25.4522 37.1108 25.8063 37.8946 26.1309 38.5561C26.2886 38.8746 26.9384 39.0409 27.2435 38.9106C27.8817 38.6354 28.5295 38.2799 29.167 37.8547C29.4882 37.6395 29.7883 37.3945 30.0779 37.1562C30.3216 36.9569 30.5728 36.75 30.8298 36.5682C30.9048 36.5165 31.0493 36.4964 31.1897 36.4782C31.1914 36.4838 31.1926 36.4908 31.1958 36.4968C31.2346 36.6436 31.2756 36.7945 31.2509 36.8851C31.0282 37.6918 30.5233 38.3695 29.7885 38.8478C29.0957 39.2992 28.3425 39.7552 27.5417 40.0384C26.3925 40.445 25.6431 40.1481 25.0356 39.0444L25.0319 39.0399Z" fill="#A8ADED"/>
<path d="M20.4062 28.5232C20.7096 28.8718 21.113 29.0284 21.512 28.9538C22.532 28.7635 23.3596 28.1923 23.9063 27.2978C24.2311 26.7658 24.062 26.1358 23.494 25.7652C23.3564 25.6759 23.2029 25.6051 23.0399 25.5547C22.5845 25.4137 22.046 25.4267 21.5217 25.6007C20.8209 25.8332 20.2815 26.3121 20.0822 26.8797C19.888 27.4305 20.0157 28.0744 20.4062 28.5232Z" fill="black"/>
<path d="M20.0103 28.8601C20.2492 29.1338 20.5359 29.3241 20.8436 29.4194C21.0898 29.4956 21.3512 29.5116 21.612 29.4642C22.7819 29.2471 23.73 28.5917 24.3549 27.5699C24.8263 26.7986 24.5847 25.8581 23.7792 25.3341C23.1227 24.9061 22.2144 24.823 21.3501 25.1097C20.4969 25.3933 19.8368 25.9897 19.5858 26.7077C19.3319 27.4298 19.4983 28.2754 20.0098 28.8616L20.0103 28.8601ZM19.8343 26.7929C20.3178 25.4161 22.3908 24.7378 23.6366 25.5496C24.3045 25.9845 24.541 26.7619 24.1306 27.4339C23.5483 28.389 22.6684 29.0038 21.5628 29.2092C20.3803 29.4291 19.402 28.0258 19.8343 26.7929Z" fill="#A8ADED"/>
<path d="M21.5628 29.2092C22.6684 29.0038 23.5483 28.3889 24.1306 27.4339C24.5405 26.7634 24.3045 25.9845 23.6366 25.5496C22.3908 24.7377 20.3178 25.4161 19.8343 26.7929C19.4024 28.0243 20.3808 29.4276 21.5628 29.2092ZM21.5213 25.6022C22.0456 25.4282 22.5841 25.4152 23.0395 25.5562C23.2025 25.6067 23.356 25.6775 23.4936 25.7667C24.0621 26.1358 24.2312 26.7658 23.9059 27.2994C23.3596 28.1923 22.5331 28.7655 21.5116 28.9553C21.111 29.0294 20.7077 28.8729 20.4058 28.5247C20.0153 28.0759 19.8876 27.432 20.0817 26.8812C20.2811 26.3136 20.8185 25.8357 21.5213 25.6022Z" fill="#A8ADED"/>
<path d="M30.619 30.5565C30.7133 30.922 30.9399 31.1919 31.2443 31.2978C31.5426 31.4018 31.8879 31.3373 32.1881 31.1139C32.5601 30.8379 32.8673 30.4719 33.1913 30.0844C33.3192 29.9326 33.4501 29.7766 33.5862 29.6257C33.6888 28.7934 33.4885 28.1604 33.0153 27.8375C32.9014 27.7589 32.7655 27.6968 32.6178 27.6511C32.0409 27.4725 31.2871 27.5438 30.9262 27.8599C30.6186 28.1292 30.4607 28.3234 30.4559 28.4368C30.4336 29.0425 30.4322 29.8311 30.6195 30.555L30.619 30.5565Z" fill="black"/>
<path d="M30.1118 30.6808C30.2496 31.2162 30.6002 31.6194 31.0715 31.7853C31.0884 31.7905 31.1068 31.7962 31.1238 31.8015C31.5792 31.9425 32.0799 31.8445 32.5049 31.5282C32.9254 31.2156 33.2667 30.8102 33.5961 30.4161C33.7374 30.2484 33.882 30.0751 34.0296 29.9144L34.0831 29.856L34.0938 29.7778C34.2482 28.7019 33.9705 27.8618 33.3108 27.4112C32.5414 26.8849 31.2126 26.913 30.5769 27.4687C30.2489 27.755 29.9444 28.0686 29.9318 28.4143C29.9089 29.0548 29.9077 29.8918 30.1108 30.6788L30.1118 30.6808ZM30.7519 27.666C31.3114 27.1767 32.5112 27.1786 33.1636 27.6253C33.7591 28.0327 33.9695 28.807 33.8354 29.741C33.3447 30.275 32.9198 30.8959 32.346 31.3225C31.5664 31.9019 30.6088 31.5588 30.3657 30.6179C30.1835 29.9156 30.1678 29.1549 30.1942 28.4273C30.2033 28.1637 30.5144 27.8722 30.7519 27.666Z" fill="#A8ADED"/>
<path d="M30.3656 30.6179C30.6088 31.5589 31.5649 31.9015 32.346 31.3226C32.9193 30.8975 33.3442 30.2766 33.8354 29.7411C33.9695 28.8071 33.7606 28.0333 33.1636 27.6253C32.5096 27.1782 31.3113 27.1767 30.7518 27.6661C30.5139 27.8738 30.2032 28.1638 30.1941 28.4273C30.1673 29.1565 30.1835 29.9156 30.3656 30.6179ZM30.9262 27.8599C31.2866 27.5453 32.0408 27.4725 32.6178 27.6511C32.7655 27.6969 32.9014 27.7589 33.0153 27.8375C33.487 28.16 33.6888 28.7934 33.5862 29.6257C33.4501 29.7767 33.3192 29.9326 33.1913 30.0844C32.8658 30.4714 32.5606 30.8364 32.188 31.1139C31.8884 31.3358 31.543 31.4003 31.2443 31.2978C30.9419 31.1909 30.7137 30.9205 30.619 30.5565C30.4333 29.8332 30.4347 29.0445 30.4554 28.4383C30.4591 28.3229 30.617 28.1288 30.9257 27.8614L30.9262 27.8599Z" fill="#A8ADED"/>
</g>
<defs>
<clipPath id="clip0_843_4698">
<rect width="66" height="70" fill="white" transform="translate(20.7026) rotate(17.2026)"/>
</clipPath>
</defs>
</svg>
